<svg width="699" height="240" xmlns="http://www.w3.org/2000/svg"><g fill-rule="nonzero" fill="none"><path d="M239.09 120c0 65.771-53.318 119.09-119.09 119.09S.91 185.771.91 120 54.228.91 120 .91 239.09 54.229 239.09 120" fill="#237DAC"/><path d="M119.998 179.52c22.714-.729 40.44-20.516 37.054-46.344-1.615-12.302-10.555-26.723-16.466-37.836-7.037-13.229-14.12-24.247-20.586-34.862-6.466 10.618-13.553 21.633-20.584 34.862-5.913 11.115-14.851 25.53-16.466 37.836-3.391 25.83 14.336 45.617 37.051 46.344" fill="#FFF"/><path d="M93.735 157.411c13.125-.458 23.37-12.896 21.411-29.127-.933-7.732-6.099-16.796-9.515-23.781-4.066-8.314-8.159-15.24-11.896-21.912-3.736 6.673-7.832 13.597-11.895 21.912-3.416 6.985-8.582 16.046-9.516 23.781-1.957 16.232 8.286 28.667 21.411 29.127" fill="#5CA9D6"/><path d="M219.58 173.43c-35.391 0-40.17-26.544-40.17-39.279 0-12.564 4.424-44.771 45.832-44.771 9.379 0 17.519 2.654 17.519 2.654v26.897h-16.28V106.9s-2.124-1.062-6.02-1.062c-9.02 0-21.589 7.432-21.589 27.959 0 13.271 8.14 23.535 23.889 23.535 8.848 0 20.881-4.07 27.605-18.05 0 0 6.193 7.608 7.609 10.09.354.53.354.885.354 1.237-.001 5.134-10.441 22.83-38.754 22.83" fill="#FFF"/><path d="M287.53 173.07c-27.959 0-38.577-21.234-38.577-41.938 0-18.934 10.794-41.938 38.577-41.938 28.49 0 38.576 21.766 38.576 41.938 0 19.11-10.794 41.938-38.576 41.938m0-15.925c14.333 0 18.58-14.865 18.58-26.011 0-10.971-4.247-25.835-18.58-25.835-14.511 0-18.757 14.864-18.757 25.835-.001 11.149 4.246 26.011 18.757 26.011M424.68 140.87l7.434 10.264s.531.708.531 1.416c0 4.247-8.85 19.818-27.782 19.818-13.804 0-17.873-12.21-17.873-12.21-.177-.354-.354-.53-.53-.53-.354 0-.531.354-.531.354-4.955 8.67-14.333 13.09-24.949 13.09-27.784 0-30.969-26.01-30.969-35.922 0-22.65 11.856-47.956 48.311-47.956 1.593 0 3.361 0 5.132.177v-30.08h-7.433V43.365h26.19v99.63c0 3.716 1.238 10.439 8.493 10.439 4.424.002 10.794-2.477 13.979-12.563m-41.231-34.505s-2.479-1.062-8.849-1.062c-8.848 0-24.773 6.547-24.773 29.2 0 4.602.177 19.996 14.864 19.996 12.029 0 18.758-10.264 18.758-19.288v-28.844" fill="#FFF"/><path d="M441.84 92.38v13.449s0 .708.354.708c.177 0 .354-.177.708-.708.354-.531 10.09-15.749 30.79-15.749 1.593 0 4.955.177 6.02.885v31.498h-15.926v-12.387c-6.726 0-11.502 4.247-14.688 8.671-5.662 7.963-6.192 19.11-6.192 22.649v28.845H423.97V92.38h17.873M521.48 173.07c-27.959 0-38.576-21.234-38.576-41.938 0-18.934 10.794-41.938 38.576-41.938 28.489 0 38.576 21.766 38.576 41.938.002 19.11-10.793 41.938-38.576 41.938m0-15.925c14.334 0 18.58-14.865 18.58-26.011 0-10.971-4.246-25.835-18.58-25.835-14.511 0-18.758 14.864-18.758 25.835.002 11.149 4.249 26.011 18.758 26.011" fill="#FFF"/><path d="M575.1 125.3c0-.177 0-.531-.177-.531s-.354 0-.531.177c0 0-5.661 5.309-16.1 7.609-5.309 1.238-12.387 2.479-21.766 2.479-2.302 0-4.778 0-7.434-.178v-15.218c2.302.177 4.603.177 6.726.177 12.387 0 20.526-1.77 26.365-4.601 12.03-6.02 13.101-22.828 13.101-22.828h26.01c16.634 0 43.531 4.07 43.531 38.221 0 7.433-.53 41.06-37.516 41.06-7.255 0-13.271-2.478-13.271-2.478v49.9h-18.936v-93.78m49.727 6.019c0-16.1-8.14-23.18-25.658-23.18-1.77 0-3.539.177-5.132.177v42.646s3.893 4.777 12.387 4.777c14.864.001 18.403-13.624 18.403-24.42" fill="#FFF"/><path d="M669.24 113.62c-.354-.177-1.062-.531-1.416-.531 0 0-.354 0-.708.531 0 0-13.448 21.06-46.011 21.06-4.069 0-4.246-.177-7.077-.354v-15.04h7.784c37.869 0 44.24-39.28 44.24-39.28h17.16s-1.238 7.963-5.663 16.811c0 0 20.704 12.21 20.704 36.984 0 7.078-3.539 38.576-37.515 38.576-9.021 0-12.919-2.123-12.919-2.123v-15.572s4.247 2.125 11.148 2.125c7.786 0 20.35-4.603 20.35-22.475.001-14.333-7.43-19.465-10.08-20.704" fill="#FFF"/></g></svg>