<svg fill="none" width="192" height="60" viewBox="0 0 192 60">
  <path fill="#000" d="M24.763 29.687c.155-.157.448-.454.595-.572.205-.16 1.352.017 2.222-.527.868-.546 1.932-1.83 2.217-2.364.287-.534.29-.877.368-1.518l.175-1.321s-.948.148-1.608.314a3.684 3.684 0 0 0-1.516.788c-.39.324-.299.046-.779.507-.482.462-.954 1.26-1.188 2.029-.238.769-.097 1.776-.145 1.953-.032.12-.203.299-.314.408l.114-1.52c.048-.72.029-1.502.002-1.964l-.06-.498c.154-.152.644-.633.892-.833.3-.239 1.18-.195 1.867-.71.659-.493 1.704-1.894 1.515-3.153a5.4 5.4 0 0 0-.796-2.121s-1.275.303-2.036.924c-.758.622-1.613 2.005-1.48 3.02.135 1.015.76 1.427.744 1.758-.015.285-.586.683-.754.794a2.09 2.09 0 0 1-.032-.459c.042-.406-.215-1.113-.215-1.113s-.27-.604-.31-.793c-.04-.189.096-.617.231-1.029.136-.415-.064-1.241-.024-1.72.04-.479-.134-1.366-.162-1.586-.024-.218-.336-.97-.451-1.149l-.312-.572c-.15-.235-.39-.358-.58-.53a5.226 5.226 0 0 1-.54-.56c-.132-.165-.464-.264-.62-.323-.159-.062-.422-.431-.422-.431s-.014.423-.071.624c-.06.202-.225.32-.314.794-.086.474-.17.873-.18 1.288-.013.414.103 1.288.298 1.72.197.43.474.96.967 1.642.49.68 1.812 1.665 1.953 1.86l.343 1.007s.147.661.17 1.46l-.064.018c-.12.024-.427-.204-.585-.367-.159-.165-.114-.379-.271-.806-.157-.43-.653-1.47-1.262-2.144-.61-.675-1.398-.904-2.125-.995-.728-.092-2.072.446-2.072.446s.133.914.424 1.693c.292.778 1.756 1.67 2.48 1.942.723.271 2.476.048 2.64.075l.64.367.195-.03v.018c-.002.652.163.866.109 1.39-.055.526.036 1.066-.074 1.45l-.224.626-.2-.12c-.086-.102-.225-.442-.392-1.011-.17-.57-1.008-1.506-1.541-1.993-.53-.487-2.1-.848-2.497-.717l-1.304.022s.241 1.015.412 1.452c.169.436.067.642.258 1.022.189.377.296.533.881 1.034.586.503 1.421.69 2.092.642.673-.049 1.795-.244 2.01-.212.218.03.281.13.281.13l.015-.028c.066.193.095.525.074.863-.026.36-.081 1.273-.244 1.983-.166.708-.369 1.775-.514 1.914l-.287.243v.003l-.17-.185c-.133-.227-.026-.722-.23-1.745-.204-1.02-1.42-2.204-2.288-2.64-.868-.432-2.593-.456-2.593-.456s.148.976.257 1.24c.111.267.018.46.265 1.198.25.74 1.047 1.441 1.944 1.994.898.554 2.36.42 2.488.553l.271.297c-.04.224-.099.53-.2.695-.156.255-.504 1.351-1.086 2.107-.283.365-.486.65-.621.845-.068-.066-.413-.391-.529-.568-.131-.198.294-1.004.215-2.007-.08-1.006-.615-1.494-1.317-2.101l-2.266-.55s-.143.622-.184 1.392c-.039.768.467 1.665 1.135 2.282.67.614 1.82.6 2.18 1.036.178.215.646.68.652.687l-.093.145s-.232.443-.543.767c-.227.237-1.057.98-1.788 1.518a2.421 2.421 0 0 1-.223-.453c-.07-.217.305-.469.23-1.934-.067-1.293-1.556-2.108-1.962-2.383-.403-.274-.97-.71-.97-.71s-.997 1.762.055 3.552c.58.995 2.365 1.392 2.455 1.554l.224.511a4.765 4.765 0 0 1-.556.344l-1.469.807c-.606.283-.745.147-1.72.757-.979.607-2.322 1.663-2.454 1.835 0 0 .17.522.251.622.083.101.164.048.226-.004.064-.053-.026-.273.135-.408.163-.136 1.364-1.197 1.754-1.463.392-.268 1.002-.614 1.468-.788.3-.114.92-.395 1.4-.637l.147.078c.098.01.624-.02.784.155.158.175.746 1.3 1.133 1.529.389.23 1.12.784 1.924.555.8-.23 1.313-.197 1.688-.468.373-.268.565-.757.565-.757s-.187-.21-.298-.455c-.112-.246-.74-1.028-1.177-1.246-.44-.22-1.549-.564-2.186-.32-.637.246-1.245.804-1.469.901-.226.097-.763-.035-.849-.085l-.015-.012.35-.199c.292-.2 1.811-1.374 2.192-1.727.21-.192.495-.507.773-.845.166.023.478.067.556.111.105.064.922.872 1.429 1.072.506.198 1.71.725 2.518.279.81-.448 1.371-1.27 1.371-1.27s-.222-.517-.573-.778c-.35-.26-1.413-.683-1.861-.68-.45.005-.975.002-1.439.186-.466.184-1.253.864-1.355.922-.081.046-.325-.072-.422-.124l.391-.536c.366-.556.846-1.254.98-1.368l.1-.203.682-.117 1.154.478c.457.095.827-.006 1.268.006.44.01 1 .332 2.014.095 1.011-.238 2.01-1.28 2.01-1.28s-.169-.044-.289-.181c-.124-.137-.22-.273-.428-.578-.207-.307-.523-.513-1.187-.904-.657-.39-1.675-.057-1.942.042-.264.099-.706.116-1.218.477-.514.362-1.125 1.441-1.363 1.594-.217.137-.562.069-.622.053a2.42 2.42 0 0 1 .151-.472c.15-.31.742-1.723.931-2.21.21-.12.658-.382.771-.466.153-.111.329-.124.82.027.49.15 1.625.24 2.35-.13.721-.37 1.698-1.6 1.92-2.18.23-.586.365-1.557.365-1.557s-.493.015-.727.003c-.238-.013-.83-.174-1.602-.077-.77.095-1.728.41-2.334 1.174-.606.765-.655 2.291-.858 2.511-.144.158-.435.29-.59.355.141-.572.378-1.859.42-2.407l.085-1.11Zm-19.157 0a9.895 9.895 0 0 0-.595-.572c-.205-.16-1.352.017-2.222-.527-.868-.546-1.932-1.83-2.217-2.364-.287-.534-.29-.877-.368-1.518l-.175-1.322s.948.148 1.61.314a3.683 3.683 0 0 1 1.516.788c.39.324.298.045.78.507.48.462.952 1.26 1.187 2.027.238.77.098 1.777.146 1.954.031.119.202.298.314.407l-.114-1.52c-.048-.72-.03-1.5-.003-1.962l.06-.498c-.153-.152-.643-.633-.891-.833-.3-.238-1.18-.194-1.867-.71-.658-.492-1.703-1.893-1.514-3.152.187-1.258.796-2.121.796-2.121s1.278.303 2.036.924c.758.622 1.613 2.005 1.48 3.02-.137 1.015-.76 1.427-.744 1.758.015.285.586.683.754.794a2.26 2.26 0 0 0 .032-.459c-.042-.406.215-1.113.215-1.113s.27-.604.31-.793c.04-.19-.096-.617-.232-1.03-.135-.415.065-1.241.024-1.721s.135-1.365.162-1.587c.023-.217.336-.969.452-1.147l.311-.572c.151-.235.391-.358.581-.53.193-.172.406-.394.54-.56.132-.165.464-.264.62-.323.155-.061.418-.43.418-.43s.014.423.071.624c.06.202.225.32.314.794.086.474.17.873.18 1.288.013.414-.103 1.288-.298 1.72a9.312 9.312 0 0 1-.967 1.642c-.49.68-1.812 1.666-1.955 1.86l-.341 1.007s-.147.661-.17 1.46l.064.018c.121.024.427-.204.585-.367.159-.165.114-.379.271-.806.157-.43.653-1.47 1.262-2.144.61-.675 1.398-.904 2.126-.995.727-.092 2.07.445 2.07.445s-.13.913-.424 1.694c-.292.778-1.756 1.67-2.48 1.942-.723.27-2.477.047-2.64.074l-.64.367-.195-.03v.018c.001.652-.163.866-.109 1.39.055.526-.037 1.066.074 1.45l.224.626.2-.12c.085-.102.225-.442.392-1.011.17-.571 1.008-1.506 1.541-1.993.529-.487 2.1-.848 2.496-.718l1.305.023s-.243 1.014-.414 1.45c-.168.438-.067.644-.258 1.022-.188.378-.296.533-.88 1.034-.586.504-1.421.691-2.092.643-.673-.05-1.796-.244-2.01-.213-.218.03-.282.13-.282.13l-.015-.027c-.066.192-.095.525-.073.863.025.36.08 1.273.244 1.982.166.709.368 1.776.514 1.915l.287.243v.002l.17-.185c.132-.226.026-.722.23-1.744.203-1.021 1.42-2.204 2.288-2.64.868-.432 2.592-.456 2.592-.456s-.148.975-.257 1.24c-.11.267-.017.46-.264 1.198-.25.739-1.048 1.44-1.945 1.994s-2.357.419-2.488.553l-.27.297c.04.224.098.53.2.695.155.254.503 1.35 1.085 2.106.284.366.486.65.621.846.069-.066.413-.392.53-.569.131-.197-.294-1.003-.216-2.006.08-1.006.615-1.495 1.318-2.102l2.266-.549s.143.621.183 1.392c.04.768-.467 1.665-1.135 2.281-.67.615-1.82.601-2.179 1.036-.178.215-.646.68-.653.687l.094.146s.232.443.543.767c.226.236 1.059.98 1.788 1.518a2.42 2.42 0 0 0 .223-.453c.07-.218-.305-.47-.23-1.935.066-1.293 1.556-2.108 1.962-2.382.402-.275.97-.71.97-.71s.996 1.761-.055 3.552c-.581.994-2.365 1.391-2.455 1.553l-.224.512c.202.141.395.263.555.344l1.47.807c.606.282.745.147 1.72.756.979.608 2.321 1.663 2.454 1.835 0 0-.17.523-.252.623-.082.1-.163.048-.225-.004-.065-.053.025-.274-.136-.409-.163-.135-1.364-1.197-1.753-1.463-.393-.268-1.002-.613-1.468-.788-.3-.114-.92-.395-1.4-.636l-.148.077c-.097.01-.623-.019-.783.156-.158.174-.747 1.299-1.134 1.528-.388.23-1.12.785-1.923.556-.801-.23-1.314-.198-1.688-.469-.373-.268-.566-.756-.566-.756s.188-.21.299-.456c.111-.245.739-1.027 1.177-1.246.44-.219 1.549-.563 2.185-.32.638.247 1.245.805 1.47.902.226.096.762-.035.848-.086l.015-.011-.35-.2c-.291-.199-1.81-1.373-2.192-1.726a9.055 9.055 0 0 1-.773-.845c-.166.022-.477.067-.555.111-.105.063-.923.872-1.429 1.072-.506.197-1.71.725-2.518.278-.811-.448-1.372-1.269-1.372-1.269s.223-.518.573-.778 1.414-.683 1.862-.68c.45.004.974.002 1.439.185.465.185 1.252.864 1.355.922.08.046.325-.072.421-.123l-.39-.537c-.367-.555-.846-1.254-.98-1.368l-.1-.202-.682-.118-1.154.478c-.457.095-.828-.006-1.268.007-.44.009-1 .331-2.015.095-1.01-.238-2.01-1.28-2.01-1.28s.17-.045.29-.182c.123-.136.22-.273.427-.578.208-.306.524-.512 1.187-.903.658-.39 1.675-.057 1.942.041.265.1.706.117 1.219.477.514.362 1.125 1.442 1.363 1.595.216.136.562.068.621.053a2.423 2.423 0 0 0-.15-.472 59.552 59.552 0 0 1-.932-2.21c-.21-.12-.658-.383-.77-.466-.154-.111-.33-.124-.82.026-.495.148-1.63.238-2.355-.131-.722-.37-1.696-1.6-1.921-2.18C.134 30.21 0 29.239 0 29.239s.493.015.728.003c.237-.013.83-.174 1.602-.077.769.095 1.727.41 2.333 1.174.606.765.655 2.291.858 2.511.144.158.435.29.59.355-.141-.572-.378-1.859-.42-2.407l-.085-1.11Zm80.993-9.383a8.743 8.743 0 0 0-2.678.815c-1.948.939-3.159 2.848-3.213 5.045-.054 2.375 1.164 4.067 3.648 5.083.908.365 1.785.606 3.54.97 1.66.35 2.08.505 2.42.9.513.575.366 1.204-.356 1.561-.365.17-.56.21-1.258.24-.954.04-1.49-.054-2.15-.364-.566-.264-1.11-.846-1.358-1.444-.124-.303-.21-.419-.295-.396-.07.024-1.25.233-2.623.482-1.746.31-2.507.48-2.507.55 0 .195.466 1.367.73 1.832 1.389 2.476 4.292 3.842 7.924 3.734 2.755-.078 4.92-.87 6.411-2.352.535-.536.73-.8.986-1.327.458-.932.582-1.498.582-2.562 0-1.07-.124-1.637-.582-2.561-.249-.512-.45-.792-.908-1.25-1.134-1.125-2.321-1.598-5.884-2.32-2.126-.435-2.662-.73-2.662-1.46 0-.799.908-1.265 2.236-1.148 1.117.1 1.963.62 2.398 1.467.155.318.217.372.357.334.45-.117 4.51-1.366 4.54-1.398.016-.023-.07-.271-.202-.55-1.024-2.181-3.073-3.563-5.836-3.92-.792-.101-2.453-.085-3.26.039ZM39.68 29.633a1478.27 1478.27 0 0 1-2.894 9.314c-.023.077.465.1 2.297.1h2.336l.31-.993c.172-.543.42-1.358.56-1.824l.256-.83 2.476.015 2.483.023.513 1.786.52 1.785 2.934.023c2.77.016 2.926.008 2.887-.116-.023-.078-1.195-3.827-2.608-8.328-1.413-4.502-2.709-8.631-2.88-9.182l-.31-.986h-6.015l-2.864 9.213Zm6.086-.955c.396 1.397.698 2.562.675 2.585-.023.023-.69.046-1.482.054l-1.444.008.047-.194a739.84 739.84 0 0 1 1.397-4.96c.023-.062.054-.093.07-.077.015.015.349 1.18.737 2.584Zm13.745 1.056v9.314h13.04l.007-2.003c.016-2.235.016-2.437 0-2.522-.007-.031-1.63-.055-3.616-.055h-3.61l-.007-6.869c-.008-3.78-.023-6.907-.031-6.946-.008-.047-.023-.116-.031-.155-.008-.047-1.025-.078-2.88-.078h-2.872v9.314Zm13.893 0v9.314h5.744V20.42h-5.743v9.314Zm22.819-7.064v2.252h3.881v14.126h5.472l-.023-6.807c-.016-3.749 0-6.931.023-7.07l.046-.25h3.773l.007-2.04c0-1.118-.023-2.127-.039-2.251l-.038-.21H96.224v2.25Zm20.071 6.963c-1.575 5.076-2.879 9.267-2.895 9.322-.031.077.443.093 2.306.077l2.344-.023.558-1.785.559-1.785h4.96l.512 1.785.512 1.785 2.934.023 2.926.016-.046-.171c-.024-.101-1.335-4.285-2.911-9.298l-2.864-9.12-3.011-.023-3.02-.016-2.864 9.213Zm6.085-1.009c.381 1.374.699 2.538.699 2.6 0 .078-.287.101-1.451.085-1.134-.015-1.46-.038-1.452-.116.016-.21 1.459-5.216 1.483-5.146.007.047.333 1.203.721 2.577Zm8.849 1.102v9.322h5.821v-6.753h2.041c2.22 0 3.019-.085 4.083-.435.931-.31 1.529-.69 2.258-1.42.528-.528.73-.8.986-1.327.442-.893.566-1.428.621-2.523.054-1.133-.109-1.886-.613-2.91-.264-.536-.451-.792-1.025-1.358-.799-.8-1.56-1.234-2.631-1.514-1.149-.287-1.731-.318-6.667-.365l-4.874-.038v9.321Zm8.902-4.859c.473.125.9.435 1.087.777.209.38.186 1.319-.039 1.738-.357.683-.916.87-2.787.931l-1.342.047v-3.586l.178-.039c.342-.07 2.499.024 2.903.132Zm6.97 4.766a1514.85 1514.85 0 0 1-2.895 9.314c-.024.077.465.1 2.297.1h2.336l.311-.993c.171-.543.419-1.358.559-1.824l.256-.83 2.483.015 2.484.023.512 1.786.513 1.785 2.933.023c2.771.016 2.927.008 2.888-.116-.024-.078-1.196-3.827-2.608-8.328-1.413-4.502-2.709-8.631-2.88-9.182l-.31-.986h-6.015l-2.864 9.213Zm6.093-.962c.388 1.404.69 2.569.675 2.584-.047.047-2.841.062-2.887.016-.016-.016.279-1.15.659-2.507.753-2.678.769-2.717.807-2.67.016.015.35 1.18.746 2.576Zm8.848 1.055v9.322h5.821v-7.063h1.754l1.343 3.531 1.35 3.532h3.174c1.739 0 3.167-.016 3.167-.047 0-.023-.14-.357-.303-.753-.163-.396-.846-2.026-1.505-3.624l-1.366-3.276-.156-.372.326-.163c1.39-.714 2.275-1.684 2.709-2.98.155-.482.179-.691.179-1.786-.008-1.14-.024-1.288-.21-1.832-.683-1.948-2.08-3.065-4.486-3.578-.691-.147-1.071-.163-6.263-.194l-5.534-.038v9.321Zm9.321-5.185c1.071.249 1.615 1.584 1.032 2.53-.434.7-1.078.878-3.143.878h-1.389v-3.532l1.568.016c.869.015 1.738.062 1.932.108Zm7.49-4.059c-.023.039-.039 1.048-.031 2.251l.008 2.189h3.935v14.126h5.433V24.922H192V20.42h-6.551c-3.609 0-6.574.03-6.597.061Z" />
</svg>