<svg fill="none" width="166" height="60" viewBox="0 0 166 60">
  <g clip-path="url(#a)">
    <path fill="#000" d="M27.795 13.425c3.485 0 3.57 3.4 3.57 3.57v25.16l.085.17 1.87 1.7-2.38 2.38-1.7-1.785-.17-.17H3.995c-3.485 0-3.57-3.4-3.57-3.57V16.995c0-3.485 3.4-3.57 3.57-3.57h23.8Zm0-.425h-23.8S0 13 0 16.995V40.88s0 3.995 3.995 3.995H28.9L30.94 47l2.975-2.89-2.125-2.125v-24.99S31.79 13 27.795 13Z" />
    <path fill="#000" fill-rule="evenodd" d="M28.9 44.705H4.08C.255 44.705.17 41.05.17 40.88V16.995c0-3.312 2.866-3.691 3.64-3.793.1-.014.166-.022.185-.032h23.8c3.74 0 3.74 3.655 3.74 3.825V42.07l2.04 2.04-2.635 2.55-1.955-1.955H28.9Zm-6.545-10.2c0 .425-.255.68-.68.68h-.935V30.34h.85c.51 0 .765.255.765.68v3.485Zm0-7.99c0 .425-.255.68-.765.68h-.85V22.69h.85c.51 0 .68.255.68.68v3.145h.085Zm3.825 8.415-.085-.085V31.02c0-1.36-.51-2.125-1.615-2.465 1.02-.255 1.615-1.105 1.615-2.805v-2.805c0-2.38-1.19-3.57-3.57-3.57H17V38.5h5.695c2.38 0 3.485-1.19 3.485-3.57ZM12.155 38.5c2.295 0 3.485-1.105 3.485-3.4V30H11.9v4.505c0 .425-.17.68-.68.68h-.425c-.51 0-.68-.255-.68-.68V23.2c0-.425.17-.595.68-.595h.425l.054.001c.393.021.626.272.626.679v3.91h3.655V22.86c0-2.38-1.105-3.485-3.4-3.485H9.86c-2.295 0-3.485 1.105-3.485 3.4V35.1c0 2.295 1.19 3.4 3.485 3.4h2.295Z" clip-rule="evenodd" />
    <path fill="#000" d="M47.345 34.42v-5.015h-3.74v4.675c0 .425-.255.68-.68.68h-.51c-.51 0-.68-.255-.68-.68V22.605c0-.425.17-.68.68-.68h.425c.425 0 .68.255.68.68V26.6h3.74v-4.42c0-2.38-1.19-3.485-3.57-3.485h-2.21c-2.38 0-3.57 1.105-3.57 3.485v12.24c0 2.38 1.19 3.485 3.485 3.57h2.38c2.38 0 3.57-1.19 3.57-3.57Zm7.905-7.65c0 .425-.17.595-.595.595h-.935V22.18h.85c.51 0 .765.255.765.595v3.91l-.085.085Zm0 11.05h3.825v-6.545c0-1.36-.425-2.125-1.615-2.465 1.02-.34 1.7-1.19 1.7-2.805V22.35c-.085-2.38-1.36-3.4-3.655-3.4H49.81v18.955h3.825V30.68h.85c.51 0 .765.255.765.68v6.545-.085Zm6.46 0h7.14v-3.4h-3.4v-4.59h3.145v-3.4h-3.06v-4.25h3.23v-3.4H61.71v19.04ZM76.5 31.7h-1.7l.85-8.33.85 8.33Zm.595 6.12h3.825l-2.55-18.955h-5.1L70.72 37.82h3.4l.34-2.805h2.38l.255 2.805Zm10.54-15.64h2.295v-3.4H81.6v3.4h2.295v15.64h3.825V22.18h-.085Zm4.59 15.64h3.825V18.865h-3.825V37.82Zm13.515 0 2.55-18.955h-3.57l-1.36 13.345L102 18.865h-3.825l2.55 18.955h5.015Zm4.675 0h7.055v-3.4h-3.315v-4.59h3.145v-3.4h-3.145v-4.25h3.315v-3.4h-6.97v19.04h-.085Zm18.615-3.91c0 .425-.255.68-.68.68h-.85v-4.845h.935c.425 0 .68.255.68.68v3.4l-.085.085Zm0-7.99c0 .425-.255.68-.765.68h-.85v-4.505h.85c.51 0 .68.255.68.68v3.145h.085Zm3.74 8.33v-3.825c0-1.36-.425-2.125-1.615-2.465 1.02-.34 1.615-1.19 1.615-2.805V22.35c0-2.38-1.19-3.485-3.57-3.485h-5.61V37.82h5.695c2.38 0 3.485-1.19 3.485-3.57Zm2.55 3.57h6.545v-3.4h-2.72V18.95h-3.825v18.955-.085Zm13.94-3.655c0 .765-.765.765-.765.765h-.595c-.85 0-.85-.85-.85-.85V22.605c0-.85.85-.85.85-.85h.595c.85 0 .85.85.85.85V34.25l-.085-.085Zm3.655.85v-13.43s0-2.975-2.975-2.975h-3.4s-3.06 0-3.06 2.975v13.26s0 2.975 2.975 3.06h3.4s3.06 0 3.06-3.06m7.65-.85c0 .85-.68.85-.68.85h-.68c-.765 0-.765-.85-.765-.85v-11.39c0-.85.85-.85.85-.85h.595c.765 0 .765.85.765.85V34.25l-.085-.255Zm5.015 3.4-1.275-1.275V21.67s0-3.06-3.06-3.06h-3.4s-3.06 0-3.06 2.975v13.26s0 2.975 2.975 3.06h4.76l1.275 1.275 1.7-1.785h.085Z" />
    <path stroke="#000" stroke-miterlimit="10" stroke-width=".425" d="M152.915 35.015v-13.43s0-2.975-2.975-2.975h-3.4s-3.06 0-3.06 2.975v13.26s0 2.975 2.975 3.06h3.4s3.06 0 3.06-3.06m-105.57-.425v-5.015h-3.74v4.675c0 .425-.255.68-.68.68h-.51c-.51 0-.68-.255-.68-.68V22.605c0-.425.17-.68.68-.68h.425c.425 0 .68.255.68.68V26.6h3.74v-4.42c0-2.38-1.19-3.485-3.57-3.485h-2.21c-2.38 0-3.57 1.105-3.57 3.485v12.24c0 2.38 1.19 3.485 3.485 3.57h2.38c2.38 0 3.57-1.19 3.57-3.57Zm7.905-7.65c0 .425-.17.595-.595.595h-.935V22.18h.85c.51 0 .765.255.765.595v3.91l-.085.085Zm0 11.05h3.825v-6.545c0-1.36-.425-2.125-1.615-2.465 1.02-.34 1.7-1.19 1.7-2.805V22.35c-.085-2.38-1.36-3.4-3.655-3.4H49.81v18.955h3.825V30.68h.85c.51 0 .765.255.765.68v6.545-.085Zm6.46 0h7.14v-3.4h-3.4v-4.59h3.145v-3.4h-3.06v-4.25h3.23v-3.4H61.71v19.04ZM76.5 31.7h-1.7l.85-8.33.85 8.33Zm.595 6.12h3.825l-2.55-18.955h-5.1L70.72 37.82h3.4l.34-2.805h2.38l.255 2.805Zm10.54-15.64h2.295v-3.4H81.6v3.4h2.295v15.64h3.825V22.18h-.085Zm4.59 15.64h3.825V18.865h-3.825V37.82Zm13.515 0 2.55-18.955h-3.57l-1.36 13.345L102 18.865h-3.825l2.55 18.955h5.015Zm4.675 0h7.055v-3.4h-3.315v-4.59h3.145v-3.4h-3.145v-4.25h3.315v-3.4h-6.97v19.04h-.085Zm18.615-3.91c0 .425-.255.68-.68.68h-.85v-4.845h.935c.425 0 .68.255.68.68v3.4l-.085.085Zm0-7.99c0 .425-.255.68-.765.68h-.85v-4.505h.85c.51 0 .68.255.68.68v3.145h.085Zm3.74 8.33v-3.825c0-1.36-.425-2.125-1.615-2.465 1.02-.34 1.615-1.19 1.615-2.805V22.35c0-2.38-1.19-3.485-3.57-3.485h-5.61V37.82h5.695c2.38 0 3.485-1.19 3.485-3.57Zm2.55 3.57h6.545v-3.4h-2.72V18.95h-3.825v18.955-.085Zm13.94-3.655c0 .765-.765.765-.765.765h-.595c-.85 0-.85-.85-.85-.85V22.605c0-.85.85-.85.85-.85h.595c.85 0 .85.85.85.85V34.25l-.085-.085Zm11.305-.17c0 .85-.68.85-.68.85h-.68c-.765 0-.765-.85-.765-.85v-11.39c0-.85.85-.85.85-.85h.595c.765 0 .765.85.765.85V34.25l-.085-.255Zm5.015 3.4-1.275-1.275V21.67s0-3.06-3.06-3.06h-3.4s-3.06 0-3.06 2.975v13.26s0 2.975 2.975 3.06h4.76l1.275 1.275 1.7-1.785h.085Z" />
  </g>
  <defs>
    <clipPath id="a">
      <path fill="#fff" d="M0 0h165.58v60H0z" />
    </clipPath>
  </defs>
</svg>