<svg fill="none" width="194" height="60" viewBox="0 0 194 60">
  <path fill="#000" d="M52.382 35.194a1.487 1.487 0 0 0-.993.375c-1.356 1.147-2.69 1.787-4.657 1.787-3.567 0-6.146-2.961-6.146-6.631v-.03c0-3.646 2.606-6.587 6.146-6.587a6.747 6.747 0 0 1 4.459 1.667c.492.362 1.142.42 1.69.151.549-.272.901-.822.916-1.43a1.64 1.64 0 0 0-.638-1.306c-1.625-1.258-3.514-2.11-6.401-2.11-5.624 0-9.593 4.35-9.593 9.658v.053c0 5.361 4.045 9.615 9.474 9.615 3.006 0 5.001-.961 6.758-2.506.336-.298.53-.725.533-1.174a1.559 1.559 0 0 0-1.548-1.532Zm12.192-5.95c-3.591-.87-4.442-1.493-4.442-2.935v-.053c0-1.227 1.118-2.215 3.034-2.215 1.465 0 2.848.481 4.3 1.412.255.16.55.242.85.24a1.52 1.52 0 0 0 1.545-1.523 1.483 1.483 0 0 0-.718-1.306 10.239 10.239 0 0 0-5.924-1.73c-3.699 0-6.362 2.214-6.362 5.417v.053c0 3.441 2.237 4.615 6.2 5.576 3.46.8 4.21 1.52 4.21 2.852v.053c0 1.386-1.277 2.347-3.307 2.347a8.068 8.068 0 0 1-5.217-1.92 1.582 1.582 0 0 0-1.614-.131 1.585 1.585 0 0 0-.887 1.358c0 .496.239.962.642 1.25a11.577 11.577 0 0 0 7 2.354c3.913 0 6.652-2.082 6.652-5.577v-.052c0-3.097-2.021-4.51-5.962-5.47Zm16.501 0c-3.593-.853-4.442-1.496-4.442-2.935v-.053c0-1.227 1.117-2.215 3.032-2.215 1.463 0 2.849.481 4.301 1.412.255.16.55.242.85.24a1.524 1.524 0 0 0 1.545-1.523 1.483 1.483 0 0 0-.718-1.306 10.239 10.239 0 0 0-5.924-1.73c-3.699 0-6.362 2.214-6.362 5.414v.053c0 3.44 2.237 4.614 6.2 5.577 3.46.798 4.205 1.52 4.205 2.854v.053c0 1.386-1.278 2.347-3.31 2.347a8.067 8.067 0 0 1-5.215-1.92 1.582 1.582 0 0 0-2.501 1.227c.001.498.243.963.648 1.25a11.577 11.577 0 0 0 7 2.347c3.913 0 6.652-2.082 6.652-5.576v-.053c0-3.09-2.021-4.502-5.96-5.463Zm15.09 1.067h-5.004a1.587 1.587 0 0 0-1.124 2.707 1.6 1.6 0 0 0 1.125.469h5a1.6 1.6 0 0 0 1.125-.469c.297-.298.463-.7.461-1.12a1.573 1.573 0 0 0-.46-1.119 1.6 1.6 0 0 0-1.125-.468h.002Zm15.099-8.899H98.876a1.52 1.52 0 0 0-1.448 1.52 1.52 1.52 0 0 0 1.448 1.52h4.525v14.13a1.655 1.655 0 1 0 3.308 0v-14.14h4.555a1.521 1.521 0 0 0 0-3.03Zm12.854 0h-6.665a1.627 1.627 0 0 0-1.654 1.657v15.514a1.64 1.64 0 0 0 1.637 1.567 1.64 1.64 0 0 0 1.635-1.567v-5.017h4.125l4.525 5.79c.347.54.952.863 1.598.854a1.55 1.55 0 0 0 1.571-1.522 1.902 1.902 0 0 0-.533-1.252l-3.566-4.51c2.501-.773 4.231-2.589 4.231-5.576v-.053a5.644 5.644 0 0 0-1.542-4.029c-1.197-1.173-3.033-1.857-5.374-1.857l.012.001Zm3.593 6.137c0 1.893-1.492 3.12-3.831 3.12h-4.807v-6.273h4.761c2.422 0 3.86 1.094 3.86 3.093l.017.06Zm8.931-6.27a1.617 1.617 0 0 0-1.653 1.628v15.676a1.64 1.64 0 0 0 1.635 1.567 1.64 1.64 0 0 0 1.637-1.567v-15.69a1.62 1.62 0 0 0-1.648-1.627l.029.014Zm20.731 13.925a1.488 1.488 0 0 0-.992.375c-1.356 1.147-2.689 1.787-4.657 1.787-3.567 0-6.146-2.96-6.146-6.631v-.04c0-3.646 2.607-6.587 6.146-6.587a6.749 6.749 0 0 1 4.446 1.68 1.635 1.635 0 0 0 2.606-1.28 1.642 1.642 0 0 0-.638-1.306c-1.647-1.269-3.539-2.122-6.411-2.122-5.643 0-9.593 4.35-9.593 9.658v.053c0 5.361 4.046 9.615 9.474 9.615 3.007 0 5.002-.961 6.758-2.506a1.58 1.58 0 0 0 .532-1.188 1.559 1.559 0 0 0-1.554-1.518l.029.01Zm13.564-5.576 5.802-5.603c.368-.301.582-.752.585-1.227a1.497 1.497 0 0 0-1.554-1.532 1.72 1.72 0 0 0-1.357.614l-8.819 8.911v-7.897a1.622 1.622 0 0 0-.476-1.157 1.652 1.652 0 0 0-1.161-.484 1.653 1.653 0 0 0-1.162.484 1.627 1.627 0 0 0-.476 1.157v15.689a1.64 1.64 0 0 0 1.638 1.64 1.652 1.652 0 0 0 1.161-.484 1.62 1.62 0 0 0 .476-1.156v-3.87l3.033-2.934 5.988 7.655c.3.477.821.768 1.383.773a1.604 1.604 0 0 0 1.654-1.602 1.776 1.776 0 0 0-.454-1.173l-6.261-7.805Zm17.135-.375c-3.612-.878-4.462-1.502-4.462-2.944v-.053c0-1.227 1.117-2.215 3.033-2.215 1.462 0 2.848.481 4.3 1.412.255.16.551.242.85.24a1.522 1.522 0 0 0 1.546-1.523 1.485 1.485 0 0 0-.718-1.306 10.24 10.24 0 0 0-5.935-1.73c-3.688 0-6.351 2.214-6.351 5.417v.053c0 3.441 2.235 4.615 6.199 5.576 3.46.8 4.205 1.523 4.205 2.855v.053c0 1.387-1.278 2.348-3.309 2.348a8.067 8.067 0 0 1-5.216-1.92 1.583 1.583 0 0 0-2.501 1.227c.002.495.244.96.648 1.247a11.58 11.58 0 0 0 6.986 2.353c3.914 0 6.653-2.082 6.653-5.577v-.052c.013-3.097-2.021-4.51-5.948-5.47l.02.009ZM13.16 33.766l-7.422 5.45c-.89.595-1.583.992-2.473.992C1.485 40.208 0 38.622 0 36.84c0-1.489 1.188-2.579 2.276-3.074L10.983 30l-8.707-3.866C1.093 25.64 0 24.55 0 23.063c0-1.784 1.583-3.27 3.362-3.27.89 0 1.484.297 2.374.99l7.42 5.45-.986-8.82c-.297-2.082 1.088-3.765 3.068-3.765 1.979 0 3.361 1.585 3.067 3.666l-.992 8.92 7.42-5.45c.894-.694 1.586-.991 2.477-.991a3.297 3.297 0 0 1 3.265 3.27c0 1.586-1.088 2.577-2.276 3.072L19.492 30l8.707 3.766c1.188.495 2.276 1.585 2.276 3.171 0 1.784-1.583 3.27-3.362 3.27-.791 0-1.484-.396-2.375-.99l-7.425-5.45.989 8.82c.296 2.08-1.089 3.765-3.068 3.765s-3.361-1.585-3.067-3.666l.992-8.92Z" />
</svg>