<svg fill="none" width="140" height="60" viewBox="0 0 140 60">
  <g fill="#000" clip-path="url(#a)">
    <path d="M101.967 15.733c-.311.845-.622 14.445-.489 20.578.089 2.045 2.8 3.156 4.089 1.645.356-.445.711-2.134.845-3.823l.222-3.11 2.133 2.933c3.289 4.489 5.156 5.6 6.711 4 1.2-1.156.8-2.223-2-5.734l-2.711-3.422 2-2.089c2.4-2.489 2.667-3.2 1.778-4.489-1.022-1.422-2.578-.844-5.556 2.134l-2.577 2.489v-5.111c0-5.823-.489-7.067-2.711-7.067-.978 0-1.423.267-1.734 1.066Zm16.178-.311c-.178.445-.444 5.378-.533 11.023-.178 11.155-.045 11.91 2.266 11.91 2.489 0 2.534-.177 2.534-11.733 0-9.022-.089-10.666-.711-11.244-.934-.978-3.112-.933-3.556.044ZM5.3 21.645C1.657 22.578-.787 27.733.235 32.4c.533 2.622 3.155 5.556 5.333 6 4.4.845 8.4-.489 8.4-2.889 0-1.822-.889-2.266-3.955-1.91-2.267.221-2.89.177-3.6-.49-1.245-1.11-1.556-3.333-.711-5.244.8-1.911 2.044-2.356 4.666-1.645 3.022.8 4.667-.977 2.978-3.2-1.111-1.466-5.022-2.133-8.044-1.377Zm12.356.577c-1.778 1.067-2.355 2.134-2.355 4.311 0 2.356.844 3.334 4.177 4.934 2.134 1.022 2.845 1.555 2.667 2.089-.355.844-.8.844-3.422-.09-2.667-.933-3.645-.488-3.645 1.69 0 2.089 2.134 3.51 5.378 3.51 4.489 0 6.845-1.821 6.845-5.332 0-2.49-1.2-3.823-4.756-5.334-1.289-.533-2.356-1.289-2.356-1.6 0-.755.756-.8 3.29-.089 1.6.4 2.133.4 2.666-.044 1.111-.933.845-2.534-.667-3.778-1.733-1.467-5.6-1.644-7.822-.267Zm13.822-.489c-1.733.756-2.844 2.667-2.844 4.934 0 2.444.355 2.844 4.311 4.844 2 .978 2.711 1.556 2.533 2.045-.355.844-.8.844-3.422-.09-2.666-.933-3.644-.488-3.644 1.69 0 2.089 2.133 3.51 5.377 3.51 2.845 0 4.045-.4 5.645-2 .978-.977 1.2-1.644 1.2-3.288 0-2.489-1.156-3.822-4.489-5.289-3.689-1.555-3.511-2.755.267-1.867 2.71.667 3.778.223 3.778-1.51 0-1.867-1.956-3.112-5.023-3.245-1.51-.089-3.2.044-3.689.267Zm38.267.223c-1.644.755-3.556 2.755-4.178 4.4-.266.71-.489 2.489-.489 3.955 0 3.2 1.067 5.422 3.423 7.023 4.088 2.8 12.133.977 12.133-2.756 0-1.645-.933-2-3.511-1.245-3.911 1.112-4.756 1.067-6.045-.222-.666-.622-1.11-1.289-.977-1.422.133-.133 2.622-.355 5.51-.533l5.245-.267v-2.267c-.044-4.222-3.289-7.288-7.644-7.288-1.156.044-2.711.31-3.467.622Zm5.556 4.266C76.767 27.69 76.367 28 73.078 28c-2.977 0-3.11-.044-2.666-.889 1.022-1.866 3.466-2.31 4.889-.889Zm12.222-4.266c-1.645.755-3.556 2.755-4.178 4.4-.267.71-.489 2.489-.489 3.955 0 3.2 1.067 5.422 3.422 7.023 4.09 2.8 12.134.977 12.134-2.756 0-1.645-.934-2-3.511-1.245-3.911 1.112-4.756 1.067-6.045-.222-.666-.622-1.111-1.289-.978-1.422.134-.133 2.623-.355 5.511-.533l5.245-.267v-2.267c-.044-4.222-3.289-7.288-7.644-7.288-1.156.044-2.712.31-3.467.622Zm5.555 4.266C94.545 27.69 94.145 28 90.856 28c-2.978 0-3.111-.044-2.666-.889 1.022-1.866 3.466-2.31 4.888-.889ZM41.656 22.09c-1.022.4-.622 2.932 1.467 8.888 2.267 6.444 3.11 7.689 5.11 7.689 1.645 0 2.845-1.822 3.512-5.334.889-4.488 1.111-4.577 2.044-.755.978 4.311 2 6.089 3.467 6.089 1.645 0 2.445-.445 3.111-1.733 1.067-2.045 4.267-11.867 4.267-13.023 0-1.466-.978-2.222-2.533-2.044-1.467.178-2.312 1.689-3.511 6.444-.445 1.778-.934 3.245-1.067 3.245-.134 0-.667-1.734-1.245-3.867-.533-2.133-1.288-4.311-1.644-4.889-.889-1.333-2.667-1.333-3.511-.044-.667 1.066-1.778 4.755-2.267 7.644-.133.934-.355 1.6-.444 1.511-.134-.089-.845-2.266-1.6-4.844-.756-2.534-1.6-4.756-1.867-4.933-.578-.4-2.444-.4-3.289-.045Zm83.511.221c-.266.267-.533.978-.533 1.511 0 .845 2.355 7.023 4.311 11.245.756 1.644.8 1.422-1.244 6.578-.8 2 0 3.688 1.777 3.688 1.378 0 2.711-1.377 3.378-3.555.178-.622.8-2.133 1.333-3.333 3.378-7.467 5.245-12.623 5.289-14.445.045-1.955 0-2-1.422-2.133-1.955-.178-2.444.311-3.644 3.6-.534 1.511-1.156 2.933-1.378 3.155-.222.267-.4.845-.4 1.334 0 1.422-.578.4-2.222-3.867-1.556-4-1.6-4.089-3.111-4.222-.845-.089-1.823.133-2.134.444Z" />
  </g>
  <defs>
    <clipPath id="a">
      <path fill="#fff" d="M0 0h139.488v60H0z" />
    </clipPath>
  </defs>
</svg>