<svg fill="none" width="46" height="60" viewBox="0 0 46 60">
  <path fill="#000" d="M8.27 23.402c-.53-.402-1.06-.604-1.588-.604H4.305v14.504h2.378c.529 0 1.06-.202 1.588-.604.529-.403.793-1.007.793-1.813v-9.67c-.001-.805-.267-1.41-.795-1.813Zm4.644 11.51c0 2.61-1.582 6.567-6.59 6.559H0V18.5h6.457c4.83 0 6.454 3.951 6.455 6.564l.002 9.847Zm13.72-12.31h-7.26v5.334h4.438v4.105h-4.438v5.333h7.262v4.105h-8.474c-1.52.04-2.785-1.184-2.824-2.733v-17.37c-.036-1.547 1.167-2.833 2.686-2.872h8.612l-.001 4.098ZM40.76 38.608c-1.8 4.27-5.022 3.42-6.465 0l-5.251-20.102h4.438l4.05 15.787 4.029-15.787H46l-5.241 20.102Z" />
</svg>