<svg fill="none" width="187" height="60" viewBox="0 0 187 60">
  <g clip-path="url(#clip0_2_235)">
    <path d="M50.5105 23.2944H63.1979V36.2388H60.7309V31.1936H53.0279V36.2388H50.4602L50.5105 23.2944ZM60.6302 25.9954H53.0782V28.5435H60.6302V25.9954Z" fill="black" />
    <path d="M171.544 36.2388H158.756V23.2944H171.544V36.2388ZM168.926 33.6397V25.9954H161.323V33.6397H168.926Z" fill="black" />
    <path d="M143.299 23.2944H155.987V36.2388H143.299V23.2944ZM145.817 33.5888H153.469V25.9445H145.817V33.5888Z" fill="black" />
    <path d="M96.8294 36.2388V23.2944H109.668V25.7406H99.4474V28.5435H104.432V30.9897H99.397V33.7417H109.617V36.2388H96.8294Z" fill="black" />
    <path d="M122.405 33.7926L120.039 33.6907V31.1426H114.853V36.2388H112.386V23.2944H125.074V30.9897L122.607 31.1426L122.405 33.7926ZM114.853 28.4926H122.607C122.556 27.6262 122.506 26.8108 122.456 25.9445H114.853V28.4926Z" fill="black" />
    <path d="M35.0038 23.2944H37.4708V28.4926H45.2745V23.2944H47.7918V36.1879H45.3249V31.1936H37.5715V36.1879H35.0038V23.2944Z" fill="black" />
    <path d="M65.9166 23.2944H78.6039V25.7916H68.4843V33.7926H78.6039V36.2898H65.9166V23.2944Z" fill="black" />
    <path d="M187 36.2388H184.483V25.9954H176.78V36.2388H174.212V23.2944H187V36.2388Z" fill="black" />
    <path d="M130.31 25.8935V36.2388H127.843V23.2944H140.581V36.1879H138.164V25.8935H130.31Z" fill="black" />
    <path d="M89.0257 31.0916H83.991V36.2388H81.4233V23.2944H83.8903V28.3906H89.0257L89.227 25.9954H91.5933L91.7444 28.3906L89.076 28.5945L89.0257 31.0916Z" fill="black" />
    <path d="M91.694 23.2944H94.2113V25.7916H91.694V23.2944Z" fill="black" />
    <path d="M91.4423 33.8436L94.2113 33.6907V36.2388H91.694C91.5933 35.4234 91.543 34.608 91.4423 33.8436Z" fill="black" />
    <path d="M122.405 33.7926L125.124 33.6397V36.1878H122.607C122.506 35.3725 122.456 34.5571 122.405 33.7926Z" fill="black" />
    <path d="M88.9753 31.1426H91.6437C91.5933 32.1109 91.543 32.9772 91.4926 33.8436L89.0257 33.6397C88.9753 32.7734 88.9753 31.958 88.9753 31.1426Z" fill="black" />
    <path d="M4.69438 11.895V21.284H9.38727V18.9167H11.7359V30.7483H14.0816V18.9167H16.4273V21.284H21.1217V11.895H4.69438ZM21.1232 21.284V26.0154H23.4689V21.284H21.1232ZM23.4689 26.0154V33.114H25.8176V30.7483H28.1633V28.3826H25.8176V26.0154H23.4689ZM23.4689 33.114H21.1232V37.847H23.4689V33.114ZM21.1232 37.847H16.4288V40.2142H9.38727V37.8455H4.69289V48.105H21.1217L21.1232 37.847ZM4.69438 37.847V33.114H2.3457V37.847H4.69438ZM2.3457 33.114V26.0169H0V33.1155L2.3457 33.114ZM2.3457 26.0154H4.69438V21.284H2.3457V26.0154Z" fill="black" />
  </g>
  <defs>
    <clipPath id="clip0_2_235">
      <rect width="187" height="60" fill="white" />
    </clipPath>
  </defs>
</svg>