<svg fill="none" width="217" height="60" viewBox="0 0 217 60">
  <path fill="#000" d="M11.779 31.206V19.41h-3.91v11.627c0 .306-.017.628-.05.965a2.486 2.486 0 0 1-.224.917 1.474 1.474 0 0 1-.598.675c-.282.177-.68.266-1.195.266-.465 0-.846-.073-1.145-.218a1.789 1.789 0 0 1-.673-.578 2.536 2.536 0 0 1-.348-.917c-.067-.354-.1-.74-.1-1.158v-.772H0v1.496c0 .948.166 1.76.498 2.436.332.66.772 1.206 1.32 1.64.548.419 1.17.724 1.868.917.697.21 1.419.314 2.166.314 1.328 0 2.382-.193 3.163-.58.78-.401 1.377-.892 1.792-1.47a4.7 4.7 0 0 0 .797-1.906c.117-.676.175-1.295.175-1.858Zm2.905-3.208c.05-.804.257-1.472.622-2.002.366-.531.83-.957 1.395-1.279a5.985 5.985 0 0 1 1.892-.675 10.748 10.748 0 0 1 2.142-.217c.648 0 1.303.048 1.967.144.664.08 1.27.25 1.818.507s.996.619 1.345 1.085c.349.45.523 1.054.523 1.81v6.489c0 .563.033 1.101.1 1.616.066.514.182.9.348 1.158H23.25a7.67 7.67 0 0 1-.174-.58 8.065 8.065 0 0 1-.075-.626 4.635 4.635 0 0 1-1.992 1.182 8.233 8.233 0 0 1-2.34.337 6.518 6.518 0 0 1-1.719-.217 3.986 3.986 0 0 1-1.395-.675 3.279 3.279 0 0 1-.946-1.158c-.216-.466-.324-1.021-.324-1.664 0-.708.125-1.287.374-1.737.266-.467.598-.837.996-1.11a4.51 4.51 0 0 1 1.395-.603 14.075 14.075 0 0 1 1.593-.338c.532-.08 1.055-.145 1.57-.193.514-.048.97-.12 1.369-.217.398-.096.714-.233.946-.41.233-.193.34-.466.324-.82 0-.37-.067-.66-.2-.869a1.15 1.15 0 0 0-.498-.506 1.66 1.66 0 0 0-.722-.241 4.89 4.89 0 0 0-.871-.073c-.698 0-1.245.145-1.644.434-.398.29-.63.772-.697 1.448h-3.536Zm8.168 2.533c-.15.128-.34.233-.573.313a6.8 6.8 0 0 1-.722.17c-.25.047-.515.088-.797.12-.282.032-.565.072-.847.12a7.172 7.172 0 0 0-.797.193c-.249.08-.473.193-.672.338a1.498 1.498 0 0 0-.448.507c-.116.209-.174.474-.174.796 0 .305.058.563.174.772.116.209.274.378.473.506.2.113.432.193.697.242.266.048.54.072.822.072.697 0 1.237-.113 1.619-.338.381-.225.664-.49.846-.796.183-.322.29-.643.324-.965a5.31 5.31 0 0 0 .075-.772v-1.278Zm13.403 6.103 4.357-12.472h-3.51l-2.715 8.516h-.05l-2.714-8.516h-3.71l4.407 12.472h3.934Zm5.665-8.636c.05-.804.258-1.472.623-2.002.365-.531.83-.957 1.395-1.279a5.985 5.985 0 0 1 1.892-.675 10.747 10.747 0 0 1 2.142-.217c.647 0 1.303.048 1.967.144.664.08 1.27.25 1.818.507s.996.619 1.345 1.085c.348.45.523 1.054.523 1.81v6.489c0 .563.033 1.101.1 1.616.066.514.182.9.348 1.158h-3.586a7.718 7.718 0 0 1-.175-.58 8.065 8.065 0 0 1-.074-.626 4.634 4.634 0 0 1-1.992 1.182 8.234 8.234 0 0 1-2.341.337 6.518 6.518 0 0 1-1.718-.217 3.987 3.987 0 0 1-1.395-.675 3.28 3.28 0 0 1-.946-1.158c-.216-.466-.324-1.021-.324-1.664 0-.708.125-1.287.374-1.737.265-.467.597-.837.996-1.11.415-.273.88-.474 1.394-.603a14.076 14.076 0 0 1 1.594-.338 27.95 27.95 0 0 1 1.569-.193c.515-.048.971-.12 1.37-.217.398-.096.713-.233.946-.41.232-.193.34-.466.323-.82 0-.37-.066-.66-.199-.869a1.15 1.15 0 0 0-.498-.506 1.66 1.66 0 0 0-.722-.241 4.89 4.89 0 0 0-.872-.073c-.697 0-1.245.145-1.643.434-.399.29-.631.772-.697 1.448H41.92Zm8.168 2.533a1.74 1.74 0 0 1-.572.313 7.09 7.09 0 0 1-.722.17c-.25.047-.515.088-.797.12-.283.032-.565.072-.847.12a7.166 7.166 0 0 0-.797.193c-.249.08-.473.193-.672.338a1.498 1.498 0 0 0-.448.507c-.117.209-.175.474-.175.796 0 .305.058.563.175.772.116.209.273.378.473.506.199.113.431.193.697.242.266.048.54.072.822.072.697 0 1.236-.113 1.618-.338.382-.225.664-.49.847-.796.183-.322.29-.643.324-.965a5.31 5.31 0 0 0 .074-.772v-1.278Zm9.319.386h-3.785c-.017 1.061.183 1.978.598 2.75a5.524 5.524 0 0 0 1.668 1.905c.714.499 1.528.86 2.44 1.086.93.241 1.885.362 2.864.362 1.212 0 2.275-.137 3.188-.41.93-.274 1.702-.652 2.316-1.134a4.848 4.848 0 0 0 1.42-1.761 5.124 5.124 0 0 0 .472-2.195c0-.965-.215-1.753-.647-2.364a5.031 5.031 0 0 0-1.494-1.496 6.381 6.381 0 0 0-1.768-.796 14.492 14.492 0 0 0-1.37-.362 392.339 392.339 0 0 1-2.714-.675c-.68-.177-1.22-.354-1.619-.53-.382-.178-.64-.37-.772-.58-.133-.209-.2-.482-.2-.82 0-.37.084-.675.25-.917.166-.241.373-.442.623-.603.265-.16.556-.273.871-.337.316-.065.63-.097.946-.097.482 0 .922.04 1.32.12.415.081.78.218 1.096.41.315.194.564.459.747.797.2.338.315.764.349 1.278h3.785c0-.997-.2-1.841-.598-2.533a4.852 4.852 0 0 0-1.569-1.736 6.606 6.606 0 0 0-2.29-.965A11.076 11.076 0 0 0 62.868 19a9.38 9.38 0 0 0-2.39.314 6.738 6.738 0 0 0-2.142.965 5.289 5.289 0 0 0-1.545 1.64c-.381.643-.572 1.407-.572 2.291 0 .788.15 1.464.448 2.027a4.483 4.483 0 0 0 1.22 1.375c.498.37 1.063.675 1.694.917.63.225 1.278.418 1.942.579a50.25 50.25 0 0 0 1.917.482c.631.145 1.196.314 1.694.506.498.194.896.435 1.195.724.316.29.473.668.473 1.134 0 .434-.116.796-.348 1.085a2.5 2.5 0 0 1-.872.652 4.32 4.32 0 0 1-1.12.337 9.34 9.34 0 0 1-1.121.073 6.539 6.539 0 0 1-1.494-.169 4.299 4.299 0 0 1-1.27-.555 2.933 2.933 0 0 1-.847-.989c-.216-.402-.324-.892-.324-1.471Zm21.899-2.364h3.462c-.05-.805-.25-1.496-.598-2.075a4.54 4.54 0 0 0-1.37-1.471 5.66 5.66 0 0 0-1.892-.893 8.182 8.182 0 0 0-2.191-.29c-1.046 0-1.976.17-2.79.507a5.797 5.797 0 0 0-2.066 1.423 6.015 6.015 0 0 0-1.295 2.147 8.18 8.18 0 0 0-.424 2.678c0 .933.158 1.793.474 2.581a5.97 5.97 0 0 0 1.32 2.002 6.069 6.069 0 0 0 2.041 1.327c.814.306 1.702.458 2.665.458 1.71 0 3.113-.434 4.208-1.302 1.096-.869 1.76-2.131 1.993-3.788H81.43c-.116.772-.407 1.392-.871 1.858-.449.45-1.096.675-1.943.675-.548 0-1.013-.12-1.394-.361a2.9 2.9 0 0 1-.922-.917 4.548 4.548 0 0 1-.473-1.279c-.1-.466-.15-.924-.15-1.375 0-.466.05-.932.15-1.399.1-.482.266-.917.498-1.302a2.99 2.99 0 0 1 .946-.965c.382-.258.855-.386 1.42-.386 1.51 0 2.382.715 2.615 2.147Zm5.534-4.391v12.472h3.536v-5.62c0-.564.058-1.086.175-1.569.116-.482.307-.9.572-1.254.283-.37.648-.66 1.096-.869.448-.209.996-.313 1.644-.313.215 0 .44.016.672.048.232.016.432.04.598.072v-3.184a2.84 2.84 0 0 0-.772-.12c-.449 0-.88.064-1.295.192a4.565 4.565 0 0 0-1.17.555 3.981 3.981 0 0 0-.972.845 3.993 3.993 0 0 0-.672 1.061h-.05v-2.316H86.84Zm13.315-1.929V19.41h-3.536v2.823h3.536Zm-3.536 1.93v12.47h3.536v-12.47h-3.536Zm12.819 10.227c-.564 0-1.045-.112-1.444-.337a2.933 2.933 0 0 1-.971-.869 4.264 4.264 0 0 1-.523-1.278 7.231 7.231 0 0 1-.149-1.472c0-.514.049-1.013.149-1.495.1-.483.266-.909.498-1.279.249-.37.565-.667.946-.893.399-.24.889-.361 1.47-.361.564 0 1.037.12 1.419.361.398.226.722.531.971.917.249.37.424.796.523 1.279.116.482.174.973.174 1.471 0 .499-.049.99-.149 1.472-.1.482-.274.908-.523 1.278a2.692 2.692 0 0 1-.946.869c-.382.225-.863.337-1.445.337Zm-6.499-10.228V41h3.536v-5.91h.05a4.256 4.256 0 0 0 1.643 1.399c.681.306 1.42.458 2.217.458.946 0 1.768-.177 2.465-.53a5.055 5.055 0 0 0 1.768-1.424 5.95 5.95 0 0 0 1.071-2.05 8.336 8.336 0 0 0 .349-2.412c0-.885-.117-1.73-.349-2.533a6.125 6.125 0 0 0-1.071-2.147 5.353 5.353 0 0 0-1.818-1.472c-.73-.37-1.602-.554-2.614-.554a5.18 5.18 0 0 0-2.192.458c-.664.305-1.212.796-1.643 1.471h-.05v-1.592h-3.362Zm19.706 0v-3.739h-3.536v3.74h-2.142v2.29h2.142v7.358c0 .628.108 1.134.323 1.52.216.386.507.684.872.893.382.209.813.345 1.295.41.498.08 1.021.12 1.569.12.348 0 .705-.008 1.071-.024a8.7 8.7 0 0 0 .996-.096V33.98a5.152 5.152 0 0 1-.523.073 6.542 6.542 0 0 1-.573.024c-.598 0-.996-.097-1.195-.29-.2-.193-.299-.579-.299-1.158v-6.175h2.59v-2.292h-2.59Zm28.51 12.472 4.781-17.224h-3.835l-2.913 11.869h-.05L146.1 19.41h-3.661l-3.088 11.724h-.05l-2.814-11.724h-3.909l4.706 17.224h3.96l2.963-11.724h.05l3.013 11.724h3.885Zm13.464-7.574h-5.752a4.25 4.25 0 0 1 .149-.821c.1-.306.258-.595.473-.868.233-.274.532-.499.897-.676.382-.193.855-.29 1.419-.29.864 0 1.503.226 1.918.676.431.45.73 1.11.896 1.978Zm-5.752 2.17h9.288a8.507 8.507 0 0 0-.249-2.774 6.576 6.576 0 0 0-1.145-2.364 5.452 5.452 0 0 0-1.992-1.64c-.814-.418-1.768-.627-2.864-.627-.98 0-1.876.168-2.69.506a6.283 6.283 0 0 0-2.066 1.4 5.958 5.958 0 0 0-1.345 2.074 7.06 7.06 0 0 0-.473 2.605c0 .965.149 1.85.448 2.654a6.135 6.135 0 0 0 1.32 2.074 5.835 5.835 0 0 0 2.067 1.351c.813.306 1.726.458 2.739.458 1.461 0 2.706-.321 3.735-.965 1.029-.643 1.793-1.712 2.291-3.208h-3.113c-.116.386-.431.756-.946 1.11-.514.337-1.129.506-1.843.506-.996 0-1.759-.249-2.291-.748-.531-.498-.821-1.302-.871-2.412Zm20.051-2.17h-5.752c.017-.242.066-.515.15-.821a2.78 2.78 0 0 1 .473-.868c.232-.274.531-.499.896-.676.382-.193.855-.29 1.42-.29.863 0 1.502.226 1.917.676.432.45.73 1.11.896 1.978Zm-5.752 2.17h9.289a8.562 8.562 0 0 0-.249-2.774 6.595 6.595 0 0 0-1.146-2.364 5.452 5.452 0 0 0-1.992-1.64c-.814-.418-1.768-.627-2.864-.627-.979 0-1.876.168-2.689.506a6.277 6.277 0 0 0-2.067 1.4 5.972 5.972 0 0 0-1.345 2.074 7.08 7.08 0 0 0-.473 2.605c0 .965.149 1.85.448 2.654a6.166 6.166 0 0 0 1.32 2.074 5.835 5.835 0 0 0 2.067 1.351c.813.306 1.726.458 2.739.458 1.461 0 2.706-.321 3.735-.965 1.03-.643 1.793-1.712 2.291-3.208h-3.112c-.117.386-.432.756-.947 1.11-.514.337-1.128.506-1.842.506-.996 0-1.76-.249-2.291-.748-.532-.498-.822-1.302-.872-2.412Zm11.71-11.82v17.224h3.536V32.34l1.369-1.279 3.536 5.573h4.283l-5.403-7.888 4.856-4.584h-4.184l-4.457 4.487V19.41h-3.536Zm14.075 0v17.224h3.536V19.41h-3.536Zm12.67 18.768L217 24.162h-3.661l-2.814 8.54h-.049l-2.914-8.54h-3.76l4.507 11.7c.1.241.15.498.15.772 0 .37-.117.707-.349 1.013-.216.306-.556.482-1.021.53a7.566 7.566 0 0 1-1.046-.023l-1.021-.097v2.822a24.2 24.2 0 0 0 1.071.073c.365.032.73.048 1.096.048 1.211 0 2.158-.217 2.838-.651.681-.434 1.212-1.158 1.594-2.171Z" />
</svg>