<svg fill="none" width="152" height="60" viewBox="0 0 152 60">
  <path fill="#000" d="M0 19v17.55h3.639V24.802h.05l7.351 11.75h3.886V19h-3.638v11.774h-.05L3.862 19H0Zm21.095 11.209c0-.508.05-1.008.149-1.5.099-.491.264-.925.495-1.302.247-.377.569-.68.965-.91.396-.246.891-.369 1.485-.369.594 0 1.09.123 1.485.37.413.229.735.532.966.909.247.377.42.81.52 1.302a7.66 7.66 0 0 1 0 3c-.1.475-.273.909-.52 1.302-.231.377-.553.68-.966.91-.396.23-.89.344-1.485.344-.594 0-1.089-.115-1.485-.344a2.842 2.842 0 0 1-.965-.91 4.276 4.276 0 0 1-.495-1.303 7.577 7.577 0 0 1-.149-1.5Zm-3.515 0c0 1.016.157 1.934.47 2.753.314.82.76 1.524 1.337 2.114a5.94 5.94 0 0 0 2.08 1.327c.808.312 1.716.467 2.722.467 1.007 0 1.915-.155 2.723-.467a5.896 5.896 0 0 0 2.104-1.327 6.095 6.095 0 0 0 1.337-2.114c.313-.82.47-1.737.47-2.753s-.157-1.934-.47-2.753c-.314-.836-.76-1.54-1.337-2.114a5.731 5.731 0 0 0-2.104-1.352c-.808-.328-1.716-.492-2.723-.492-1.006 0-1.914.164-2.723.492a5.772 5.772 0 0 0-2.079 1.352c-.577.574-1.023 1.278-1.337 2.114-.313.82-.47 1.737-.47 2.753Zm24.613-.049c0 .524-.05 1.032-.148 1.524a4.258 4.258 0 0 1-.495 1.327c-.231.377-.545.68-.941.91-.38.23-.858.344-1.436.344-.544 0-1.015-.115-1.41-.344a3.478 3.478 0 0 1-.966-.934 4.332 4.332 0 0 1-.545-1.328 6.429 6.429 0 0 1-.173-1.475c0-.524.05-1.024.149-1.5.115-.49.288-.925.52-1.302.247-.377.569-.68.965-.91.396-.229.883-.344 1.46-.344.578 0 1.056.115 1.436.345.38.229.685.532.916.91.247.36.42.786.52 1.277.099.476.148.975.148 1.5Zm.05 4.768v1.623h3.341V19H42.07v6.391h-.05a3.674 3.674 0 0 0-1.633-1.401 4.877 4.877 0 0 0-2.153-.492c-.941 0-1.766.189-2.476.566a5.29 5.29 0 0 0-1.782 1.45 6.715 6.715 0 0 0-1.064 2.114 8.679 8.679 0 0 0-.347 2.458c0 .885.116 1.737.347 2.556.247.82.602 1.55 1.064 2.188a5.358 5.358 0 0 0 1.807 1.5c.726.36 1.568.54 2.525.54.841 0 1.592-.147 2.252-.442.677-.311 1.222-.811 1.634-1.5h.05Zm14.612-6.096h-5.718c.017-.245.066-.524.149-.835.099-.312.255-.607.47-.885.231-.279.528-.508.891-.688.38-.197.85-.296 1.411-.296.858 0 1.494.23 1.906.689.43.459.726 1.13.891 2.015Zm-5.718 2.213h9.233a8.91 8.91 0 0 0-.247-2.827 6.778 6.778 0 0 0-1.139-2.41 5.447 5.447 0 0 0-1.98-1.67c-.809-.427-1.758-.64-2.847-.64-.973 0-1.865.172-2.673.517a6.236 6.236 0 0 0-2.055 1.425 6.093 6.093 0 0 0-1.336 2.114 7.365 7.365 0 0 0-.47 2.655c0 .983.148 1.884.445 2.704a6.29 6.29 0 0 0 1.312 2.114 5.798 5.798 0 0 0 2.054 1.376c.809.312 1.717.467 2.723.467 1.452 0 2.69-.327 3.713-.983 1.023-.655 1.782-1.745 2.278-3.27h-3.095c-.115.394-.429.771-.94 1.132-.512.344-1.123.516-1.832.516-.99 0-1.75-.254-2.277-.762-.529-.508-.817-1.328-.867-2.458Zm35.411 5.505L91.301 19h-3.812l-2.897 12.094h-.05L81.524 19h-3.639l-3.07 11.946h-.049L71.968 19h-3.886l4.678 17.55h3.936l2.946-11.945h.05l2.994 11.946h3.862Zm13.384-7.718h-5.718a4.48 4.48 0 0 1 .148-.835c.1-.312.256-.607.47-.885.232-.279.529-.508.892-.688.38-.197.85-.296 1.41-.296.859 0 1.494.23 1.907.689.429.459.726 1.13.891 2.015Zm-5.718 2.213h9.233a8.913 8.913 0 0 0-.248-2.827 6.777 6.777 0 0 0-1.138-2.41 5.454 5.454 0 0 0-1.98-1.67c-.81-.427-1.758-.64-2.847-.64-.974 0-1.865.172-2.673.517a6.237 6.237 0 0 0-2.055 1.425 6.093 6.093 0 0 0-1.337 2.114 7.365 7.365 0 0 0-.47 2.655c0 .983.148 1.884.445 2.704.314.82.751 1.524 1.313 2.114a5.798 5.798 0 0 0 2.054 1.376c.809.312 1.716.467 2.723.467 1.452 0 2.69-.327 3.713-.983 1.023-.655 1.782-1.745 2.277-3.27h-3.094c-.115.394-.429.771-.94 1.132-.512.344-1.123.516-1.832.516-.99 0-1.75-.254-2.278-.762s-.817-1.328-.866-2.458Zm19.932-2.213h-5.718c.016-.245.066-.524.148-.835.099-.312.256-.607.471-.885.231-.279.528-.508.891-.688.379-.197.85-.296 1.411-.296.858 0 1.493.23 1.906.689.429.459.726 1.13.891 2.015Zm-5.718 2.213h9.233a8.913 8.913 0 0 0-.248-2.827 6.777 6.777 0 0 0-1.138-2.41 5.449 5.449 0 0 0-1.981-1.67c-.808-.427-1.757-.64-2.846-.64-.974 0-1.865.172-2.674.517a6.23 6.23 0 0 0-2.054 1.425 6.095 6.095 0 0 0-1.337 2.114 7.378 7.378 0 0 0-.47 2.655c0 .983.148 1.884.445 2.704a6.29 6.29 0 0 0 1.312 2.114 5.796 5.796 0 0 0 2.055 1.376c.808.312 1.716.467 2.723.467 1.452 0 2.69-.327 3.713-.983 1.023-.655 1.782-1.745 2.277-3.27h-3.094c-.116.394-.429.771-.941 1.132-.511.344-1.122.516-1.831.516-.991 0-1.75-.254-2.278-.762s-.817-1.328-.866-2.458ZM120.067 19v17.55h3.515v-4.375l1.362-1.302 3.515 5.678h4.257l-5.371-8.038 4.827-4.67h-4.159l-4.431 4.572V19h-3.515Zm13.991 0v17.55h3.515V19h-3.515Zm12.595 19.124L152 23.842h-3.639l-2.797 8.702h-.049l-2.897-8.701h-3.737l4.48 11.921c.099.246.149.508.149.787 0 .377-.116.72-.347 1.032-.214.312-.553.492-1.015.541a7.33 7.33 0 0 1-1.039-.025 199.38 199.38 0 0 1-1.015-.098v2.876c.363.033.717.057 1.064.074.363.033.726.049 1.089.049 1.205 0 2.145-.221 2.822-.664.677-.442 1.205-1.18 1.584-2.212Z" />
</svg>