<svg fill="none" width="153" height="60" viewBox="0 0 153 60">
  <path fill="#000" d="M39.294 34.678c.252.397.58.695.982.931a4.26 4.26 0 0 0 1.371.485c.504.1 1.032.15 1.573.15.415 0 .856-.026 1.309-.088.465-.062.88-.161 1.27-.323a2.42 2.42 0 0 0 .944-.708c.252-.298.377-.696.377-1.168 0-.659-.264-1.156-.78-1.492-.516-.347-1.17-.62-1.95-.82a33.903 33.903 0 0 0-2.541-.571 13.765 13.765 0 0 1-2.542-.721c-.78-.298-1.434-.733-1.95-1.293-.516-.559-.78-1.33-.78-2.323 0-.783.176-1.442.54-2.001a4.42 4.42 0 0 1 1.41-1.355 6.72 6.72 0 0 1 1.938-.782 9.665 9.665 0 0 1 2.138-.249c.906 0 1.75.075 2.517.224.78.149 1.46.41 2.05.77a4.28 4.28 0 0 1 1.423 1.491c.352.634.553 1.405.616 2.35h-2.655c-.038-.498-.176-.92-.402-1.244a2.789 2.789 0 0 0-.869-.795 3.965 3.965 0 0 0-1.17-.422 5.67 5.67 0 0 0-1.296-.137c-.402 0-.792.025-1.208.087a4.395 4.395 0 0 0-1.107.31 2.19 2.19 0 0 0-.805.597c-.214.248-.315.572-.315.97 0 .434.164.807.491 1.093.315.286.73.522 1.233.708.49.199 1.057.36 1.674.485.629.124 1.258.26 1.874.398.667.149 1.321.31 1.95.509a6.37 6.37 0 0 1 1.687.795c.49.323.88.733 1.182 1.23.302.498.453 1.119.453 1.852 0 .945-.201 1.715-.604 2.324a4.724 4.724 0 0 1-1.598 1.504 6.865 6.865 0 0 1-2.214.783 13.62 13.62 0 0 1-2.441.223 12.38 12.38 0 0 1-2.567-.26c-.805-.187-1.522-.473-2.151-.883a4.65 4.65 0 0 1-1.498-1.615c-.364-.672-.578-1.48-.616-2.436h2.642c.025.559.164 1.031.415 1.416Zm13.853-11.523h2.416v15.3h-2.416v-15.3Zm13.69-.179v2.245h-3.31v9.605c0 .299.025.536.077.723a.745.745 0 0 0 .31.424c.156.1.362.162.621.187.272.025.62.05 1.047.05h1.255v2.245h-2.095c-.698 0-1.306-.05-1.81-.137-.505-.087-.906-.25-1.216-.499-.31-.237-.543-.574-.685-1.01-.155-.437-.233-1.023-.233-1.746V25.22h-2.819v-2.245h2.819v-4.652h2.728v4.652h3.31Zm13.574 14.162c-1.175.882-2.657 1.317-4.433 1.317-1.249 0-2.338-.199-3.257-.596a6.413 6.413 0 0 1-2.327-1.665 7.056 7.056 0 0 1-1.408-2.573c-.318-.994-.49-2.075-.539-3.243 0-1.18.184-2.25.551-3.231.368-.97.87-1.814 1.531-2.535a7.03 7.03 0 0 1 2.339-1.665c.906-.398 1.886-.597 2.963-.597 1.396 0 2.547.273 3.478.845a7.012 7.012 0 0 1 2.217 2.162c.55.883.93 1.84 1.15 2.87.209 1.032.295 2.014.258 2.946H71.178a6.207 6.207 0 0 0 .245 1.926c.184.61.478 1.144.882 1.616.404.472.918.845 1.555 1.118.624.274 1.36.41 2.204.41 1.102 0 1.996-.236 2.694-.745.698-.485 1.163-1.243 1.384-2.262h2.547c-.343 1.727-1.102 3.032-2.278 3.902Zm-.624-9.904a4.163 4.163 0 0 0-.943-1.38 4.604 4.604 0 0 0-1.396-.932 4.544 4.544 0 0 0-1.776-.335c-.661 0-1.273.112-1.8.335a4.233 4.233 0 0 0-1.384.945 4.46 4.46 0 0 0-.906 1.392 5.102 5.102 0 0 0-.404 1.677h9.025a5.418 5.418 0 0 0-.416-1.702Zm9.033-4.522v2.095h.063c.44-.86 1.12-1.484 2.065-1.87.932-.4 1.965-.587 3.086-.587 1.259 0 2.342.212 3.261.661a6.54 6.54 0 0 1 2.317 1.771c.617.749 1.07 1.622 1.385 2.595.315.986.466 2.02.466 3.119 0 1.097-.151 2.133-.453 3.106a7.23 7.23 0 0 1-1.373 2.57c-.604.723-1.385 1.296-2.304 1.72-.932.412-2.002.624-3.236.624-.39 0-.832-.037-1.323-.112a7.574 7.574 0 0 1-1.448-.4 5.538 5.538 0 0 1-1.36-.735 3.954 3.954 0 0 1-1.083-1.148h-.063v7.971h-2.657v-21.38h2.657Zm9.545 5.488a5.887 5.887 0 0 0-.906-1.846c-.403-.536-.932-.96-1.562-1.285-.642-.311-1.385-.474-2.241-.474-.894 0-1.65.163-2.28.512a4.587 4.587 0 0 0-1.523 1.322 5.769 5.769 0 0 0-.856 1.871 8.758 8.758 0 0 0-.265 2.133c0 .761.088 1.497.277 2.196.189.71.479 1.334.894 1.87.403.55.932.974 1.574 1.31.642.325 1.423.487 2.343.487.919 0 1.674-.162 2.291-.5a4.16 4.16 0 0 0 1.486-1.346 5.608 5.608 0 0 0 .806-1.921c.176-.724.252-1.46.252-2.22 0-.712-.1-1.423-.29-2.109Zm5.993-.941a7.446 7.446 0 0 1 1.463-2.573c.651-.72 1.462-1.292 2.421-1.715.946-.41 2.04-.621 3.281-.621 1.266 0 2.359.211 3.306.621a7.061 7.061 0 0 1 2.396 1.715c.651.733 1.131 1.579 1.462 2.573.32.981.492 2.038.492 3.168a10.11 10.11 0 0 1-.492 3.17c-.331.969-.811 1.826-1.462 2.547-.651.733-1.45 1.292-2.396 1.702-.947.41-2.04.61-3.306.61-1.241 0-2.335-.2-3.281-.61-.959-.41-1.77-.969-2.421-1.702a7.448 7.448 0 0 1-1.463-2.548 10.14 10.14 0 0 1-.479-3.168c0-1.131.16-2.188.479-3.17ZM107 32.925c.258.721.603 1.33 1.057 1.815.443.484.959.857 1.561 1.118a4.747 4.747 0 0 0 1.905.385c.676 0 1.302-.124 1.905-.385a4.69 4.69 0 0 0 1.573-1.118c.442-.485.798-1.094 1.044-1.815.258-.733.381-1.553.381-2.497 0-.933-.123-1.765-.381-2.486a5.355 5.355 0 0 0-1.044-1.84 4.56 4.56 0 0 0-1.573-1.13 4.709 4.709 0 0 0-1.905-.385c-.664 0-1.303.124-1.905.385a4.407 4.407 0 0 0-1.561 1.13c-.454.498-.799 1.12-1.057 1.84-.258.72-.381 1.553-.381 2.485 0 .945.123 1.765.381 2.498Zm15.4-9.77h2.416v15.3H122.4v-15.3Zm9.652-.437v2.485h.06c1.069-1.902 2.757-2.853 5.064-2.853 1.02 0 1.87.14 2.55.418.693.292 1.239.685 1.664 1.192.425.508.717 1.116.887 1.814.17.697.255 1.471.255 2.32v10.361h-2.563V27.79c0-.963-.279-1.737-.838-2.308-.558-.57-1.335-.85-2.319-.85-.789 0-1.457.115-2.04.368a3.735 3.735 0 0 0-1.421 1.028c-.388.443-.668.976-.862 1.572-.194.596-.279 1.255-.279 1.966v8.89h-2.563V22.717h2.405Zm20.948.258v2.245h-3.302v9.605c0 .299.026.536.077.723a.748.748 0 0 0 .311.424c.143.1.35.162.622.187.272.025.621.05 1.036.05H153v2.245h-2.085c-.699 0-1.308-.05-1.813-.137-.505-.087-.907-.25-1.217-.499-.311-.237-.544-.574-.687-1.01-.155-.437-.233-1.023-.233-1.746V25.22h-2.823v-2.245h2.823v-4.652h2.733v4.652H153ZM.688 28.139l2.489 2.356 7.837 7.155 3.382-3.191a1.07 1.07 0 0 0-.064-1.371l-3.089-2.643h.013l-3.331-3.154c-.383-.436-.383-1.084.038-1.496l8.947-8.451-4.058-3.852L.7 24.948a2.181 2.181 0 0 0-.012 3.19Z" />
  <path fill="#000" d="m27.486 31.849-2.475-2.344-7.844-7.155-3.38 3.179c-.307.424-.281.984.063 1.383l3.087 2.643 3.316 3.154a1.08 1.08 0 0 1-.025 1.496l-8.954 8.451 4.069 3.852 9.655-9.112 2.488-2.356c.931-.873.931-2.306 0-3.191Zm28.077-12.72c0 .893-.72 1.61-1.61 1.61-.89 0-1.61-.717-1.61-1.61 0-.88.72-1.61 1.61-1.61.89 0 1.61.73 1.61 1.61Zm70.058 0c0 .893-.72 1.61-1.61 1.61a1.608 1.608 0 0 1-1.611-1.61c0-.88.72-1.61 1.611-1.61.89 0 1.61.73 1.61 1.61Z" />
</svg>