<svg fill="none" width="170" height="60" viewBox="0 0 170 60">
  <g fill="#000" clip-path="url(#a)">
    <path d="M150.954 23.636a8.823 8.823 0 0 1 16.649-4.124l-3.24 1.053a5.497 5.497 0 0 0-6.018-2.225 5.49 5.49 0 0 0-4.023 5 5.494 5.494 0 0 0 9.684 3.837l-1.928.316-2.342-2.342 5.04-.81 5.047-.81-.81 5.039-.81 5.04-2.406-2.399.227-1.385a8.826 8.826 0 0 1-13.578-1.322 8.826 8.826 0 0 1-1.492-4.9v.032ZM48.991 26.26a5.67 5.67 0 0 0 .575 2.747 5.48 5.48 0 0 0 1.62 1.904 6.935 6.935 0 0 0 2.367 1.11 10.66 10.66 0 0 0 2.77.364c1.044.02 2.084-.117 3.087-.405a6.562 6.562 0 0 0 2.244-1.134 4.797 4.797 0 0 0 1.37-1.759c.309-.69.466-1.439.462-2.195a4.116 4.116 0 0 0-.633-2.366 4.918 4.918 0 0 0-1.442-1.49 6.046 6.046 0 0 0-1.71-.81 12.905 12.905 0 0 0-1.328-.365l-2.633-.673a10.352 10.352 0 0 1-1.564-.51 1.725 1.725 0 0 1-.745-.575 1.54 1.54 0 0 1-.194-.81 1.62 1.62 0 0 1 .243-.916 2.21 2.21 0 0 1 .6-.6c.248-.158.522-.273.81-.34.3-.064.607-.097.915-.097.44-.014.88.018 1.312.097.377.07.737.21 1.062.413.31.199.56.48.72.81.2.373.317.785.341 1.207h3.662a5.136 5.136 0 0 0-.575-2.535 4.788 4.788 0 0 0-1.515-1.734 6.255 6.255 0 0 0-2.22-.964 10.347 10.347 0 0 0-2.576-.316 8.765 8.765 0 0 0-2.318.316 6.483 6.483 0 0 0-2.074.964c-.609.427-1.12.98-1.499 1.62a4.513 4.513 0 0 0-.55 2.293c-.02.7.13 1.395.437 2.026a4.384 4.384 0 0 0 1.183 1.377c.494.38 1.04.688 1.62.915.615.23 1.243.425 1.88.584.624.178 1.248.34 1.855.478.552.132 1.093.302 1.62.51.43.161.825.406 1.16.721a1.49 1.49 0 0 1 .461 1.134c.013.39-.107.773-.34 1.086a2.43 2.43 0 0 1-.81.648 3.96 3.96 0 0 1-1.086.34c-.36.047-.723.072-1.086.073a6.25 6.25 0 0 1-1.483-.13 4.214 4.214 0 0 1-1.231-.55 2.878 2.878 0 0 1-.81-.989 3.143 3.143 0 0 1-.316-1.466l-3.638-.008Zm42.033-7.292 2.171 6.32H88.74l2.285-6.32ZM82.663 31.77V14.764h-5.331l-3.857 11.837-4.05-11.837h-5.3v17.209h3.541l.049-12.104 4.22 12.08h2.918l4.27-12.202v12.226h7.291l1.353-3.832H94.2l1.296 3.832h3.93l-6.45-17.209h-3.88L82.663 31.77Zm15.556-5.5a5.67 5.67 0 0 0 .583 2.746c.386.75.94 1.402 1.62 1.904a6.946 6.946 0 0 0 2.366 1.101c.904.243 1.835.366 2.771.365a10.536 10.536 0 0 0 3.087-.405 6.564 6.564 0 0 0 2.244-1.134 4.763 4.763 0 0 0 1.377-1.759c.308-.69.463-1.44.454-2.195a4.096 4.096 0 0 0-.624-2.366 4.93 4.93 0 0 0-1.45-1.49 6.041 6.041 0 0 0-1.71-.81 12.947 12.947 0 0 0-1.328-.365l-2.625-.673a10.448 10.448 0 0 1-1.572-.535 1.736 1.736 0 0 1-.746-.575 1.539 1.539 0 0 1-.194-.81 1.623 1.623 0 0 1 .243-.915 2.17 2.17 0 0 1 .6-.6 2.56 2.56 0 0 1 .81-.34c.301-.064.608-.097.915-.098.43-.003.859.037 1.28.122.377.07.737.21 1.062.413.31.2.559.48.721.81.204.372.326.784.356 1.207h3.662a5.128 5.128 0 0 0-.583-2.535 4.77 4.77 0 0 0-1.515-1.734 6.238 6.238 0 0 0-2.22-.964 10.335 10.335 0 0 0-2.584-.284 8.773 8.773 0 0 0-2.318.316 6.484 6.484 0 0 0-2.074.964 5.216 5.216 0 0 0-1.49 1.62 4.512 4.512 0 0 0-.551 2.293c-.02.701.13 1.396.437 2.026a4.4 4.4 0 0 0 1.183 1.377c.495.38 1.04.688 1.62.916.616.229 1.243.424 1.88.583.624.178 1.248.34 1.855.478.552.132 1.093.303 1.621.51.43.161.824.407 1.158.722a1.497 1.497 0 0 1 .454 1.134c.012.39-.108.772-.34 1.086-.22.271-.497.492-.81.648-.344.165-.71.28-1.086.34-.36.047-.723.071-1.086.073a6.26 6.26 0 0 1-1.442-.17 4.2 4.2 0 0 1-1.231-.551 2.918 2.918 0 0 1-.811-.989 3.165 3.165 0 0 1-.316-1.466l-3.653.008Zm15.134 5.67h3.784v-7.389h6.967v7.422h3.8V14.764h-3.784v6.603h-6.967v-6.603h-3.833l.033 17.176Zm16.26 0h3.784V14.764h-3.784V31.94Zm5.518 0h3.54l.049-11.52 7.162 11.52h3.784V14.764h-3.549l-.04 11.586-7.179-11.586h-3.759l-.008 17.176ZM22.23 35.351a22.322 22.322 0 0 0-5.671-3.062 22.943 22.943 0 0 1-4.343-2.326c-3.24-2.257-4.86-5.058-4.86-8.401a8.612 8.612 0 0 1 1.774-5.59c.216-.269.448-.523.696-.762L2.9 16.83a3.743 3.743 0 0 0-2.804 4.49l5.736 24.784a3.743 3.743 0 0 0 4.48 2.803l2.836-.68-.219-.057a27.351 27.351 0 0 1-5.493-2.374l2.99-6.611a13.206 13.206 0 0 0 8.426 2.965c3.24 0 4.861-1.159 4.861-3.46a4.26 4.26 0 0 0-1.483-3.338Zm15.67 3.33-5.737-24.784a3.743 3.743 0 0 0-4.48-2.803l-4.172.964a22.788 22.788 0 0 1 6.814 2.204l-2.431 6.482c-1.815-1.556-4.351-2.334-7.592-2.334-2.906 0-4.361 1.156-4.367 3.468a3.126 3.126 0 0 0 1.434 2.43 29.836 29.836 0 0 0 6.125 2.966 19.15 19.15 0 0 1 5.177 2.876 10.27 10.27 0 0 1 1.62 1.62 10.006 10.006 0 0 1 2.067 6.36 9.6 9.6 0 0 1-1.985 6.142l4.723-1.094A3.737 3.737 0 0 0 37.9 38.68Zm13.44-.988h1.394l3.435 8.863 3.42-8.863h1.393v10.095h-.948v-8.734l-3.427 8.734h-.891l-3.403-8.734v8.734h-.972V37.693Zm17.298 0h1.053l3.93 10.095h-1.045l-1.207-3.144h-4.521l-1.2 3.144h-1.012l4.002-10.095Zm-1.499 6.133h3.906l-1.92-5.185-1.986 5.185Zm18.635 3.962h-.68l-.13-1.84a3.582 3.582 0 0 1-3.436 2.05c-3.127 0-4.682-2.503-4.682-5.266s1.555-5.266 4.682-5.266a3.905 3.905 0 0 1 4.149 3.354h-.948a3.11 3.11 0 0 0-3.2-2.536c-2.626 0-3.744 2.236-3.744 4.448s1.11 4.448 3.743 4.448c2.196 0 3.476-1.572 3.436-3.71h-3.379v-.81h4.189v5.128Zm7.494-10.095h1.053l3.898 10.103h-1.013l-1.207-3.144h-4.554l-1.199 3.144h-1.013l4.035-10.103Zm-1.499 6.141h3.905l-1.92-5.185-1.985 5.185Zm9.65-6.141h7.146v.81l-6.539 8.434h6.676v.81h-7.729v-.81l6.538-8.434h-6.092v-.81Zm11.318 0h.948v10.095h-.948V37.693Zm5.785 0h1.053l5.785 8.547v-8.547h.948v10.095h-1.053l-5.785-8.548v8.548h-.948V37.693Zm12.623 0h6.854v.81h-5.914v3.654h5.541v.81h-5.533v3.994h5.979v.81h-6.927V37.694Z" />
  </g>
  <defs>
    <clipPath id="a">
      <path fill="#fff" d="M0 0h169.823v60H0z" />
    </clipPath>
  </defs>
</svg>