<svg xmlns="http://www.w3.org/2000/svg" width="261" height="45" viewBox="0 0 261 45">
  <path d="M70.4726852,29.7128039 C69.9798699,29.7111753 69.5039706,29.8908257 69.1371134,30.2169778 C67.3122501,31.7600213 65.5181813,32.6214126 62.870989,32.6214126 C58.072739,32.6214126 54.6020771,28.6377604 54.6020771,23.7000213 L54.6020771,23.660456 C54.6020771,18.7543691 58.1092363,14.7978474 62.870989,14.7978474 C65.0802173,14.792871 67.2146328,15.5908107 68.8702271,17.04063 C69.5317401,17.5278474 70.4065339,17.6058474 71.1433225,17.2441082 C71.8823641,16.8783033 72.3567972,16.1375064 72.3762457,15.3189778 C72.3801971,14.6331206 72.0629657,13.984236 71.5174194,13.5622821 C69.3321456,11.8711517 66.7910235,10.7248908 62.9063457,10.7248908 C55.3400062,10.7248908 50,16.5771517 50,23.7181082 L50,23.7893256 C50,31.0014995 55.4426548,36.7248908 62.7455296,36.7248908 C66.7910235,36.7248908 69.4747131,35.4316734 71.8379111,33.3528039 C72.2907053,32.95263 72.5507483,32.3783691 72.5553104,31.7735865 C72.5399103,30.6400731 71.6152214,29.7255831 70.4715447,29.7128039 L70.4726852,29.7128039 Z M86.8759252,21.7070647 C82.0434591,20.5381952 80.8994979,19.6994126 80.8994979,17.7595865 L80.8994979,17.6872387 C80.8994979,16.0368039 82.4038696,14.708543 84.9803485,14.708543 C86.9523414,14.708543 88.8125614,15.3551517 90.7663057,16.6076734 C91.1084676,16.822456 91.5053753,16.9332387 91.9102669,16.9298474 C92.4577259,16.9377604 92.9857957,16.7263691 93.3758602,16.3420213 C93.7670653,15.956543 93.9871894,15.4308908 93.98833,14.8814995 C94.0064812,14.1668347 93.6381189,13.4969841 93.0222929,13.1248039 C90.6732694,11.5487068 87.8881848,10.7349626 85.0522025,10.7961082 C80.0760283,10.7961082 76.4935936,13.7759343 76.4935936,18.0851517 L76.4935936,18.1563691 C76.4935936,22.7854995 79.5023369,24.3647169 84.8332189,25.6579343 C89.4889014,26.7329778 90.4994194,27.7017604 90.4994194,29.49463 L90.4994194,29.5658474 C90.4994194,31.4310647 88.7806263,32.7242821 86.049034,32.7242821 C83.4734437,32.720631 80.9840209,31.8044896 79.0301536,30.1412387 C78.3953128,29.6880398 77.5597309,29.6197498 76.8585662,29.9637604 C76.1542006,30.3116958 75.6969641,31.0122703 75.6655618,31.7916734 C75.6655618,32.45863 75.987194,33.0848908 76.5289503,33.4737604 C79.2315249,35.5266501 82.5413972,36.6395016 85.9463855,36.6401082 C91.2111161,36.6401082 94.8961995,33.8388908 94.8961995,29.1374126 L94.8961995,29.0661952 C94.8961995,24.900543 92.1771531,23.0002821 86.8759252,21.7070647 L86.8759252,21.7070647 Z M109.075387,21.7070647 C104.241781,20.5596734 103.09896,19.6948908 103.09896,17.7595865 L103.09896,17.6872387 C103.09896,16.0368039 104.602191,14.708543 107.17867,14.708543 C109.146101,14.708543 111.010883,15.3551517 112.964627,16.6076734 C113.30793,16.822456 113.704837,16.9332387 114.108588,16.9298474 C114.656047,16.9377604 115.184117,16.7263691 115.575322,16.3420213 C115.965387,15.956543 116.185511,15.4308908 116.186652,14.8814995 C116.204803,14.1668347 115.83644,13.4969841 115.220615,13.1248039 C112.871591,11.5487068 110.086506,10.7349626 107.250524,10.7961082 C102.27435,10.7961082 98.6919151,13.7759343 98.6919151,18.08063 L98.6919151,18.1518474 C98.6919151,22.7809778 101.700659,24.3601952 107.032681,25.654543 C111.687223,26.728456 112.689757,27.70063 112.689757,29.49463 L112.689757,29.5658474 C112.689757,31.4310647 110.970964,32.7242821 108.238231,32.7242821 C105.663033,32.7203615 103.174061,31.8042369 101.220491,30.1412387 C100.585388,29.6875931 99.7492311,29.619292 99.0477635,29.9637604 C98.3438402,30.3120025 97.8870799,31.0125173 97.8558996,31.7916734 C97.8581807,32.4608908 98.1832345,33.0871517 98.7284124,33.4737604 C101.431801,35.5232563 104.741154,36.6328896 108.144707,36.631067 C113.409438,36.631067 117.094521,33.8298474 117.094521,29.1283691 L117.094521,29.0571517 C117.094521,24.900543 114.375475,23.0002821 109.075387,21.7070647 L109.075387,21.7070647 Z M129.376992,23.1427169 L122.644387,23.1427169 C121.460609,23.1495653 120.506401,24.1059457 120.512687,25.2792387 C120.509685,25.8428838 120.732689,26.3846367 121.13267,26.785314 C121.532651,27.1859913 122.076844,27.4127703 122.645527,27.4157604 L129.37357,27.4157604 C129.942253,27.4127703 130.486446,27.1859913 130.886427,26.785314 C131.286408,26.3846367 131.509412,25.8428838 131.50641,25.2792387 C131.509412,24.7155936 131.286408,24.1738406 130.886427,23.7731633 C130.486446,23.372486 129.942253,23.1457071 129.37357,23.1427169 L129.378132,23.1427169 L129.376992,23.1427169 Z M149.690001,11.1714126 L133.023297,11.1714126 C131.927191,11.2281458 131.069498,12.1285097 131.075226,13.2163691 C131.075226,14.3094995 131.932941,15.210456 133.023297,15.2613256 L139.111497,15.2613256 L139.111497,34.2718474 C139.111497,35.5040213 140.107188,36.5021952 141.335549,36.5021952 C141.929235,36.4992053 142.497389,36.2625048 142.914942,35.8441989 C143.332495,35.425893 143.565218,34.8602721 143.561882,34.2718474 L143.561882,15.24663 L149.690001,15.24663 C150.745316,15.142285 151.547476,14.2595997 151.542263,13.208456 C151.542263,12.1514995 150.739298,11.26863 149.690001,11.1702821 L149.690001,11.1714126 Z M166.984003,11.1714126 L158.017081,11.1714126 C157.422392,11.1609872 156.84939,11.3926515 156.431731,11.8123691 C156.010872,12.2328908 155.780483,12.8071517 155.791888,13.40063 L155.791888,34.2718474 C155.838262,35.4451773 156.808417,36.3743536 157.993129,36.3801082 C159.177399,36.3737508 160.146877,35.4447425 160.19323,34.2718474 L160.19323,27.5231517 L165.743096,27.5231517 L171.831296,35.3118474 C172.298114,36.0382787 173.11119,36.4732955 173.980072,36.4614995 C174.532094,36.4716734 175.063585,36.2614126 175.460493,35.8770647 C175.857401,35.4927169 176.084368,34.9670647 176.094633,34.4142821 C176.071789,33.7843451 175.816522,33.1846143 175.377233,32.7288039 L170.580124,26.6617604 C173.944716,25.6217604 176.271416,23.1788908 176.271416,19.1590647 L176.271416,19.0878474 C176.326287,17.0814239 175.581317,15.1343713 174.197915,13.668543 C172.587474,12.0893256 170.117065,11.1702821 166.966895,11.1702821 L166.984003,11.1702821 L166.984003,11.1714126 Z M171.817609,19.4269778 C171.817609,21.9738474 169.81026,23.6242821 166.663511,23.6242821 L160.196652,23.6242821 L160.196652,15.1855865 L166.601922,15.1855865 C169.859303,15.1855865 171.794799,16.6574126 171.794799,19.3467169 L171.817609,19.4269778 L171.817609,19.4269778 Z M183.833194,10.9928039 C183.244751,10.9799543 182.676422,11.2052716 182.259249,11.6168039 C181.839837,12.0313986 181.605662,12.5953615 181.609103,13.182456 L181.609103,34.2718474 C181.655495,35.4447425 182.624973,36.3737508 183.809242,36.3801082 C184.993954,36.3743536 185.96411,35.4451773 186.010484,34.2718474 L186.010484,13.1643691 C186.014466,12.5782852 185.781101,12.0151076 185.362657,11.6009778 C184.947268,11.1893146 184.380576,10.9631767 183.793275,10.9747169 L183.833194,10.9928039 L183.833194,10.9928039 Z M211.723948,29.7263691 C211.231526,29.7250206 210.756082,29.9046525 210.389517,30.230543 C208.564654,31.7735865 206.770585,32.6349778 204.123393,32.6349778 C199.325143,32.6349778 195.854481,28.6513256 195.854481,23.7135865 L195.854481,23.660456 C195.854481,18.7543691 199.36164,14.7978474 204.123393,14.7978474 C206.328719,14.8022803 208.456168,15.6064758 210.104382,17.0587169 C210.765895,17.5448039 211.641829,17.6239343 212.378618,17.2621952 C213.117217,16.89608 213.591172,16.1553446 213.610401,15.3370647 C213.61498,14.6510058 213.298151,14.0016657 212.752715,13.5792387 C210.536647,11.8722821 207.990962,10.7248908 204.127955,10.7248908 C196.535383,10.7248908 191.221609,16.5771517 191.221609,23.7181082 L191.221609,23.7893256 C191.221609,31.0014995 196.664264,36.7248908 203.967139,36.7248908 C208.012632,36.7248908 210.696322,35.4316734 213.05952,33.3528039 C213.515736,32.9481082 213.77806,32.3670647 213.775794,31.7554995 C213.75052,30.626017 212.823857,29.7210853 211.684029,29.7128039 L211.723948,29.7263691 L211.723948,29.7263691 Z M229.971441,22.2236734 L237.777294,14.6859343 C238.272288,14.2812387 238.560844,13.6753256 238.564266,13.0354995 C238.576665,12.4805123 238.359497,11.9446478 237.963201,11.5523691 C237.569101,11.1632517 237.029543,10.9540086 236.473657,10.9747169 C235.770137,10.9591323 235.098007,11.2630747 234.648793,11.7999343 L222.78376,23.7893256 L222.78376,13.1643691 C222.787097,12.5821354 222.556934,12.0224356 222.143905,11.6084022 C221.730876,11.1943687 221.168817,10.9599185 220.581378,10.95663 C219.993742,10.9596197 219.43139,11.1939383 219.018115,11.6080042 C218.60484,12.0220702 218.37452,12.5819406 218.37782,13.1643691 L218.37782,34.2718474 C218.37782,35.4915865 219.364423,36.4795865 220.581378,36.4795865 C221.168817,36.4762979 221.730876,36.2418477 222.143905,35.8278143 C222.556934,35.4137808 222.787097,34.8540811 222.78376,34.2718474 L222.78376,29.0661952 L226.864611,25.1187169 L234.920242,35.4169778 C235.323993,36.0590647 236.024284,36.4501952 236.780462,36.4569778 C237.364901,36.4771487 237.932132,36.2589673 238.349844,35.8533256 C238.769563,35.4463691 239.005655,34.8879343 239.005655,34.3023691 C239.001518,33.7205079 238.784734,33.1598541 238.395466,32.7242821 L229.971441,22.2236734 L229.971441,22.2236734 Z M253.024026,21.7194995 C248.165328,20.5381952 247.021367,19.6994126 247.021367,17.7595865 L247.021367,17.6872387 C247.021367,16.0368039 248.524598,14.708543 251.102217,14.708543 C253.068507,14.708543 254.93443,15.3551517 256.887034,16.6076734 C257.230336,16.822456 257.628385,16.9332387 258.030995,16.9298474 C258.578454,16.9377604 259.106524,16.7263691 259.497729,16.3420213 C259.887794,15.956543 260.109058,15.4308908 260.110199,14.8814995 C260.12835,14.1668347 259.759988,13.4969841 259.144162,13.1248039 C256.791304,11.5460033 254.001009,10.7321346 251.160385,10.7961082 C246.197897,10.7961082 242.615462,13.7759343 242.615462,18.0851517 L242.615462,18.1563691 C242.615462,22.7854995 245.623065,24.3647169 250.955088,25.6579343 C255.61077,26.7329778 256.612164,27.7062821 256.612164,29.4991517 L256.612164,29.5703691 C256.612164,31.4355865 254.893371,32.7288039 252.160638,32.7288039 C249.58544,32.7248832 247.096468,31.8087586 245.142898,30.1457604 C244.508057,29.6925615 243.672475,29.6242716 242.971311,29.9682821 C242.266945,30.3162175 241.809709,31.0167921 241.778306,31.7961952 C241.781728,32.4631517 242.106782,33.0882821 242.650819,33.4737604 C245.348123,35.5226532 248.650517,36.6352812 252.048865,36.6401082 C257.314736,36.6401082 260.99991,33.8388908 260.99991,29.1374126 L260.99991,29.0661952 C261.018068,24.900543 258.280773,23.0002821 252.997794,21.7070647 L253.024026,21.7194995 L253.024026,21.7194995 Z"/>
  <path d="M17.7038773,27.0668177 L7.72014781,34.3997735 C6.52277867,35.1993205 5.58998401,35.7327293 4.39261486,35.7327293 C1.9967459,35.7327293 1.60676478e-15,33.599094 1.60676478e-15,31.202718 C1.60676478e-15,29.1993205 1.59762286,27.7327293 3.06182781,27.0668177 L14.7754674,22 L3.06182781,16.799547 C1.46985825,16.1336353 0,14.6670442 0,12.6670442 C0,10.2672707 2.13016381,8.26727067 4.52264078,8.26727067 C5.72114059,8.26727067 6.51938669,8.66704417 7.71675583,9.6002265 L17.7004854,16.9331823 L16.3730903,5.06681767 C15.9739672,2.26500566 17.8372952,0 20.5,0 C23.1627048,0 25.0226408,2.13363533 24.6269097,4.93318233 L23.2916,16.9331823 L33.2753295,9.6002265 C34.4772213,8.66704417 35.4088853,8.26727067 36.6073851,8.26727067 C39.0244037,8.28879156 40.9785141,10.2460866 41,12.6670442 C41,14.8006795 39.535795,16.1336353 37.9381722,16.8006795 L26.2234019,22 L37.9381722,27.0668177 C39.535795,27.7327293 41,29.1993205 41,31.3329558 C41,33.7327293 38.8698362,35.7327293 36.4773592,35.7327293 C35.4122773,35.7327293 34.4806133,35.1993205 33.2821135,34.3997735 L23.2916,27.0668177 L24.6223871,38.9331823 C25.0215101,41.7327293 23.1581821,44 20.4954774,44 C17.8327726,44 15.9728366,41.8663647 16.3685676,39.0668177 L17.7038773,27.0668177 Z" transform="translate(0 .725)"/>
</svg>
