<svg xmlns="http://www.w3.org/2000/svg" width="190" height="43" viewBox="0 0 190 43">
  <path d="M48.796875,26.7720566 C49.109375,27.2658838 49.515625,27.6362541 50.015625,27.929464 C50.515625,28.2072418 51.078125,28.4232912 51.71875,28.5313159 C52.34375,28.6547727 53,28.7165011 53.671875,28.7165011 C54.1875,28.7165011 54.734375,28.6856369 55.296875,28.6084764 C55.875,28.5313159 56.390625,28.4078591 56.875,28.2072418 C57.34375,28.0066245 57.734375,27.7134146 58.046875,27.3276122 C58.359375,26.9572418 58.515625,26.4634146 58.515625,25.8769949 C58.515625,25.0590936 58.1875,24.4418097 57.546875,24.025143 C56.90625,23.5930443 56.09375,23.2535381 55.125,23.0066245 C54.15625,22.7442788 53.109375,22.5127974 51.96875,22.296748 C50.828125,22.0806986 49.78125,21.7874887 48.8125,21.4016862 C47.84375,21.0313159 47.03125,20.4911924 46.390625,19.796748 C45.75,19.1023035 45.421875,18.1455134 45.421875,16.9109455 C45.421875,15.9387233 45.640625,15.120822 46.09375,14.4263776 C46.546875,13.7319332 47.140625,13.1763776 47.84375,12.7442788 C48.546875,12.3121801 49.359375,11.988106 50.25,11.7720566 C51.140625,11.5714393 52.015625,11.4634146 52.90625,11.4634146 C54.03125,11.4634146 55.078125,11.5560072 56.03125,11.7411924 C57,11.9263776 57.84375,12.2504517 58.578125,12.6979825 C59.3125,13.1609455 59.890625,13.7782294 60.34375,14.5498344 C60.78125,15.3368714 61.03125,16.2936615 61.109375,17.4665011 L57.8125,17.4665011 C57.765625,16.8492171 57.59375,16.3245257 57.3125,15.9232912 C57.03125,15.5220566 56.671875,15.1979825 56.234375,14.9356369 C55.796875,14.6887233 55.3125,14.5189702 54.78125,14.4109455 C54.25,14.2874887 53.71875,14.2411924 53.171875,14.2411924 C52.671875,14.2411924 52.1875,14.2720566 51.671875,14.3492171 C51.171875,14.4263776 50.71875,14.5498344 50.296875,14.7350196 C49.890625,14.9202048 49.546875,15.1671183 49.296875,15.4757603 C49.03125,15.7844023 48.90625,16.1856369 48.90625,16.679464 C48.90625,17.2195875 49.109375,17.6825504 49.515625,18.0374887 C49.90625,18.392427 50.421875,18.6856369 51.046875,18.9171183 C51.65625,19.1640319 52.359375,19.3646492 53.125,19.5189702 C53.90625,19.6732912 54.6875,19.8430443 55.453125,20.0127974 C56.28125,20.1979825 57.09375,20.3985998 57.875,20.6455134 C58.65625,20.892427 59.359375,21.2165011 59.96875,21.6331677 C60.578125,22.0344023 61.0625,22.5436615 61.4375,23.1609455 C61.8125,23.7782294 62,24.5498344 62,25.4603282 C62,26.6331677 61.75,27.5899578 61.25,28.3461307 C60.75,29.1177356 60.078125,29.7350196 59.265625,30.2134146 C58.453125,30.6763776 57.546875,31.0004517 56.515625,31.1856369 C55.5,31.370822 54.484375,31.4634146 53.484375,31.4634146 C52.375,31.4634146 51.3125,31.3553899 50.296875,31.1393406 C49.296875,30.9078591 48.40625,30.5529208 47.625,30.0436615 C46.859375,29.5344023 46.234375,28.870822 45.765625,28.0374887 C45.3125,27.2041554 45.046875,26.201069 45,25.0127974 L48.28125,25.0127974 C48.3125,25.7072418 48.484375,26.2936615 48.796875,26.7720566"/>
  <polygon points="66 12.463 69 12.463 69 31.463 66 31.463"/>
  <path d="M83 12.2409859L83 15.02909 78.8890511 15.02909 78.8890511 26.9559797C78.8890511 27.3277269 78.9211679 27.6220268 78.9854015 27.8543688 79.049635 28.0712213 79.1781022 28.2570949 79.3708029 28.3810107 79.5635036 28.5049264 79.820438 28.5823737 80.1416058 28.6133527 80.4788321 28.6443316 80.9124088 28.6753105 81.4423358 28.6753105L83 28.6753105 83 31.4634146 80.3985401 31.4634146C79.5313869 31.4634146 78.7766423 31.4014568 78.150365 31.2930305 77.5240876 31.1846042 77.0262774 30.9832412 76.6408759 30.6734518 76.2554745 30.3791519 75.9664234 29.9609363 75.789781 29.418805 75.5970803 28.8766736 75.5007299 28.1486687 75.5007299 27.2502796L75.5007299 15.02909 72 15.02909 72 12.2409859 75.5007299 12.2409859 75.5007299 6.46341463 78.8890511 6.46341463 78.8890511 12.2409859 83 12.2409859M99.8571187 29.8276122C98.3972585 30.9232912 96.5572264 31.4634146 94.3522293 31.4634146 92.8011278 31.4634146 91.4477158 31.2165011 90.3072 30.7226739 89.1514774 30.2288467 88.1934441 29.5344023 87.4178934 28.6547727 86.6423427 27.7597109 86.0492745 26.6948961 85.6691026 25.4603282 85.2737238 24.2257603 85.0608275 22.8831677 85 21.4325504 85 19.9665011 85.2281032 18.6393406 85.6843095 17.4202048 86.1405158 16.2165011 86.7639977 15.1671183 87.5851691 14.2720566 88.4063404 13.392427 89.3643737 12.6979825 90.4896826 12.2041554 91.6149914 11.7103282 92.8315416 11.4634146 94.1697468 11.4634146 95.9033307 11.4634146 97.3327772 11.8029208 98.4884998 12.5127974 99.6290156 13.2226739 100.541428 14.1177356 101.240945 15.1979825 101.925254 16.2936615 102.396667 17.4819332 102.670391 18.7627974 102.928908 20.0436615 103.035356 21.2627974 102.989735 22.4202048L88.3911335 22.4202048C88.3759267 23.2689702 88.4671679 24.0560072 88.6952711 24.8121801 88.9233742 25.5683529 89.2883393 26.2319332 89.7901662 26.8183529 90.2919932 27.4047727 90.930682 27.8677356 91.7214396 28.2072418 92.4969903 28.546748 93.4094029 28.7165011 94.4586774 28.7165011 95.8272963 28.7165011 96.9373984 28.4232912 97.8041903 27.7905751 98.6709823 27.1887233 99.2488436 26.2473653 99.5225674 24.9819332L102.685598 24.9819332C102.259805 27.1269949 101.316979 28.7473653 99.8571187 29.8276122L99.8571187 29.8276122zM99.081568 17.5282294C98.7926373 16.8646492 98.4124654 16.2936615 97.9106385 15.8152665 97.4240184 15.3368714 96.8461571 14.951069 96.1770545 14.6578591 95.5231588 14.3800813 94.7780218 14.2411924 93.9720574 14.2411924 93.150886 14.2411924 92.3905422 14.3800813 91.7366465 14.6578591 91.0675439 14.951069 90.4896826 15.3368714 90.0182694 15.8306986 89.5468562 16.3245257 89.1666843 16.8955134 88.8929605 17.5590936 88.6040298 18.2072418 88.4519611 18.9016862 88.3911335 19.642427L99.5986018 19.642427C99.5377743 18.9016862 99.3704987 18.2072418 99.081568 17.5282294L99.081568 17.5282294zM110.299588 11.9126401L110.299588 14.5150497 110.377778 14.5150497C110.925103 13.4462029 111.769547 12.6716763 112.942387 12.1914697 114.099588 11.6957726 115.381893 11.4634146 116.773663 11.4634146 118.337449 11.4634146 119.682305 11.7267537 120.823868 12.2844129 121.98107 12.8265816 122.934979 13.5546367 123.701235 14.4840687 124.46749 15.4135007 125.030453 16.497838 125.421399 17.7060997 125.812346 18.9298518 126 20.2155661 126 21.5787331 126 22.9419 125.812346 24.2276143 125.437037 25.4358759 125.061728 26.6596281 124.498765 27.7129843 123.73251 28.6269258 122.981893 29.5253768 122.012346 30.2379413 120.870782 30.7646195 119.71358 31.2758071 118.384362 31.5391461 116.851852 31.5391461 116.367078 31.5391461 115.819753 31.4926745 115.209877 31.3997313 114.6 31.2912976 114.005761 31.1363923 113.411523 30.9040343 112.817284 30.6871668 112.254321 30.3773561 111.722634 29.9900928 111.190947 29.61832 110.737449 29.1381134 110.377778 28.5649637L110.299588 28.5649637 110.299588 38.4634146 107 38.4634146 107 11.9126401 110.299588 11.9126401 110.299588 11.9126401zM122.153086 18.7284749C121.902881 17.8764955 121.527572 17.1174594 121.02716 16.4358759 120.526749 15.769783 119.869959 15.2431048 119.088066 14.840351 118.290535 14.4530876 117.367901 14.2517107 116.304527 14.2517107 115.194239 14.2517107 114.255967 14.4530876 113.474074 14.8868226 112.707819 15.305067 112.066667 15.8627262 111.581893 16.5288191 111.097119 17.2258931 110.737449 18.0004198 110.518519 18.8523991 110.299588 19.7353596 110.190123 20.6028294 110.190123 21.5012804 110.190123 22.4462029 110.299588 23.3601444 110.534156 24.2276143 110.768724 25.1105747 111.128395 25.8851014 111.644444 26.5511943 112.144856 27.2327778 112.801646 27.7594559 113.599177 28.1777003 114.396708 28.5804542 115.366255 28.7818312 116.507819 28.7818312 117.649383 28.7818312 118.587654 28.5804542 119.353909 28.1622098 120.120165 27.7439654 120.730041 27.1863062 121.199177 26.4892322 121.668313 25.7921582 121.996708 25.002141 122.2 24.10369 122.41893 23.2052391 122.512757 22.2912976 122.512757 21.346375 122.512757 20.4634146 122.387654 19.5804542 122.153086 18.7284749L122.153086 18.7284749zM129.595181 17.5590936C130.007229 16.3245257 130.617671 15.275143 131.411245 14.3646492 132.22008 13.4695875 133.227309 12.7597109 134.417671 12.2350196 135.592771 11.7257603 136.951004 11.4634146 138.492369 11.4634146 140.064257 11.4634146 141.42249 11.7257603 142.59759 12.2350196 143.772691 12.7597109 144.764659 13.4695875 145.573494 14.3646492 146.382329 15.275143 146.97751 16.3245257 147.389558 17.5590936 147.786345 18.7782294 148 20.0899578 148 21.4942788 148 22.9140319 147.786345 24.2103282 147.389558 25.429464 146.97751 26.6331677 146.382329 27.6979825 145.573494 28.5930443 144.764659 29.5035381 143.772691 30.1979825 142.59759 30.7072418 141.42249 31.2165011 140.064257 31.4634146 138.492369 31.4634146 136.951004 31.4634146 135.592771 31.2165011 134.417671 30.7072418 133.227309 30.1979825 132.22008 29.5035381 131.411245 28.5930443 130.617671 27.6979825 130.007229 26.6331677 129.595181 25.429464 129.198394 24.2103282 129 22.9140319 129 21.4942788 129 20.0899578 129.198394 18.7782294 129.595181 17.5590936L129.595181 17.5590936zM132.876305 24.5961307C133.196787 25.4911924 133.624096 26.2473653 134.188755 26.8492171 134.738153 27.451069 135.379116 27.9140319 136.126908 28.238106 136.874699 28.5621801 137.668273 28.7165011 138.492369 28.7165011 139.331727 28.7165011 140.11004 28.5621801 140.857831 28.238106 141.605622 27.9140319 142.246586 27.451069 142.811245 26.8492171 143.360643 26.2473653 143.803213 25.4911924 144.108434 24.5961307 144.428916 23.6856369 144.581526 22.6671183 144.581526 21.4942788 144.581526 20.3368714 144.428916 19.3029208 144.108434 18.4078591 143.803213 17.5127974 143.360643 16.7411924 142.811245 16.1239085 142.246586 15.5066245 141.605622 15.0436615 140.857831 14.7195875 140.11004 14.3955134 139.331727 14.2411924 138.492369 14.2411924 137.668273 14.2411924 136.874699 14.3955134 136.126908 14.7195875 135.379116 15.0436615 134.738153 15.5066245 134.188755 16.1239085 133.624096 16.7411924 133.196787 17.5127974 132.876305 18.4078591 132.555823 19.3029208 132.403213 20.3368714 132.403213 21.4942788 132.403213 22.6671183 132.555823 23.6856369 132.876305 24.5961307L132.876305 24.5961307z"/>
  <polygon points="152 12.463 155 12.463 155 31.463 152 31.463"/>
  <path d="M163.985862 11.9201075L163.985862 15.0067217 164.061263 15.0067217C165.388313 12.644517 167.484449 11.4634146 170.34967 11.4634146 171.6164 11.4634146 172.672008 11.636643 173.516494 11.9830997 174.37606 12.3453044 175.054665 12.8334934 175.582469 13.4634146 176.110273 14.0933359 176.472196 14.8492414 176.683318 15.7153831 176.894439 16.5815249 177 17.5421548 177 18.5972729L177 31.4634146 173.818096 31.4634146 173.818096 18.2193201C173.818096 17.0224698 173.471254 16.0618398 172.777568 15.3531784 172.083883 14.644517 171.118756 14.2980603 169.897267 14.2980603 168.917059 14.2980603 168.087653 14.4397926 167.363808 14.7547532 166.655042 15.0539658 166.066918 15.4791627 165.599434 16.0303438 165.116871 16.5815249 164.770028 17.2429422 164.528746 17.9830997 164.287465 18.7232572 164.181904 19.5421548 164.181904 20.4240446L164.181904 31.4634146 161 31.4634146 161 11.9201075 163.985862 11.9201075M190 12.2409859L190 15.02909 185.899123 15.02909 185.899123 26.9559797C185.899123 27.3277269 185.931287 27.6220268 185.995614 27.8543688 186.059942 28.0712213 186.188596 28.2570949 186.381579 28.3810107 186.55848 28.5049264 186.815789 28.5823737 187.153509 28.6133527 187.491228 28.6443316 187.925439 28.6753105 188.440058 28.6753105L190 28.6753105 190 31.4634146 187.410819 31.4634146C186.542398 31.4634146 185.78655 31.4014568 185.159357 31.2930305 184.532164 31.1846042 184.033626 30.9832412 183.647661 30.6734518 183.261696 30.3791519 182.972222 29.9609363 182.795322 29.418805 182.602339 28.8766736 182.505848 28.1486687 182.505848 27.2502796L182.505848 15.02909 179 15.02909 179 12.2409859 182.505848 12.2409859 182.505848 6.46341463 185.899123 6.46341463 185.899123 12.2409859 190 12.2409859M.853958317 18.6522691L3.94481444 21.5779657 13.6770486 30.4634146 17.8774428 26.5005663C18.2578559 25.9897304 18.2420053 25.293136 17.7981901 24.79778L13.9623584 21.5160462 13.9782089 21.5160462 9.84121688 17.5996375C9.36570055 17.0578419 9.36570055 16.2528883 9.88876851 15.7420524L21 5.24669637 15.9595269.463414634.869808861 14.6894208C-.287280865 15.788492-.287280865 17.5686778.853958317 18.6522691"/>
  <path d="M34.132755 23.2590803L31.0597775 20.3488636 21.3181218 11.4634146 17.1204978 15.4107831C16.7403357 15.9370988 16.7720158 16.6336933 17.1996983 17.1290493L21.0330002 20.4107831 21.0330002 20.4107831 25.1514237 24.3271917C25.6424665 24.8689874 25.6266264 25.6584611 25.1197435 26.1847769L14 36.6801329 19.0529889 41.4634146 31.0439374 30.1476252 34.132755 27.2219286C35.2890817 26.1383372 35.2890817 24.3581515 34.132755 23.2590803M69 7.46341463C69 8.57265833 68.1056911 9.46341463 67 9.46341463 65.8943089 9.46341463 65 8.57265833 65 7.46341463 65 6.37097766 65.8943089 5.46341463 67 5.46341463 68.1056911 5.46341463 69 6.37097766 69 7.46341463M156 7.46341463C156 8.57265833 155.105691 9.46341463 154 9.46341463 152.894309 9.46341463 152 8.57265833 152 7.46341463 152 6.37097766 152.894309 5.46341463 154 5.46341463 155.105691 5.46341463 156 6.37097766 156 7.46341463"/>
</svg>
