<svg xmlns="http://www.w3.org/2000/svg" width="169" height="46" viewBox="0 0 169 46">
  <g fill="none">
    <path fill="#000" d="M43.866144,32.2495371 L37.2308544,3.53526365 C36.6889597,1.2061412 34.3664359,-0.244920761 32.0380576,0.290917917 L27.2085355,1.40569175 C27.7653801,1.49151164 28.3151537,1.59591109 28.8587401,1.71712062 L31.5634139,1.09337813 C33.8916493,0.557662263 36.2137825,2.00937005 36.754443,4.3386086 L39.2001398,14.9448853 C38.2128455,16.9567866 36.2241148,20.3418062 33.2277605,22.3837888 C33.9437035,22.9650637 34.5597681,23.5781893 35.070651,24.2213961 C36.6616355,26.2536465 37.4571278,28.7114573 37.463315,31.593944 C37.463315,34.4003428 36.6943391,36.7714491 35.1696455,38.7090321 L40.6390969,37.4447371 C41.7597307,37.1898102 42.7326014,36.4982231 43.3422773,35.52312 C43.9519532,34.548017 44.1481267,33.3698593 43.8873571,32.2495371 L43.866144,32.2495371 L43.866144,32.2495371 Z M8.60639039,40.5050566 L12.0376138,32.8290426 C14.9181797,35.1187526 18.1717432,36.2618382 21.7938847,36.2618382 C25.5521438,36.2618382 27.418899,34.9205706 27.426854,32.2468829 C27.426854,30.6738132 26.857635,29.3865148 25.7315715,28.3849879 C24.5993208,27.376383 22.4011105,26.1952536 19.1298694,24.8283285 C17.1853327,24.0187904 15.5156828,23.1163544 14.1014743,22.1342918 C10.197375,23.2154454 6.85630736,25.8900179 4.69080058,28.4778857 L1.02358115,12.5923586 C0.765611668,11.4727785 0.963055643,10.2964671 1.57238577,9.32274694 C2.18171591,8.34902679 3.15290166,7.65784755 4.27184131,7.40158241 L10.565953,5.94618324 C10.8125557,5.63740859 11.083023,5.34102031 11.3729358,5.05967263 L3.35879295,6.90966634 C2.23956754,7.16736055 1.26849696,7.85964094 0.659297034,8.83414861 C0.0500971038,9.80865627 -0.147305979,10.9855267 0.110532783,12.105751 L6.7467062,40.8209092 C7.28616648,43.150798 9.60808334,44.6038052 11.9368514,44.0687939 L15.2248862,43.3088013 C15.1400337,43.2875675 15.0507618,43.2689879 14.9685609,43.2468694 C13.3245435,42.8089226 11.2067663,41.8994087 8.60639039,40.5059414 L8.60639039,40.5050566 Z"/>
    <path fill="#000" d="M8.53196361 12.8421944C8.53196361 10.2327331 9.22858116 8.04319542 10.6200638 6.26908544L4.379422 7.74736056C1.46151451 8.43074808.601038489 10.5123824 1.16096128 13.0247308L4.79739253 29.1796521C6.94332509 26.5495094 10.2546681 23.8348424 14.125934 22.7324304 10.4053829 20.071715 8.53283986 16.7806646 8.53283986 12.8421944L8.53196361 12.8421944zM32.1854155 11.8638712C30.099944 10.033112 27.1890465 9.11593399 23.4693717 9.11593399 20.1334937 9.11593399 18.4616115 10.4773139 18.4616115 13.1964769 18.4616115 14.2683162 19.0171531 15.2331515 20.1089587 16.0990754 21.2042693 16.9551082 23.5438528 18.1222622 27.1338429 19.585251 29.5873387 20.5698685 31.5588978 21.6965588 33.0748077 22.9707168 36.0470426 20.8935784 38.0238592 17.454161 39 15.4111919L36.5754204 4.62805619C36.07333 2.40704674 34.341863.641928707 31.4335943 1.33071139L28.7566551 1.96464324C30.9030685 2.45596346 32.9806426 3.22271419 34.9403407 4.24679789L32.1854155 11.8638712zM150.447318 17.3462422C150.447318 12.5290373 154.338557 8.62092095 159.135976 8.62092095 162.468404 8.62092095 165.361958 10.5057236 166.821617 13.2698086L163.62778 14.3112716C162.654082 12.8647952 161.005192 11.9127507 159.135976 11.9127507 156.147362 11.9127507 153.725554 14.3437078 153.725554 17.3462422 153.725554 20.3461467 156.147362 22.7788571 159.135976 22.7788571 160.797304 22.7788571 162.283615 22.0293193 163.275081 20.8458386L161.373882 21.1596801 159.067568 18.8444412 164.03023 18.0291544 169 17.2129911 168.185327 22.1985132 167.369766 27.1796521 165.057233 24.8652898 165.282889 23.4950821C163.70596 25.0774397 161.524912 26.0619203 159.119984 26.0619203 154.322566 26.0619203 150.426885 22.1520507 150.426885 17.3365991L150.447318 17.3462422zM50.0009345 19.9446399C49.9849431 20.9939928 50.1741746 21.8978215 50.5704057 22.660509 50.9478592 23.4007687 51.4928991 24.0453802 52.1633262 24.544435 52.8623561 25.0443053 53.6518261 25.4076303 54.4891855 25.6148276 55.3775963 25.8541537 56.2864405 25.9742551 57.2210486 25.9742551 58.3759825 25.9742551 59.3887708 25.8401273 60.2594133 25.570995 61.1469357 25.2974795 61.8825397 24.9257788 62.4680024 24.4480033 63.0502311 23.9804396 63.5133297 23.384758 63.8201636 22.7087249 64.1204464 22.0424691 64.2705878 21.3166009 64.2732531 20.5407636 64.2732531 19.5852124 64.0680302 18.8093751 63.656696 18.201855 63.2953348 17.6144924 62.8095244 17.1111876 62.2325736 16.726449 61.7176124 16.3765652 61.1492547 16.1102054 60.5490352 15.9374618 60.1206184 15.7951667 59.6846484 15.676057 59.2430714 15.5806643L56.6533541 14.9135318C56.0039259 14.7382014 55.4930897 14.5628709 55.1092962 14.3875404 54.7450478 14.2122099 54.4998465 14.0219764 54.3736921 13.815963 54.2475378 13.611703 54.1880143 13.3390641 54.1880143 13.0041829 54.1880143 12.6403722 54.2679713 12.3379271 54.4269968 12.098601 54.5860223 11.8619049 54.7841379 11.6629048 55.022232 11.5024774 55.2816479 11.3446799 55.5526132 11.2307151 55.8573381 11.1684728 56.1558441 11.1053538 56.4614574 11.072041 56.759075 11.072041 57.2228254 11.072041 57.6403784 11.1141204 58.017953 11.1947724 58.390012 11.2618868 58.7455775 11.3987785 59.0653893 11.5980325 59.3701142 11.790896 59.6082082 12.0512618 59.7805599 12.3896496 59.9724566 12.7227775 60.0852848 13.1479539 60.118156 13.6537823L63.7304341 13.6537823C63.7304341 12.6693017 63.5456447 11.8382352 63.1609628 11.1526931 62.8103965 10.4692 62.2962694 9.8803328 61.6631023 9.43708433 61.0080298 8.97957238 60.2667316 8.65615622 59.4829423 8.48591648 58.6538385 8.27768311 57.8011636 8.17486626 56.9456412 8.1799648 56.1833848 8.1799648 55.4282357 8.28691639 54.6659793 8.4929297 53.9037229 8.69894301 53.2285307 9.01892114 52.6252998 9.45023412 52.022718 9.8808432 51.5209821 10.4342378 51.1540916 11.0729177 50.7898432 11.7119973 50.6103842 12.4632884 50.6103842 13.3408174 50.6103842 14.1254213 50.7498647 14.7908005 51.0412634 15.3430915 51.3286793 15.8733355 51.7261495 16.3378335 52.2077467 16.706286 52.6996351 17.0832878 53.2442552 17.3880181 53.8246543 17.6109913 54.4261084 17.8371676 55.0435538 18.0230179 55.6725486 18.1825686 56.2891057 18.3622824 56.9047744 18.5218331 57.5026748 18.6612208 58.1050173 18.8076218 58.6416174 18.9741857 59.1195823 19.1670493 59.5957705 19.3599128 59.9733451 19.5992389 60.2585249 19.8859042 60.5605846 20.1708162 60.7089492 20.5504067 60.7089492 21.0088959 60.7089492 21.4410856 60.600563 21.8005131 60.3775719 22.0871784 60.1572461 22.3589406 59.8800619 22.5719672 59.5486847 22.7315179 59.2103952 22.8939343 58.8496623 23.0061868 58.4781498 23.0646458 58.1246233 23.1103453 57.768593 23.1346448 57.4120569 23.137408 56.9321217 23.1364884 56.4539171 23.0805929 55.9870461 22.970844 55.5545806 22.8543731 55.1447608 22.667729 54.7743654 22.418553 54.4323643 22.1583387 54.1557236 21.8238641 53.9659116 21.4410856 53.7598003 21.0422087 53.6549678 20.5635565 53.6549678 19.9911025L50.0426898 19.9911025 50.0018229 19.9446399 50.0009345 19.9446399zM91.4053172 12.7657335L93.5410566 19.0136351 89.1478655 19.0136351 91.4062056 12.7657335 91.4053172 12.7657335zM83.170638 25.384268L83.170638 8.57007511 77.9227957 8.57007511 74.1221746 20.2777678 70.156309 8.57270507 64.9084667 8.57270507 64.9084667 25.591158 68.399921 25.591158 68.4470067 13.6537823 72.6029922 25.5981712 75.4778894 25.5981712 79.6800722 13.5406942 79.6800722 25.5981712 86.8451048 25.5981712 88.1750557 21.8136628 94.5165316 21.8136628 95.7985083 25.6043078 99.6702023 25.6043078 93.3287265 8.58585485 89.5050066 8.58585485 83.170638 25.4053077 83.170638 25.384268 83.170638 25.384268zM98.499277 19.9446399C98.484174 20.9939928 98.6742939 21.8978215 99.0687483 22.660509 99.4461303 23.4000462 99.9901176 24.0444911 100.659004 24.544435 101.342191 25.036237 102.116886 25.3921579 102.988416 25.6148276 103.87505 25.8541537 104.785671 25.9742551 105.718503 25.9742551 106.875213 25.9742551 107.88889 25.8401273 108.760421 25.570995 109.646167 25.2974795 110.381771 24.9257788 110.968122 24.4480033 111.551356 23.980981 112.015146 23.3851922 112.32206 22.7087249 112.625534 22.0255249 112.779038 21.2866825 112.772484 20.5407636 112.772484 19.5852124 112.56815 18.8093751 112.156815 18.201855 111.760584 17.5829384 111.285284 17.0911364 110.730916 16.726449 110.214297 16.3772028 109.644878 16.1109076 109.043824 15.9374618 108.615493 15.7958606 108.179857 15.6767611 107.738749 15.5806643L105.14992 14.9135318C104.50138 14.7382014 103.986102 14.5628709 103.605862 14.3875404 103.241614 14.2122099 102.996412 14.0219764 102.870258 13.815963 102.743215 13.611703 102.680138 13.3390641 102.680138 13.0041829 102.680138 12.6403722 102.760095 12.3379271 102.91912 12.098601 103.076369 11.8619049 103.274485 11.6629048 103.51169 11.5024774 103.765776 11.3446799 104.042072 11.2307151 104.343243 11.1684728 104.643526 11.1053538 104.944697 11.072041 105.245868 11.072041 105.705177 11.072041 106.125395 11.1141204 106.504746 11.1947724 106.900089 11.2719178 107.248346 11.4069223 107.550406 11.5980325 107.8498 11.790896 108.087894 12.0512618 108.261134 12.3896496 108.452143 12.7227775 108.563194 13.1479539 108.596065 13.6537823L112.205678 13.6537823C112.205678 12.6693017 112.013781 11.8382352 111.636207 11.1526931 111.285177 10.4697698 110.771498 9.8810667 110.139235 9.43708433 109.482011 8.97990473 108.739045 8.65655158 107.953744 8.48591648 107.12338 8.27796066 106.269566 8.1751505 105.412889 8.17980325 104.6422 8.18270203 103.875405 8.2879721 103.133227 8.4929297 102.371859 8.69894301 101.691337 9.01892114 101.089883 9.45023412 100.487739 9.88157954 99.9858548 10.4348033 99.6177861 11.0729177 99.2535377 11.7119973 99.0740787 12.4632884 99.0740787 13.3408174 99.0740787 14.1254213 99.2197781 14.7908005 99.5049579 15.3430915 99.7944777 15.8719236 100.191607 16.3360234 100.671441 16.706286 101.16333 17.0832878 101.70795 17.3880181 102.288349 17.6109913 102.890691 17.8371676 103.507248 18.0230179 104.14335 18.1825686 104.759907 18.3622824 105.369357 18.5218331 105.972588 18.6612208 106.574931 18.8076218 107.112419 18.9741857 107.589496 19.1670493 108.066572 19.3599128 108.444147 19.5992389 108.728438 19.8859042 109.026944 20.1708162 109.179751 20.5504067 109.179751 21.0088959 109.179751 21.4410856 109.066923 21.8005131 108.848374 22.0871784 108.629825 22.3589406 108.350864 22.5719672 108.019487 22.7315179 107.682712 22.8938233 107.32346 23.0060808 106.953394 23.0646458 106.599584 23.1104909 106.243249 23.134791 105.886412 23.137408 105.406477 23.1364884 104.928273 23.0805929 104.461401 22.970844 104.029905 22.8517611 103.620502 22.6653066 103.248721 22.418553 102.908509 22.1565292 102.632234 21.8224972 102.440267 21.4410856 102.235933 21.0422087 102.135542 20.5635565 102.135542 19.9911025L98.5241525 19.9911025 98.499277 19.9446399 98.499277 19.9446399zM113.406809 25.5902814L117.133692 25.5902814 117.133692 18.2483175 123.998442 18.2483175 123.998442 25.5902814 127.725325 25.5902814 127.725325 8.57095176 123.997554 8.57095176 123.997554 15.1037654 117.132804 15.1037654 117.132804 8.57270507 113.405921 8.57270507 113.405921 25.591158 113.406809 25.5902814zM129.428409 25.5902814L133.157069 25.5902814 133.157069 8.57095176 129.428409 8.57095176 129.428409 25.5902814 129.428409 25.5902814zM134.860152 25.5902814L138.351606 25.5902814 138.396915 14.1973068 145.452673 25.591158 149.181333 25.591158 149.181333 8.57182842 145.681883 8.57182842 145.635686 19.9937325 138.565713 8.57182842 134.854821 8.57182842 134.854821 25.5902814 134.860152 25.5902814 134.860152 25.5902814z"/>
    <path fill="#999" d="M54.3467188,29.3823794 L57.6732292,37.8069249 L60.9864583,29.3823794 L62.3322917,29.3823794 L62.3322917,38.9914703 L61.4176563,38.9914703 L61.4176563,30.687834 L61.3910938,30.687834 L58.1044271,38.9914703 L57.2429167,38.9914703 L53.9420833,30.687834 L53.9155208,30.687834 L53.9155208,38.9914703 L53,38.9914703 L53,29.3823794 L54.3467188,29.3823794 Z M70.9252604,29.3823794 L74.69625,38.9914703 L73.7125521,38.9914703 L72.5411458,36.0032885 L68.1654167,36.0032885 L67.0072917,38.9941976 L66.036875,38.9941976 L69.9026042,29.387834 L70.9252604,29.387834 L70.9252604,29.3823794 Z M72.2321354,35.2232885 L70.3727604,30.2969249 L68.4478646,35.2232885 L72.2374479,35.2232885 L72.2321354,35.2232885 Z M85.969375,38.9914703 L85.8480729,37.2414703 L85.8215104,37.2414703 C85.6694561,37.5667551 85.4670181,37.8645619 85.2220833,38.1232885 C84.9830208,38.3696521 84.7209375,38.5714703 84.4340625,38.7287431 C84.1433103,38.8868612 83.8324797,39.0025232 83.5105729,39.0723794 C83.1829687,39.1441976 82.8438542,39.1796521 82.495,39.1796521 C81.740625,39.1796521 81.0783333,39.0432885 80.508125,38.7696521 C79.9621079,38.514766 79.477056,38.1402416 79.0870312,37.6723794 C78.705033,37.2056091 78.4167549,36.6658518 78.2388021,36.0841976 C78.0480341,35.4706308 77.9524219,34.8300802 77.9553982,34.1860158 C77.9553982,33.5223794 78.05375,32.8896521 78.2441146,32.2887431 C78.4240647,31.7051033 78.7137504,31.1633645 79.0967708,30.6941976 C79.4863481,30.2232489 79.9721347,29.846141 80.5196354,29.5896521 C81.0898437,29.3169249 81.7521354,29.1796521 82.5065104,29.1796521 C83.0111979,29.1796521 83.483125,29.2469249 83.9355729,29.3814703 C84.3880208,29.5160158 84.7882292,29.717834 85.1361979,29.9869249 C85.4832812,30.2551067 85.7852083,30.587834 86.0278125,30.977834 C86.2704167,31.3741976 86.4404167,31.8341976 86.5263021,32.3651067 L85.608125,32.3651067 C85.5764035,32.0668552 85.4824855,31.779118 85.3327604,31.5214703 C85.1692803,31.2272873 84.956113,30.9653241 84.7032292,30.747834 C84.4203215,30.5020434 84.0987566,30.3074502 83.7522917,30.1723794 C83.3563301,30.0189885 82.9358808,29.9431342 82.5127083,29.9487431 C81.8769792,29.9487431 81.32625,30.0696521 80.8738021,30.3123794 C80.4142708,30.5560158 80.0415104,30.8760158 79.7519792,31.2714703 C79.4642188,31.667834 79.2472917,32.1223794 79.1029688,32.6205612 C78.9636562,33.123871 78.8930349,33.6445936 78.893125,34.167834 C78.893125,34.6860158 78.9657292,35.1969249 79.1029688,35.707834 C79.2410938,36.2132885 79.4571354,36.6669249 79.7519792,37.0623794 C80.0530194,37.465275 80.4385639,37.7933918 80.88,38.0223794 C81.3395313,38.2651067 81.8831771,38.3796521 82.526875,38.3796521 C83.0572396,38.3796521 83.5291667,38.2905612 83.9488542,38.117834 C84.348025,37.9528632 84.70819,37.7020969 85.0051563,37.3823794 C85.2929167,37.0696521 85.5098438,36.6923794 85.6541667,36.2641976 C85.7984896,35.8296521 85.8640104,35.3632885 85.8578125,34.8514703 L82.5853125,34.8514703 L82.5853125,34.0841976 L86.6635417,34.0841976 L86.6635417,38.967834 L86.00125,38.967834 L85.969375,38.9914703 L85.969375,38.9914703 Z M95.0732292,29.3823794 L98.8442187,38.9914703 L97.8605208,38.9914703 L96.6891146,36.0023794 L92.3125,36.0023794 L91.154375,38.9914703 L90.1839583,38.9914703 L94.0461458,29.3823794 L95.0732292,29.3823794 L95.0732292,29.3823794 Z M96.3792187,35.2232885 L94.5216146,30.2969249 L92.5958333,35.2232885 L96.3792187,35.2232885 Z M109.012344,29.3823794 L109.012344,30.1887431 L102.6825,38.2114703 L109.147812,38.2114703 L109.147812,38.9914703 L101.659844,38.9914703 L101.659844,38.1841976 L107.989688,30.1623794 L102.090156,30.1623794 L102.090156,29.3832885 L109.012344,29.3832885 L109.012344,29.3823794 Z M114.116771,29.3823794 L114.116771,38.9914703 L113.202135,38.9914703 L113.202135,29.3823794 L114.116771,29.3823794 Z M119.973802,29.3823794 L125.577604,37.5105612 L125.604167,37.5105612 L125.604167,29.3805612 L126.520573,29.3805612 L126.520573,38.9896521 L125.497031,38.9896521 L119.894115,30.8605612 L119.867552,30.8605612 L119.867552,38.9887431 L118.952031,38.9887431 L118.952031,29.3814703 L119.974687,29.3814703 L119.973802,29.3823794 Z M137.928281,29.3823794 L137.928281,30.1623794 L132.203177,30.1623794 L132.203177,33.6351067 L137.564375,33.6351067 L137.564375,34.4151067 L132.204063,34.4151067 L132.204063,38.2114703 L138,38.2114703 L138,38.9914703 L131.292083,38.9914703 L131.292083,29.3823794 L137.930052,29.3823794 L137.928281,29.3823794 L137.928281,29.3823794 Z"/>
    <g fill="#FFF" transform="translate(7 1.18)">
      <path d="M2.34727273,5.45510204 L21.1636364,1.16285714 C20.6016757,1.03679091 20.0352368,0.931060436 19.4654545,0.845877551 L3.17727273,4.54995918 C2.882035,4.83104939 2.6048304,5.13005139 2.34727273,5.44522449 L2.34727273,5.45420408 L2.34727273,5.45510204 Z M27.5363636,24.0042449 C27.0145455,23.3496327 26.3772727,22.7291429 25.6445455,22.1382857 C22.9990909,23.9162449 19.5927273,24.6911837 15.4236364,22.7111837 C12.1290909,21.1514286 8.90363636,21.0993469 5.98363636,21.8958367 C7.43818182,22.8961633 9.15454545,23.8111837 11.1563636,24.6310204 C14.52,26.0138776 16.7809091,27.2153469 17.9454545,28.2354286 C19.1045455,29.2528163 19.6881818,30.5521633 19.6881818,32.1487347 C19.6790909,34.8623673 17.7609091,36.2164898 13.8954545,36.2164898 C10.17,36.2164898 6.82272727,35.0509388 3.86090909,32.7279184 L0.331818182,40.5266939 C3.00545455,41.9418776 5.18454545,42.8640816 6.87545455,43.3112653 C6.96,43.3337143 7.05090909,43.3534694 7.13909091,43.3741224 L27.6309091,38.7047347 C29.1990909,36.7382041 29.99,34.3316735 29.99,31.482449 C29.9836364,28.5577959 29.1654545,26.0632653 27.5290909,24.001551 L27.5363636,24.0042449 L27.5363636,24.0042449 Z"/>
      <path d="M0.180909091,12.0191837 C0.180909091,15.9513469 2.12272727,19.2387755 5.98454545,21.8967347 C8.90363636,21.0993469 12.13,21.1514286 15.4236364,22.7111837 C19.5936364,24.6911837 22.9981818,23.9162449 25.6436364,22.1382857 C24.0709091,20.8658776 22.0254545,19.7371429 19.48,18.7538776 C15.7572727,17.2955918 13.3290909,16.1327347 12.1918182,15.2715918 C11.06,14.4068571 10.4827273,13.4442449 10.4827273,12.3729796 C10.4827273,9.65844898 12.2172727,8.29804082 15.6772727,8.29804082 C19.5363636,8.29804082 22.5572727,9.21395918 24.72,11.044 L27.5763636,3.44187755 C25.5432174,2.41940501 23.3877621,1.65400469 21.1609091,1.1637551 L2.34272727,5.4604898 C0.897272727,7.23126531 0.174545455,9.4204898 0.174545455,12.0263673 L0.180909091,12.0191837 L0.180909091,12.0191837 Z"/>
    </g>
  </g>
</svg>
