<svg fill="none" viewBox="0 0 243 60">
  <path fill="#BDE9F6" d="M19 15a5 5 0 0 1 5-5h11a5 5 0 0 1 5 5v11a5 5 0 0 1-5 5H24a5 5 0 0 1-5-5V15Z"/>
  <path fill="#000" fill-rule="evenodd" d="M35 12H24a3 3 0 0 0-3 3v11a3 3 0 0 0 3 3h11a3 3 0 0 0 3-3V15a3 3 0 0 0-3-3Zm-11-2a5 5 0 0 0-5 5v11a5 5 0 0 0 5 5h11a5 5 0 0 0 5-5V15a5 5 0 0 0-5-5H24Z" clip-rule="evenodd"/>
  <path fill="#BDE9F6" d="M19 34a5 5 0 0 1 5-5h11a5 5 0 0 1 5 5v11a5 5 0 0 1-5 5H24a5 5 0 0 1-5-5V34Z"/>
  <path fill="#000" fill-rule="evenodd" d="M35 31H24a3 3 0 0 0-3 3v11a3 3 0 0 0 3 3h11a3 3 0 0 0 3-3V34a3 3 0 0 0-3-3Zm-11-2a5 5 0 0 0-5 5v11a5 5 0 0 0 5 5h11a5 5 0 0 0 5-5V34a5 5 0 0 0-5-5H24Z" clip-rule="evenodd"/>
  <path fill="#BDE9F6" d="M0 34a5 5 0 0 1 5-5h11a5 5 0 0 1 5 5v11a5 5 0 0 1-5 5H5a5 5 0 0 1-5-5V34Z"/>
  <path fill="#000" fill-rule="evenodd" d="M16 31H5a3 3 0 0 0-3 3v11a3 3 0 0 0 3 3h11a3 3 0 0 0 3-3V34a3 3 0 0 0-3-3ZM5 29a5 5 0 0 0-5 5v11a5 5 0 0 0 5 5h11a5 5 0 0 0 5-5V34a5 5 0 0 0-5-5H5Z" clip-rule="evenodd"/>
  <path fill="#000" d="M52.01 39h8.58c4.98 0 7.86-1.44 7.86-5.76 0-2.58-1.59-3.99-3.72-4.71 1.56-.84 2.58-2.25 2.58-4.5 0-3.81-2.73-5.43-7.41-5.43h-7.89V39Zm3.48-9h5.07c2.55 0 4.29.9 4.29 3.06 0 2.07-1.71 2.94-4.26 2.94h-5.1v-6Zm0-2.52V21.6h4.35c2.22 0 3.96.81 3.96 2.85 0 2.07-1.56 3.03-3.75 3.03h-4.56ZM75.873 39.3c2.58 0 4.2-.99 5.19-2.7l.21 2.4h3.03V24.45h-3.33v6.39c0 3.33-1.11 5.64-3.87 5.64-1.77 0-3.21-.81-3.21-3.3v-8.73h-3.33v8.91c-.03 4.2 1.95 5.94 5.31 5.94Zm12.938-12.36V39h3.36V24.45h-6.24v2.49h2.88Zm3.36-5.22V18.6h-3.36v3.12h3.36Zm2.798 11.97c0 3.87 1.86 5.31 4.71 5.31h1.8v-3.03h-1.11c-1.47 0-2.07-.48-2.07-2.91V18.6h-3.33v15.09Zm6.938-1.95c0 5.22 2.79 7.56 6.63 7.56 2.16 0 3.81-.72 4.86-2.25l.3 1.95h3.03V18.6h-3.33v7.8c-1.08-1.53-2.73-2.25-4.86-2.25-3.84 0-6.63 2.37-6.63 7.59Zm7.56-4.86c1.95 0 3.42.96 3.93 3.21v3.33c-.48 2.22-1.95 3.18-3.93 3.18-2.34 0-4.05-1.41-4.05-4.86s1.71-4.86 4.05-4.86Zm24.356 12.42c4.38 0 7.77-1.86 7.77-6v-3.51h2.49v-2.55h-2.49v-2.79h-3.54v2.79h-4.02c-1.65 0-3.63-.75-3.63-3.03 0-2.04 1.44-3 3.57-3h2.88V18.3h-2.88c-3.96 0-7.14 1.74-7.14 5.61 0 2.22 1.17 3.66 2.79 4.44-2.07.84-3.6 2.4-3.6 4.95 0 4.14 3.42 6 7.8 6Zm-4.23-6.21c0-2.52 2.49-3.3 4.44-3.3h4.02v3.3c0 2.31-1.71 3.3-4.23 3.3-2.55 0-4.23-.99-4.23-3.3ZM153.177 39h7.68c5.91 0 9.96-2.94 9.96-10.2s-4.05-10.2-9.96-10.2h-7.68V39Zm3.48-3.15v-14.1h4.11c3.54 0 6.42 1.77 6.42 7.05 0 5.28-2.88 7.05-6.42 7.05h-4.11Zm15.433-4.11c0 5.22 3.18 7.56 7.47 7.56 3.81 0 6.27-1.68 6.93-4.68h-3.42c-.63 1.5-1.92 2.07-3.45 2.07-2.61 0-3.84-1.68-4.05-4.14h11.16V30.3c-.15-3.99-3.27-6.15-7.17-6.15-4.29 0-7.47 2.37-7.47 7.59Zm3.57-1.47c.33-2.07 1.53-3.48 3.84-3.48 2.16 0 3.75 1.26 3.75 3.48h-7.59ZM192.038 45v-7.92c1.08 1.5 2.7 2.22 4.8 2.22 3.81 0 6.57-2.34 6.57-7.59 0-5.22-2.76-7.56-6.57-7.56-2.13 0-3.75.72-4.8 2.25l-.3-1.95h-3.03V45h3.33Zm0-14.94c.48-2.25 1.95-3.21 3.87-3.21 2.31 0 4.02 1.44 4.02 4.86 0 3.45-1.71 4.89-4.02 4.89-1.92 0-3.39-.96-3.87-3.21v-3.33Zm13.355 3.63c0 3.87 1.86 5.31 4.71 5.31h1.8v-3.03h-1.11c-1.47 0-2.07-.48-2.07-2.91V18.6h-3.33v15.09Zm6.938-1.95c0 5.22 3.18 7.56 7.53 7.56 4.38 0 7.53-2.34 7.53-7.56s-3.15-7.59-7.53-7.59c-4.35 0-7.53 2.37-7.53 7.59Zm3.51 0c0-3.45 1.71-4.86 4.02-4.86 2.31 0 4.02 1.41 4.02 4.86s-1.71 4.86-4.02 4.86c-2.31 0-4.02-1.41-4.02-4.86Zm17.313 7.17-2.58 6.09h3.45l8.67-20.55h-3.45l-4.41 10.44-3.99-10.44h-3.6l5.91 14.46Z"/>
</svg>
