<svg fill="none" viewBox="0 0 154 60">
  <path fill="#A4C1EE" d="M28 22H0V10h28v12Z"/>
  <path fill="#000" fill-rule="evenodd" d="M1.5 20.5h25v-9h-25v9ZM28 22V10H0v12h28Z" clip-rule="evenodd"/>
  <path fill="#A4EEDC" d="M0 36V24h16v12H0Z"/>
  <path fill="#000" fill-rule="evenodd" d="M1.5 25.5v9h13v-9h-13ZM0 36h16V24H0v12Z" clip-rule="evenodd"/>
  <path fill="#C0A4EE" d="M28 38v12H0V38h28Z"/>
  <path fill="#000" fill-rule="evenodd" d="M26.5 48.5v-9h-25v9h25ZM28 38H0v12h28V38Z" clip-rule="evenodd"/>
  <path fill="#000" d="M50.88 25.888V28H40.776V14.68h9.912v2.112h-7.536v3.456h6.528v1.944h-6.528v3.696h7.728Zm11.525-7.848c-.208-.192-.512-.392-.912-.6a6.538 6.538 0 0 0-1.344-.528 5.912 5.912 0 0 0-1.608-.216c-.928 0-1.616.144-2.064.432-.432.288-.648.696-.648 1.224 0 .384.128.688.384.912.256.224.64.416 1.152.576.528.144 1.184.312 1.968.504.96.224 1.792.488 2.496.792.704.288 1.248.68 1.632 1.176.384.48.576 1.12.576 1.92 0 .704-.136 1.304-.408 1.8a3.372 3.372 0 0 1-1.152 1.224 5.28 5.28 0 0 1-1.68.672c-.64.144-1.32.216-2.04.216a11.32 11.32 0 0 1-3.192-.456 9.737 9.737 0 0 1-2.76-1.296l1.08-2.064c.272.256.648.512 1.128.768a8.664 8.664 0 0 0 1.728.648 7.932 7.932 0 0 0 2.064.264c.848 0 1.504-.128 1.968-.384.464-.272.696-.656.696-1.152 0-.416-.16-.744-.48-.984-.304-.24-.744-.448-1.32-.624a33.675 33.675 0 0 0-2.088-.552c-.944-.24-1.728-.504-2.352-.792-.608-.304-1.072-.68-1.392-1.128-.32-.464-.48-1.048-.48-1.752 0-.88.232-1.616.696-2.208.464-.608 1.088-1.064 1.872-1.368.8-.32 1.688-.48 2.664-.48.976 0 1.88.144 2.712.432.832.288 1.552.648 2.16 1.08l-1.056 1.944Zm13.017 0c-.208-.192-.512-.392-.912-.6a6.538 6.538 0 0 0-1.344-.528 5.912 5.912 0 0 0-1.608-.216c-.928 0-1.616.144-2.064.432-.432.288-.648.696-.648 1.224 0 .384.128.688.384.912.256.224.64.416 1.152.576.528.144 1.184.312 1.968.504.96.224 1.792.488 2.496.792.704.288 1.248.68 1.632 1.176.384.48.576 1.12.576 1.92 0 .704-.136 1.304-.408 1.8a3.372 3.372 0 0 1-1.152 1.224 5.28 5.28 0 0 1-1.68.672c-.64.144-1.32.216-2.04.216a11.32 11.32 0 0 1-3.192-.456 9.737 9.737 0 0 1-2.76-1.296l1.08-2.064c.272.256.648.512 1.128.768a8.664 8.664 0 0 0 1.728.648 7.932 7.932 0 0 0 2.064.264c.848 0 1.504-.128 1.968-.384.464-.272.696-.656.696-1.152 0-.416-.16-.744-.48-.984-.304-.24-.744-.448-1.32-.624a33.675 33.675 0 0 0-2.088-.552c-.944-.24-1.728-.504-2.352-.792-.608-.304-1.072-.68-1.392-1.128-.32-.464-.48-1.048-.48-1.752 0-.88.232-1.616.696-2.208.464-.608 1.088-1.064 1.872-1.368.8-.32 1.688-.48 2.664-.48.976 0 1.88.144 2.712.432.832.288 1.552.648 2.16 1.08l-1.056 1.944Zm14.648 7.848V28H79.964V14.68h9.912v2.112H82.34v3.456h6.528v1.944H82.34v3.696h7.728Zm5.405-6.768V28h-2.376V14.68h1.848l8.328 9.072V14.68h2.4V28h-1.968l-8.232-8.88Zm24.909-2.328h-4.848V28h-2.4V16.792h-4.872V14.68h12.12v2.112ZM122.975 28V14.68h2.376V28h-2.376Zm4.706 0 5.928-13.32h1.944l5.88 13.32h-2.52l-1.536-3.456h-5.616L130.249 28h-2.568Zm6.888-10.392-2.28 4.872h4.512l-2.232-4.872ZM143.804 28V14.68h2.376v11.208h7.248V28h-9.624ZM39.864 41.232c0-.8.152-1.592.456-2.376a7.05 7.05 0 0 1 1.368-2.136 6.832 6.832 0 0 1 2.208-1.536c.88-.384 1.872-.576 2.976-.576 1.312 0 2.44.272 3.384.816.96.544 1.672 1.24 2.136 2.088l-1.872 1.272c-.384-.768-.936-1.296-1.656-1.584-.704-.304-1.392-.456-2.064-.456-.736 0-1.392.136-1.968.408a4.497 4.497 0 0 0-1.416 1.056c-.368.432-.648.92-.84 1.464a4.943 4.943 0 0 0-.288 1.656c0 .608.112 1.192.336 1.752.224.56.536 1.064.936 1.512.416.432.896.776 1.44 1.032.56.24 1.176.36 1.848.36.464 0 .944-.072 1.44-.216.496-.16.952-.392 1.368-.696a3.16 3.16 0 0 0 .984-1.2l1.992 1.152c-.304.656-.776 1.216-1.416 1.68a7.201 7.201 0 0 1-2.136 1.056c-.784.24-1.56.36-2.328.36-1.008 0-1.936-.192-2.784-.576a7.428 7.428 0 0 1-2.184-1.584 7.648 7.648 0 0 1-1.416-2.232 6.5 6.5 0 0 1-.504-2.496Zm24.018-3.192c-.208-.192-.512-.392-.912-.6a6.538 6.538 0 0 0-1.344-.528 5.912 5.912 0 0 0-1.608-.216c-.928 0-1.616.144-2.064.432-.432.288-.648.696-.648 1.224 0 .384.128.688.384.912.256.224.64.416 1.152.576.528.144 1.184.312 1.968.504.96.224 1.792.488 2.496.792.704.288 1.248.68 1.632 1.176.384.48.576 1.12.576 1.92 0 .704-.136 1.304-.408 1.8a3.372 3.372 0 0 1-1.152 1.224 5.28 5.28 0 0 1-1.68.672c-.64.144-1.32.216-2.04.216a11.32 11.32 0 0 1-3.192-.456 9.737 9.737 0 0 1-2.76-1.296l1.08-2.064c.272.256.648.512 1.128.768a8.664 8.664 0 0 0 1.728.648 7.932 7.932 0 0 0 2.064.264c.848 0 1.504-.128 1.968-.384.464-.272.696-.656.696-1.152 0-.416-.16-.744-.48-.984-.304-.24-.744-.448-1.32-.624a33.675 33.675 0 0 0-2.088-.552c-.944-.24-1.728-.504-2.352-.792-.608-.304-1.072-.68-1.392-1.128-.32-.464-.48-1.048-.48-1.752 0-.88.232-1.616.696-2.208.464-.608 1.088-1.064 1.872-1.368.8-.32 1.688-.48 2.664-.48.976 0 1.88.144 2.712.432.832.288 1.552.648 2.16 1.08l-1.056 1.944Zm13.016 0c-.208-.192-.512-.392-.912-.6a6.538 6.538 0 0 0-1.344-.528 5.913 5.913 0 0 0-1.608-.216c-.928 0-1.616.144-2.064.432-.432.288-.648.696-.648 1.224 0 .384.128.688.384.912.256.224.64.416 1.152.576.528.144 1.184.312 1.968.504.96.224 1.792.488 2.496.792.704.288 1.248.68 1.632 1.176.384.48.576 1.12.576 1.92 0 .704-.136 1.304-.408 1.8a3.372 3.372 0 0 1-1.152 1.224 5.28 5.28 0 0 1-1.68.672c-.64.144-1.32.216-2.04.216a11.32 11.32 0 0 1-3.192-.456 9.738 9.738 0 0 1-2.76-1.296l1.08-2.064c.272.256.648.512 1.128.768a8.665 8.665 0 0 0 1.728.648 7.932 7.932 0 0 0 2.064.264c.848 0 1.504-.128 1.968-.384.464-.272.696-.656.696-1.152 0-.416-.16-.744-.48-.984-.304-.24-.744-.448-1.32-.624a33.675 33.675 0 0 0-2.088-.552c-.944-.24-1.728-.504-2.352-.792-.608-.304-1.072-.68-1.392-1.128-.32-.464-.48-1.048-.48-1.752 0-.88.232-1.616.696-2.208.464-.608 1.088-1.064 1.872-1.368.8-.32 1.688-.48 2.664-.48.976 0 1.88.144 2.712.432.832.288 1.552.648 2.16 1.08l-1.056 1.944Z"/>
</svg>
