<svg fill="none" width="182" height="61" viewBox="0 0 182 61">
  <path fill="#F8E201" d="M166.636 31.798H15.931v22.445h150.705V31.798Z" />
  <path fill="#000" d="M53.655 21.644V0h4.136v18.47h9.331v3.174H53.655Zm15.167-7.6c0-4.36 1.892-8.721 7.31-8.721 4.49 0 6.51 2.725 6.51 7.278 0 .513-.032 1.027-.064 1.604h-9.716c.032 3.976 1.603 5.002 3.495 5.002 1.475 0 2.95-.642 2.95-2.245 0-.128-.032-.256-.032-.416l3.206.448c.032.16.032.353.032.546 0 2.885-2.821 4.489-6.284 4.489-4.297 0-7.407-2.47-7.407-7.985ZM76.1 7.792c-1.474 0-2.693 1.09-3.11 4.008h5.644v-.545c0-1.86-.738-3.463-2.534-3.463Zm8.754 9.715c0-3.399 3.239-5.098 6.638-5.098 1.41 0 2.148.32 2.469.513v-2.309c0-1.827-.706-2.725-2.373-2.725-1.956 0-2.565 1.283-2.116 3.046l-3.752-.417c-.834-3.655 2.245-5.194 6.092-5.194 4.265 0 6.06 1.86 6.06 5.29V17.7c0 .737.193 1.09.642 1.09.577 0 1.026-.513 1.026-.513l.224 2.79s-1.09.801-2.629.801c-1.571 0-2.661-.801-2.918-2.469-.834 1.571-2.437 2.63-4.521 2.63-2.758 0-4.842-1.86-4.842-4.522Zm6.028 1.7c1.315 0 2.277-.738 3.079-1.636v-2.757c-.321 0-.738-.032-1.25-.032-2.566 0-3.977.77-3.977 2.469 0 1.314.866 1.956 2.148 1.956Zm11.48 2.437V5.708h2.982l.545 2.95c.641-1.7 1.924-3.335 4.329-3.335 3.334 0 4.072 3.559 3.046 6.028l-3.367.449c.449-1.283.513-3.207-1.09-3.207-1.411 0-2.117 1.315-2.501 2.437v10.614h-3.944Zm13.82 0V5.708h2.982l.481 2.597c1.186-1.732 2.501-2.982 5.002-2.982 2.693 0 4.745 1.507 4.745 4.906v11.415h-3.944V10.998c0-1.731-.641-2.5-2.116-2.5-1.411 0-2.373.673-3.206 1.538v11.608h-3.944ZM20.115 35.079v-3.014h9.331v15.391c0 4.008-2.244 6.637-6.509 6.637-4.553 0-7.022-2.95-5.868-7.214l3.656-.385c-.674 2.758-.033 4.49 2.116 4.49 1.635 0 2.469-1.027 2.469-2.983V35.08h-5.195Zm12.538 14.493c0-3.399 3.238-5.098 6.637-5.098 1.411 0 2.148.32 2.47.513v-2.309c0-1.827-.706-2.725-2.374-2.725-1.956 0-2.565 1.282-2.116 3.046l-3.752-.417c-.833-3.655 2.245-5.194 6.093-5.194 4.264 0 6.06 1.86 6.06 5.29v7.087c0 .737.192 1.09.641 1.09.578 0 1.026-.513 1.026-.513l.225 2.79s-1.09.801-2.63.801c-1.57 0-2.66-.802-2.917-2.469-.834 1.571-2.437 2.63-4.521 2.63-2.758 0-4.842-1.86-4.842-4.522Zm6.028 1.7c1.315 0 2.277-.738 3.078-1.636V46.88c-.32 0-.737-.032-1.25-.032-2.566 0-3.977.77-3.977 2.469 0 1.314.866 1.956 2.149 1.956Zm15.102 2.437-5.547-15.937h3.976l3.014 8.947c.321 1.026.578 2.693.578 2.693h.128s.288-1.7.609-2.661l3.078-8.979h3.495L57.567 53.71h-3.784Zm10.518-4.137c0-3.399 3.238-5.098 6.637-5.098 1.41 0 2.148.32 2.47.513v-2.309c0-1.827-.706-2.725-2.374-2.725-1.956 0-2.565 1.282-2.116 3.046l-3.752-.417c-.833-3.655 2.245-5.194 6.093-5.194 4.264 0 6.06 1.86 6.06 5.29v7.087c0 .737.192 1.09.641 1.09.578 0 1.026-.513 1.026-.513l.225 2.79s-1.09.801-2.63.801c-1.57 0-2.66-.802-2.917-2.469-.834 1.571-2.437 2.63-4.522 2.63-2.757 0-4.841-1.86-4.841-4.522Zm6.028 1.7c1.315 0 2.277-.738 3.078-1.636V46.88c-.32 0-.737-.032-1.25-.032-2.566 0-3.977.77-3.977 2.469 0 1.314.866 1.956 2.149 1.956Zm10.678-4.105 3.687-.384c-.577 2.276.641 4.264 4.329 4.264 2.918 0 3.847-1.282 3.847-2.757 0-1.956-1.763-2.694-4.296-3.56-3.078-1.058-7.183-2.34-7.183-6.861 0-3.848 2.95-6.253 7.952-6.189 5.9.064 7.984 3.431 7.343 7.118l-3.912.385c.417-3.078-.833-4.52-3.72-4.52-2.436 0-3.494 1.09-3.494 2.693 0 2.148 1.988 2.853 4.489 3.687 3.238 1.058 6.958 2.309 6.958 6.605 0 3.656-2.726 6.445-8.145 6.445-5.066 0-8.593-2.405-7.855-6.926Zm18.565-1.026c0-5.258 2.084-8.753 7.279-8.753 3.334 0 5.996 1.41 5.996 4.296 0 .385-.032.834-.16 1.283l-3.624.417c.096-.385.193-.802.193-1.219 0-1.314-.802-2.212-2.405-2.212-1.732 0-3.175 1.379-3.175 6.38 0 4.04 1.571 4.939 3.303 4.939 1.699 0 2.661-.93 2.661-2.437 0-.193-.032-.481-.032-.481l3.239.449v.449c0 2.821-2.309 4.841-6.028 4.841-4.169 0-7.247-2.276-7.247-7.952Zm16.449 7.568V37.772h2.982l.545 2.95c.642-1.7 1.924-3.334 4.329-3.334 3.335 0 4.072 3.559 3.046 6.028l-3.367.449c.449-1.283.514-3.207-1.09-3.207-1.411 0-2.116 1.315-2.501 2.437V53.71h-3.944Zm13.724-19.207v-3.88h4.104v3.88h-4.104Zm.096 19.207V37.772h3.944V53.71h-3.944Zm8.048 6.605V37.772h2.918l.481 2.373c.866-1.41 2.245-2.757 4.682-2.757 2.533 0 5.932 1.763 5.932 8.112 0 6.637-3.688 8.593-6.509 8.593-1.539 0-2.726-.513-3.56-1.635v7.856h-3.944Zm6.862-19.976c-1.314 0-2.34.801-2.918 1.474v8.241c.706.738 1.54 1.123 2.63 1.123 1.667 0 3.431-.995 3.431-5.516 0-4.553-1.796-5.322-3.143-5.322Zm8.722.16v-2.726h2.758l.641-4.553 3.11-.449v5.002h5.066v2.726h-5.066v8.273c0 1.763.353 2.469 1.475 2.469 1.443 0 1.668-1.507 1.379-3.015l3.206.45c.513 3.302-1.443 5.418-5.002 5.418-3.334 0-5.002-1.795-5.002-5.002v-8.593h-2.565ZM2.661 50.919v-3.56c0-1.859-.48-3.013-2.661-3.462v-2.565c2.18-.481 2.661-1.508 2.661-3.303V33.86c0-3.142 1.828-5.579 5.932-5.579h1.059v2.726c-2.694 0-3.784 1.122-3.784 3.591v2.886c0 2.18-.641 4.329-2.822 5.098 2.116.802 2.822 2.758 2.822 4.81v2.79c0 2.853 1.09 3.975 3.784 3.975v2.726H8.593c-3.944 0-5.932-2.212-5.932-5.964Zm176.678-3.56.096 3.56c-.096 3.752-2.02 5.964-5.996 5.964h-1.058v-2.726c2.693 0 3.751-1.122 3.751-3.975v-2.79c0-2.052.738-4.008 2.854-4.81-2.181-.77-2.854-2.918-2.854-5.098v-2.886c0-2.469-1.058-3.591-3.751-3.591V28.28h1.058c4.072 0 5.9 2.437 5.9 5.58v4.168c0 1.795.481 2.822 2.661 3.303v2.565c-2.18.449-2.661 1.603-2.661 3.463Z" />
</svg>