<svg fill="none" viewBox="0 0 183 60">
  <path fill="#000" d="M66.863 11.961c0-.187-.136-.306-.323-.306h-.765c-.17 0-.272.051-.374.204l-3.264 5.372-3.332-5.372c-.085-.17-.221-.204-.374-.204h-.782c-.187 0-.323.12-.323.306l-.238 8.211c0 .204.102.306.289.306h1.479c.204 0 .306-.119.306-.306v-4.25l2.159 3.57c.102.153.204.204.374.204h.799c.17 0 .289-.05.374-.204l2.108-3.519.017 4.2c0 .186.119.305.306.305h1.496c.187 0 .306-.102.306-.306l-.238-8.21Zm11.149 8.16-3.689-8.245c-.068-.17-.204-.22-.374-.22h-.935c-.17 0-.289.05-.374.22l-3.706 8.245c-.102.221 0 .357.221.357h1.632a.375.375 0 0 0 .374-.238l.51-1.275h3.604l.51 1.275c.051.153.187.238.357.238h1.632c.238 0 .323-.153.238-.357Zm-5.763-2.635 1.207-3.026 1.224 3.026h-2.431Zm10.633 3.145c2.09 0 3.366-1.037 3.366-2.77 0-1.463-.765-2.262-2.72-2.806-1.411-.408-1.683-.578-1.683-1.003 0-.425.34-.663 1.105-.663a4.31 4.31 0 0 1 2.09.544c.188.102.34.068.443-.102l.646-1.105c.102-.17.085-.323-.102-.425-.8-.51-1.853-.799-2.958-.799-2.04 0-3.417 1.054-3.417 2.635 0 1.394.799 2.142 2.669 2.686 1.445.391 1.768.663 1.768 1.14 0 .526-.425.764-1.207.764a4.387 4.387 0 0 1-2.346-.697c-.187-.102-.34-.068-.425.102l-.697 1.173c-.102.17-.085.323.085.425.935.612 2.04.901 3.383.901Zm12.706-8.976h-7.497c-.204 0-.306.102-.306.306v1.31c0 .203.102.305.306.305h2.618v6.596c0 .187.12.306.306.306h1.598c.204 0 .323-.119.323-.306v-6.596h2.652c.187 0 .306-.102.306-.306v-1.309c0-.204-.119-.306-.306-.306Zm8.427 1.853c.187 0 .306-.119.306-.323v-1.224c0-.204-.119-.306-.306-.306h-5.797c-.204 0-.323.102-.323.306v8.211c0 .187.12.306.323.306h5.797c.187 0 .306-.119.306-.306v-1.24c0-.205-.119-.324-.306-.324h-3.961v-1.7h3.417c.204 0 .323-.119.323-.306V15.43c0-.187-.119-.306-.323-.306h-3.417v-1.615h3.961Zm10.184 6.596-1.785-2.465c1.037-.527 1.649-1.479 1.649-2.686 0-1.955-1.496-3.298-3.791-3.298h-3.094c-.204 0-.323.102-.323.306v8.211c0 .187.119.306.323.306h1.496c.187 0 .306-.119.306-.306v-2.04h1.411l1.496 2.142a.41.41 0 0 0 .374.204h1.734c.255 0 .34-.17.204-.374Zm-5.219-6.664h1.122c1.122 0 1.768.612 1.768 1.496 0 .833-.629 1.394-1.734 1.394h-1.156v-2.89Zm7.889 7.038h1.581c.204 0 .323-.119.323-.306v-8.21c0-.205-.119-.307-.323-.307h-1.581c-.204 0-.306.102-.306.306v8.211c0 .187.102.306.306.306Zm13.201-8.517c0-.204-.119-.306-.323-.306h-1.53c-.204 0-.323.102-.323.306v4.862l-4.862-5.117a.5.5 0 0 0-.374-.153h-.697c-.204 0-.323.102-.323.306v8.313c0 .187.119.306.323.306h1.547c.204 0 .306-.119.306-.306v-4.93l4.896 5.185a.527.527 0 0 0 .374.153h.68c.204 0 .323-.102.323-.306l-.017-8.313Zm10.366 3.893h-1.411c-.204 0-.323.102-.323.306v2.227c-.374.187-.816.255-1.258.255-1.496 0-2.737-1.003-2.737-2.533 0-1.496 1.122-2.55 2.754-2.55.816 0 1.445.238 1.785.425.187.102.323.085.425-.119l.68-1.19c.085-.187.051-.34-.102-.442-.476-.289-1.36-.73-2.873-.73-2.924 0-4.947 1.971-4.947 4.555 0 2.55 2.023 4.573 4.896 4.573 1.785 0 2.89-.68 3.298-1.02.102-.085.119-.187.119-.34v-3.11c0-.205-.102-.307-.306-.307ZM74.215 45.743 66.62 28.768c-.14-.35-.42-.455-.77-.455h-1.925c-.35 0-.595.105-.77.455l-7.63 16.975c-.21.455 0 .735.455.735h3.36c.385 0 .63-.175.77-.49l1.05-2.625h7.42l1.05 2.625c.105.315.385.49.735.49h3.36c.49 0 .665-.315.49-.735ZM62.35 40.318l2.485-6.23 2.52 6.23H62.35Zm20.14 6.475c4.306 0 6.93-2.135 6.93-5.705 0-3.01-1.574-4.655-5.6-5.775-2.904-.84-3.464-1.19-3.464-2.065s.7-1.365 2.275-1.365c1.505 0 2.975.385 4.305 1.12.385.21.7.14.91-.21l1.33-2.275c.21-.35.175-.665-.21-.875-1.645-1.05-3.815-1.645-6.09-1.645-4.2 0-7.035 2.17-7.035 5.425 0 2.87 1.645 4.41 5.495 5.53 2.975.805 3.64 1.365 3.64 2.345 0 1.085-.875 1.575-2.485 1.575-1.68 0-3.325-.49-4.83-1.435-.385-.21-.7-.14-.875.21l-1.435 2.415c-.21.35-.175.665.175.875 1.925 1.26 4.2 1.855 6.965 1.855Zm25.325-18.48h-3.71c-.35 0-.595.14-.77.42L99.8 35.068l-3.5-6.335c-.175-.315-.42-.42-.77-.42h-4.06c-.525 0-.7.35-.455.77l6.3 10.395v6.37c0 .385.245.63.665.63h3.29c.42 0 .665-.245.665-.63v-6.37l6.335-10.395c.245-.42.07-.77-.455-.77Zm20.437.63c0-.42-.245-.63-.665-.63h-3.15c-.42 0-.665.21-.665.63v10.01l-10.01-10.535a1.03 1.03 0 0 0-.77-.315h-1.435c-.42 0-.665.21-.665.63v17.115c0 .385.245.63.665.63h3.185c.42 0 .63-.245.63-.63v-10.15l10.08 10.675c.245.21.455.315.77.315h1.4c.42 0 .665-.21.665-.63l-.035-17.115Zm12.906 17.85c3.15 0 4.97-1.05 5.775-1.61.385-.28.385-.525.245-.875l-1.225-2.415c-.21-.385-.525-.455-.875-.28-.875.525-1.96.945-3.605.945-3.045 0-5.355-2.205-5.355-5.18 0-3.045 2.31-5.145 5.46-5.145 1.54 0 2.695.385 3.57.91.35.21.63.175.84-.21l1.26-2.415c.21-.35.14-.665-.21-.875-1.155-.805-2.94-1.645-5.81-1.645-5.635 0-9.87 4.095-9.87 9.38 0 5.32 4.235 9.415 9.8 9.415Zm17.864 0c4.06 0 6.86-2.45 6.86-6.86v-10.99c0-.42-.245-.63-.63-.63h-3.29c-.385 0-.63.21-.63.63v10.29c0 2.205-1.225 3.115-2.975 3.115-.525 0-1.05-.105-1.575-.28-.385-.14-.665 0-.84.35l-1.19 2.66c-.175.35-.07.7.28.875 1.19.56 2.52.84 3.99.84Zm16.852 0c4.305 0 6.93-2.135 6.93-5.705 0-3.01-1.575-4.655-5.6-5.775-2.905-.84-3.465-1.19-3.465-2.065s.7-1.365 2.275-1.365c1.505 0 2.975.385 4.305 1.12.385.21.7.14.91-.21l1.33-2.275c.21-.35.175-.665-.21-.875-1.645-1.05-3.815-1.645-6.09-1.645-4.2 0-7.035 2.17-7.035 5.425 0 2.87 1.645 4.41 5.495 5.53 2.975.805 3.64 1.365 3.64 2.345 0 1.085-.875 1.575-2.485 1.575-1.68 0-3.325-.49-4.83-1.435-.385-.21-.7-.14-.875.21l-1.435 2.415c-.21.35-.175.665.175.875 1.925 1.26 4.2 1.855 6.965 1.855ZM14.693 24.102A8.34 8.34 0 1 1 2.898 35.898a8.34 8.34 0 0 1 11.795-11.796ZM30.42 8.376A8.34 8.34 0 1 1 18.623 20.17 8.34 8.34 0 0 1 30.42 8.376Z"/>
  <path fill="#FFF069" d="M46.146 24.102a8.34 8.34 0 1 1-11.795 11.796 8.34 8.34 0 0 1 11.795-11.796Z"/>
  <path fill="#000" fill-rule="evenodd" d="M45.086 34.837a6.84 6.84 0 1 0-9.674-9.674 6.84 6.84 0 0 0 9.674 9.674Zm1.06 1.06a8.34 8.34 0 1 0-11.795-11.794 8.34 8.34 0 0 0 11.795 11.795Z" clip-rule="evenodd"/>
  <path fill="#000" d="M30.42 39.83a8.34 8.34 0 1 1-11.796 11.794A8.34 8.34 0 0 1 30.42 39.83Z"/>
</svg>
