<svg fill="none" viewBox="0 0 279 60">
  <path fill="#000" d="m57.429 20 .88-7.15h1.254l2.134 4.917 2.134-4.917h1.243l.572 4.917c.066.572.121.836.418.836.11 0 .187-.044.22-.077l.11.055.242 1.199-.066.121a1.564 1.564 0 0 1-.858.231c-.858 0-1.452-.506-1.562-1.43l-.319-2.563L62.192 20h-.99l-1.683-3.938L59.123 20h-1.694Zm17.88-1.419-.1-.055a.475.475 0 0 1-.241.077c-.198 0-.341-.132-.561-.627l-2.288-5.126h-1.485L67.576 20h1.804l.495-1.254h2.98c.232.506.474.869.749 1.089.253.198.572.297.957.297.374 0 .693-.088.935-.231l.066-.121-.253-1.199Zm-3.938-3.63 1.012 2.607h-2.035l1.023-2.607Zm5.1 3.949v-.154l.792-.946h.121c.429.473 1.155.88 1.903.88.627 0 1.045-.286 1.045-.704 0-.517-.66-.682-1.452-.957-.968-.33-2.156-.803-2.156-2.178s1.199-2.123 2.673-2.123c1.067 0 1.98.385 2.541 1.067v.165l-.792.891h-.143c-.33-.363-.869-.737-1.573-.737-.539 0-.935.231-.935.638 0 .451.506.649 1.067.858 1.166.407 2.53.847 2.53 2.365 0 1.441-1.221 2.167-2.761 2.167-1.155 0-2.189-.407-2.86-1.232Zm10.631-4.642V20h-1.717v-5.742h-2.222V12.85h6.172v1.408h-2.233Zm9.008 0V12.85h-5.202V20h5.203v-1.408h-3.487v-1.507h2.673v-1.342h-2.673v-1.485h3.487Zm7.909 4.323-.11-.055c-.077.033-.176.077-.286.077-.374 0-.572-.407-.781-.858-.132-.242-.264-.484-.418-.616.902-.308 1.485-1.001 1.485-2.002 0-1.408-.957-2.277-2.772-2.277h-3.113V20h1.716v-2.684h.561c.451 0 .847.847 1.078 1.298.462.891.88 1.518 1.925 1.518.374 0 .748-.099.968-.264l.055-.121-.308-1.166Zm-4.28-2.442v-1.881h1.409c.594 0 1.012.374 1.012.957 0 .572-.418.924-1.012.924H99.74Zm6.303-3.289V20h1.716v-7.15h-1.716Zm8.644 0v4.279l-3.432-4.279h-1.232V20h1.716v-4.268L115.159 20h1.243v-7.15h-1.716Zm11.149 3.135-.121-.11h-3.586v1.265h2.013c-.209.891-1.034 1.441-1.991 1.441-1.243 0-2.156-.902-2.156-2.145 0-1.265.924-2.167 2.123-2.167.748 0 1.397.341 1.815.847h.121l1.067-.902v-.121c-.671-.825-1.727-1.375-3.014-1.375-2.178 0-3.872 1.584-3.872 3.707 0 2.123 1.694 3.707 3.883 3.707 2.211 0 3.751-1.617 3.751-3.619 0-.154-.011-.363-.033-.528ZM81.83 26.8c1.144.988 1.508 2.522.91 3.9l-3.796 8.658-3.796-8.866c-.598-1.326-.442-2.808.312-3.692h-8.632c.676.676 1.534 2.028 2.184 3.484l1.742 4.004-2.21 5.07-3.796-8.866c-.598-1.326-.442-2.808.312-3.692h-8.632c.676.676 1.534 2.028 2.184 3.484L65.034 45h1.768l4.342-9.854L75.434 45h1.768l6.266-14.3c.702-1.586 1.846-3.146 2.834-3.9H81.83Zm13.424 12.48c-1.378 0-2.418.988-2.418 2.314 1.274 0 2.158.65 2.158 1.534 0 .702-.468 1.092-1.612 1.092-2.418 0-3.77-1.69-3.822-6.162h8.06c0-3.614-2.86-6.318-6.708-6.318-4.004 0-7.176 2.86-7.176 6.708 0 3.9 3.25 6.812 7.8 6.812 3.432 0 6.006-1.586 6.006-3.692 0-1.222-.884-2.288-2.288-2.288Zm-4.238-7.02c.806 0 1.326 1.82 1.352 5.278H89.56c.026-2.964.52-5.278 1.456-5.278Zm18.392-.52c-1.612 0-3.094.832-3.926 2.054V26.02l-6.525 1.118c.468.546.806 1.638.806 2.73V45h4.861c.364-.442.65-1.118.78-1.82.884 1.248 2.34 2.08 3.952 2.08 3.068 0 5.33-2.912 5.33-6.76s-2.236-6.76-5.278-6.76ZM106.99 43.7c-.598 0-1.118-.52-1.508-1.404v-7.41c.364-.962.962-1.56 1.586-1.56 1.092 0 1.794 2.08 1.794 5.174 0 3.12-.728 5.2-1.872 5.2Zm15.836-16.9V32c.988-2.704 2.938-4.524 4.914-4.68v14.95c0 1.092-.312 2.184-.806 2.73h7.358c-.494-.546-.832-1.638-.832-2.73V27.32c1.976.13 3.952 1.976 4.94 4.68v-5.2h-15.574Z"/>
  <path fill="#000" d="M148.156 32c.832.988 1.274 2.314.806 3.406l-1.586 3.64-1.43-3.354c-.546-1.326-.442-2.808.312-3.692h-8.606c.702.702 1.586 2.184 2.314 3.744l4.446 10.14-1.326 3.016c-.26.624-.806 1.066-1.404 1.066-.416 0-.754-.286-.754-.676 0-.52.546-.884 1.378-.884 0-1.3-.988-2.314-2.34-2.314-1.326 0-2.366 1.014-2.366 2.262 0 1.456 1.352 2.626 3.25 2.626.962 0 2.106-.286 2.938-2.106l5.746-13.156c.624-1.404 1.612-2.886 2.548-3.718h-3.926Zm14.481-.26c-1.612 0-3.094.832-3.926 2.054V31.87l-6.526 1.118c.468.546.806 1.638.806 2.73V47.99c0 1.092-.338 2.184-.806 2.73h7.332c-.494-.546-.806-1.638-.806-2.73v-4.706c.884 1.196 2.314 1.976 3.874 1.976 3.068 0 5.33-2.912 5.33-6.76s-2.236-6.76-5.278-6.76Zm-2.418 11.96c-.598 0-1.118-.52-1.508-1.404v-7.41c.364-.962.962-1.56 1.586-1.56 1.092 0 1.794 2.08 1.794 5.174 0 3.12-.728 5.2-1.872 5.2Zm16.736 1.56c4.212 0 7.358-2.912 7.358-6.76s-3.146-6.76-7.358-6.76-7.358 2.912-7.358 6.76 3.146 6.76 7.358 6.76Zm0-.52c-.988 0-1.534-2.236-1.534-6.24s.546-6.24 1.534-6.24 1.534 2.236 1.534 6.24-.546 6.24-1.534 6.24Zm19.097-12.064c-.312.312-.572.78-.702 1.352-.806-1.352-2.366-2.288-4.082-2.288-3.042 0-5.304 2.912-5.304 6.76s2.288 6.76 5.356 6.76c1.586 0 3.016-.806 3.9-2.028v3.77c0 1.768-1.69 3.146-3.588 3.146-.988 0-1.534-.39-1.534-1.066 0-.754.65-1.196 1.664-1.196 0-1.248-.91-2.184-2.184-2.184-1.3 0-2.262.962-2.262 2.184 0 1.872 2.314 3.094 5.642 3.094 4.628 0 7.982-2.392 7.982-5.59V31.87l-4.888.806ZM193.686 43.7c-1.144 0-1.898-2.08-1.898-5.2 0-3.094.728-5.174 1.82-5.174.65 0 1.248.676 1.612 1.716v7.15c-.39.936-.936 1.508-1.534 1.508Zm18.975-11.96c-1.43 0-2.6.832-3.25 2.21v-2.08l-6.526 1.118c.468.546.806 1.638.806 2.73v6.552c0 1.092-.338 2.184-.806 2.73h7.618c-.65-.546-1.092-1.638-1.092-2.73v-7.046c.468-1.508 1.508-2.574 2.652-2.574.624 0 .962.312.962.884 0 .806-.78 1.326-2.028 1.326 0 1.3 1.014 2.288 2.392 2.288 1.352 0 2.262-.962 2.262-2.444 0-1.742-1.222-2.964-2.99-2.964ZM230.852 45c-.468-.546-.806-1.638-.806-2.73v-5.46c0-2.886-2.834-5.07-7.098-5.07-3.77 0-6.032 1.17-6.032 3.12 0 1.326.988 2.314 2.366 2.314 1.352 0 2.314-1.014 2.314-2.314-.91 0-1.534-.52-1.534-1.222 0-.728.598-1.17 1.664-1.17 1.586 0 2.6 1.014 2.6 2.834v3.328c-.65-.468-1.976-.806-3.354-.806-3.094 0-5.2 1.482-5.2 3.822 0 2.106 1.716 3.614 4.238 3.614 1.846 0 3.484-.78 4.316-1.95.052.702.13 1.326.26 1.69h6.266Zm-7.826-1.482c-.884 0-1.43-.936-1.43-2.288 0-1.534.728-2.444 1.742-2.444.39 0 .754.13.988.39v3.458c-.312.572-.78.884-1.3.884Zm19.338-11.778c-1.612 0-3.094.832-3.926 2.054V31.87l-6.526 1.118c.468.546.806 1.638.806 2.73V47.99c0 1.092-.338 2.184-.806 2.73h7.332c-.494-.546-.806-1.638-.806-2.73v-4.706c.884 1.196 2.314 1.976 3.874 1.976 3.068 0 5.33-2.912 5.33-6.76s-2.236-6.76-5.278-6.76Zm-2.418 11.96c-.598 0-1.118-.52-1.508-1.404v-7.41c.364-.962.962-1.56 1.586-1.56 1.092 0 1.794 2.08 1.794 5.174 0 3.12-.728 5.2-1.872 5.2Zm17.416 1.3h7.358c-.494-.546-.832-1.638-.832-2.73v-6.344c0-2.392-1.82-4.186-4.212-4.186-1.742 0-3.276.832-4.16 2.132V26.02l-6.526 1.118c.468.546.806 1.638.806 2.73V42.27c0 1.092-.338 2.184-.806 2.73h7.332c-.494-.546-.806-1.638-.806-2.73v-7.358c.364-.936 1.04-1.56 1.742-1.56.52 0 .91.546.91 1.274v7.644c0 1.092-.312 2.184-.806 2.73Z"/>
  <path fill="#000" d="M274.444 32c.832.988 1.274 2.314.806 3.406l-1.586 3.64-1.43-3.354c-.546-1.326-.442-2.808.312-3.692h-8.606c.702.702 1.586 2.184 2.314 3.744l4.446 10.14-1.326 3.016c-.26.624-.806 1.066-1.404 1.066-.416 0-.754-.286-.754-.676 0-.52.546-.884 1.378-.884 0-1.3-.988-2.314-2.34-2.314-1.326 0-2.366 1.014-2.366 2.262 0 1.456 1.352 2.626 3.25 2.626.962 0 2.106-.286 2.938-2.106l5.746-13.156c.624-1.404 1.612-2.886 2.548-3.718h-3.926Z"/>
  <path fill="#D3D5FB" d="M0 16C0 10.477 4.477 6 10 6h28c5.523 0 10 4.477 10 10v28c0 5.523-4.477 10-10 10H10C4.477 54 0 49.523 0 44V16Z"/>
  <path fill="#000" fill-rule="evenodd" d="M38 7H10a9 9 0 0 0-9 9v28a9 9 0 0 0 9 9h28a9 9 0 0 0 9-9V16a9 9 0 0 0-9-9ZM10 6C4.477 6 0 10.477 0 16v28c0 5.523 4.477 10 10 10h28c5.523 0 10-4.477 10-10V16c0-5.523-4.477-10-10-10H10Z" clip-rule="evenodd"/>
  <path fill="#000" d="M26.546 23.252V41h-5.304V23.252h-6.868V18.9h19.074v4.352h-6.902Z"/>
  <path fill="#000" fill-opacity=".15" d="M3 19h10v4H3v-4Zm10-6h10v4H13v-4Zm12 0h10v4H25v-4Zm15 12h5v4h-5v-4ZM3 25h5v4H3v-4Zm25 6h5v4h-5v-4Zm-13 0h5v4h-5v-4ZM3 37h5v4H3v-4Zm12 6h8v4h-8v-4ZM3 13h8v4H3v-4Zm34 0h8v4h-8v-4ZM25 43h8v4h-8v-4Zm15 6h8v4h-8v-4ZM0 49h8v4H0v-4ZM0 7h8v4H0V7Zm40 0h8v4h-8V7ZM22 49h4v4h-4v-4Zm0-42h4v4h-4V7Zm18 30h5v4h-5v-4Zm-5-18h10v4H35v-4Zm-7 6h10v4H28v-4Zm7 6h10v4H35v-4Zm-7 6h10v4H28v-4Zm7 6h10v4H35v-4Zm-7 6h10v4H28v-4Zm0-42h10v4H28V7ZM3 43h10v4H3v-4Zm7 6h10v4H10v-4Zm0-42h10v4H10V7Zm0 18h10v4H10v-4Zm-7 6h10v4H3v-4Zm7 6h10v4H10v-4Z"/>
</svg>
