<svg xmlns="http://www.w3.org/2000/svg" version="1.1" xmlns:xlink="http://www.w3.org/1999/xlink" width="37" height="29"><svg width="37" height="29" viewBox="0 0 37 29" fill="none" xmlns="http://www.w3.org/2000/svg">
<path d="M0.396453 28.8C0.132453 27.096 0.000453144 25.548 0.000453144 24.156C0.312453 21.996 0.876453 20.196 1.69245 18.756C2.50845 17.316 3.66045 16.02 5.14845 14.868C6.63645 13.692 8.66445 12.384 11.2325 10.944C12.3605 10.368 13.2725 9.876 13.9685 9.468C14.6645 9.036 15.2405 8.568 15.6965 8.064C16.1765 7.536 16.4645 6.96 16.5605 6.336C16.5605 5.904 16.4525 5.604 16.2365 5.436C16.0205 5.244 15.6725 5.148 15.1925 5.148C14.2805 5.148 12.7205 5.34 10.5125 5.724C8.52045 6.06 6.78045 6.324 5.29245 6.516C3.82845 6.708 2.26845 6.804 0.612453 6.804V2.6226e-06H17.0285C17.7965 2.664 18.1805 4.968 18.1805 6.912C17.8445 8.904 17.2805 10.62 16.4885 12.06C15.7205 13.5 14.5805 14.868 13.0685 16.164C11.5805 17.46 9.57645 18.876 7.05645 20.412C5.90445 21.06 4.98045 21.612 4.28445 22.068C3.58845 22.524 3.00045 23.016 2.52045 23.544C2.06445 24.072 1.78845 24.636 1.69245 25.236C1.69245 25.884 1.98045 26.208 2.55645 26.208C3.25245 26.208 3.98445 26.076 4.75245 25.812C5.52045 25.548 6.70845 25.104 8.31645 24.48C10.5005 23.592 12.3005 22.908 13.7165 22.428C15.1325 21.948 16.5365 21.708 17.9285 21.708V28.8H0.396453ZM21.0475 2.6226e-06H28.5355C28.5355 1.32 28.3435 2.544 27.9595 3.672C27.5755 4.8 26.9755 6.276 26.1595 8.1C25.4875 9.636 24.9475 10.92 24.5395 11.952C24.1315 12.984 23.7835 14.124 23.4955 15.372C23.2075 16.596 23.0635 17.928 23.0635 19.368C23.0635 20.232 23.1235 20.928 23.2435 21.456C23.3875 21.96 23.6515 22.392 24.0355 22.752C24.4435 23.112 25.0435 23.448 25.8355 23.76C26.6515 23.76 27.3595 23.712 27.9595 23.616C28.5595 23.496 29.3035 23.328 30.1915 23.112C31.4395 22.824 32.5195 22.608 33.4315 22.464C34.3675 22.32 35.5195 22.248 36.8875 22.248V28.8H21.0475V2.6226e-06Z" fill="#7B8BFF"></path>
</svg><style>@media (prefers-color-scheme: light) { :root { filter: none; } }
@media (prefers-color-scheme: dark) { :root { filter: none; } }
</style></svg>