<svg viewBox="0 0 538 104">
  <g id="net" fill="currentColor">
    <path
      d="M30.745 35.804l-2.084-.513-.024-.01c-.248-.082-.398-.257-.398-.547l-.002-.02v-9.862c0-8.097-6.644-9.847-10.99-9.847-2.03 0-4.54.52-6.682 1.75l-.533-1.287L2 16.326v3.121l3.56.603c.193.08.317.224.341.446v6.002l.006-.008v8.251c0 .29-.149.466-.398.548a.563.563 0 0 0-.048.018l-1.968.495v3.696h11.38v-3.696l-1.903-.526a.529.529 0 0 1-.367-.536V24.702c0-4.2 3.82-4.2 4.626-4.2h.02c.692 0 1.952.125 2.938.831.798.569 1.416 1.511 1.416 3.07V34.68a.28.28 0 0 0-.007.053c0 .29-.148.465-.397.547l-.004.003-1.882.52v3.695h11.432v-3.696.002zm6.125-11.1c0-4.2 3.796-4.2 4.595-4.2 1.25 0 4.347.4 4.347 3.9v.315l-8.942-.015zm0 5.048h15.586v-4.899c0-8.098-6.644-9.848-10.99-9.848-4.496 0-11.34 2.2-11.34 9.348v6.249C30.126 37.75 37.12 40 41.614 40c5.445 0 8.435-1.686 10.633-2.985v-3.914h-6.086s-1.749 1.65-4.547 1.65c-.799 0-4.745-.3-4.745-4.499v-.5zm24.864 3.25V20.458h6.257v-4.953h-6.257V10l-6.811.724v4.782h-2.278v4.951h2.278V33.1c0 6.548 6.054 6.548 8.123 6.548 2.775 0 5.954-1.5 5.954-1.5V33.65h-3.582s-.606.75-2.171.75c-1.01 0-1.513-.4-1.513-1.4v.002z"
    />
  </g>

  <g id="css-tricks" fill="currentColor">
    <path
      d="M133.95 30.797a1.745 1.745 0 0 0-1.171.446c-1.6 1.365-3.173 2.127-5.494 2.127-4.207 0-7.25-3.524-7.25-7.892v-.035c0-4.34 3.075-7.84 7.25-7.84a7.917 7.917 0 0 1 5.26 1.984c.58.431 1.347.5 1.993.18a1.955 1.955 0 0 0 1.081-1.703 1.957 1.957 0 0 0-.753-1.554c-1.916-1.496-4.144-2.51-7.55-2.51C120.682 14 116 19.177 116 25.494v.063C116 31.937 120.772 37 127.175 37c3.547 0 5.9-1.144 7.972-2.983.397-.354.625-.862.629-1.397a1.848 1.848 0 0 0-1.827-1.823zm14.382-7.082c-4.237-1.034-5.24-1.776-5.24-3.492v-.064c0-1.46 1.319-2.635 3.578-2.635 1.729 0 3.36.572 5.073 1.68.3.19.648.288 1.003.285.48.007.943-.18 1.285-.52.343-.341.536-.806.537-1.292a1.768 1.768 0 0 0-.847-1.554 12 12 0 0 0-6.988-2.06c-4.363 0-7.504 2.636-7.504 6.448v.063c0 4.095 2.638 5.492 7.312 6.636 4.082.951 4.968 1.808 4.968 3.394v.063c0 1.65-1.507 2.794-3.902 2.794a9.466 9.466 0 0 1-6.154-2.285 1.852 1.852 0 0 0-1.904-.157 1.891 1.891 0 0 0-1.046 1.617c0 .59.282 1.144.757 1.488a13.578 13.578 0 0 0 8.257 2.801c4.616 0 7.847-2.478 7.847-6.637v-.063c0-3.685-2.384-5.366-7.032-6.51zm19.464 0c-4.238-1.015-5.24-1.78-5.24-3.492v-.064c0-1.46 1.318-2.635 3.577-2.635 1.725 0 3.36.572 5.073 1.68.301.19.649.288 1.003.285.48.007.943-.18 1.286-.52.342-.341.535-.806.536-1.292a1.768 1.768 0 0 0-.847-1.554 12 12 0 0 0-6.988-2.06c-4.363 0-7.504 2.636-7.504 6.444v.063c0 4.095 2.638 5.492 7.313 6.637 4.081.95 4.96 1.81 4.96 3.397v.063c0 1.65-1.507 2.794-3.903 2.794a9.466 9.466 0 0 1-6.153-2.285 1.852 1.852 0 0 0-1.905-.157 1.891 1.891 0 0 0-1.045 1.617c.002.592.287 1.146.765 1.488a13.577 13.577 0 0 0 8.256 2.793c4.616 0 7.847-2.478 7.847-6.637v-.063c0-3.677-2.384-5.358-7.031-6.502zm17.8 1.27h-5.903a1.88 1.88 0 0 0-1.869 1.89 1.88 1.88 0 0 0 1.87 1.89h5.899a1.88 1.88 0 0 0 1.87-1.89 1.88 1.88 0 0 0-1.87-1.89h.004zm17.81-10.59h-14.613a1.802 1.802 0 0 0-1.708 1.809c0 .967.752 1.764 1.708 1.809h5.338V34.83c0 1.09.873 1.973 1.95 1.973a1.962 1.962 0 0 0 1.952-1.973V18h5.373a1.803 1.803 0 0 0 1.624-1.803c0-.935-.704-1.716-1.624-1.803zm15.163 0h-7.862a1.905 1.905 0 0 0-1.39.567c-.369.372-.571.88-.561 1.405V34.83a1.941 1.941 0 0 0 1.93 1.865 1.941 1.941 0 0 0 1.929-1.865v-5.97h4.866l5.338 6.89a2.198 2.198 0 0 0 1.884 1.017c.484.009.95-.177 1.298-.517.348-.34.547-.805.556-1.294a2.277 2.277 0 0 0-.629-1.491l-4.206-5.367c2.95-.92 4.99-3.081 4.99-6.637v-.063a6.75 6.75 0 0 0-1.818-4.794c-1.412-1.397-3.578-2.21-6.34-2.21h.015zm4.238 7.303c0 2.253-1.76 3.713-4.519 3.713h-5.67v-7.465h5.616c2.856 0 4.553 1.302 4.553 3.681l.02.071zm10.535-7.461a1.897 1.897 0 0 0-1.38.552 1.94 1.94 0 0 0-.57 1.385V34.83a1.941 1.941 0 0 0 1.929 1.865 1.941 1.941 0 0 0 1.93-1.865V16.158a1.936 1.936 0 0 0-.568-1.383 1.893 1.893 0 0 0-1.376-.554l.035.016zm24.454 16.572a1.745 1.745 0 0 0-1.17.446c-1.6 1.365-3.173 2.127-5.494 2.127-4.207 0-7.25-3.524-7.25-7.892v-.047c0-4.34 3.075-7.84 7.25-7.84a7.917 7.917 0 0 1 5.244 2c.58.43 1.348.5 1.994.18a1.955 1.955 0 0 0 1.08-1.703 1.957 1.957 0 0 0-.752-1.555c-1.943-1.51-4.175-2.525-7.562-2.525-6.657 0-11.316 5.177-11.316 11.494v.063c0 6.38 4.772 11.443 11.175 11.443 3.547 0 5.9-1.144 7.972-2.983.4-.358.63-.872.628-1.413a1.848 1.848 0 0 0-1.834-1.807l.035.012zm15.999-6.637l6.844-6.668c.434-.358.687-.894.69-1.46a1.798 1.798 0 0 0-.527-1.312 1.757 1.757 0 0 0-1.306-.511 2.02 2.02 0 0 0-1.6.73l-10.403 10.606v-9.399a1.942 1.942 0 0 0-1.931-1.953 1.942 1.942 0 0 0-1.932 1.953V34.83c0 1.079.865 1.953 1.932 1.953a1.942 1.942 0 0 0 1.931-1.953v-4.605l3.578-3.492 7.063 9.11c.354.568.968.914 1.631.92a1.873 1.873 0 0 0 1.376-.534c.368-.36.575-.854.575-1.372a2.128 2.128 0 0 0-.535-1.396l-7.386-9.289zm20.212-.446c-4.26-1.045-5.263-1.787-5.263-3.503v-.064c0-1.46 1.318-2.635 3.578-2.635 1.724 0 3.36.572 5.072 1.68.301.19.65.288 1.003.285.48.007.943-.18 1.286-.52.342-.341.536-.806.537-1.292a1.768 1.768 0 0 0-.847-1.554 12 12 0 0 0-7-2.06c-4.351 0-7.492 2.636-7.492 6.448v.063c0 4.095 2.637 5.492 7.312 6.636 4.082.951 4.96 1.812 4.96 3.398v.063c0 1.65-1.507 2.794-3.903 2.794a9.466 9.466 0 0 1-6.153-2.285 1.852 1.852 0 0 0-1.904-.157 1.891 1.891 0 0 0-1.046 1.617c.003.59.288 1.143.765 1.484a13.578 13.578 0 0 0 8.24 2.801c4.617 0 7.848-2.478 7.848-6.637v-.063c.016-3.685-2.384-5.366-7.016-6.51l.023.011z"
    />
  </g>

  <g id="smashing-mag" fill="currentColor">
    <path
      d="M397.257 36.805L389.75 4.35a4.904 4.904 0 0 0-5.875-3.667l-5.464 1.26c.63.097 1.252.215 1.867.352l3.06-.705a4.902 4.902 0 0 1 5.873 3.668l2.767 11.988c-1.117 2.274-3.367 6.1-6.757 8.408.81.657 1.507 1.35 2.085 2.077 1.8 2.297 2.7 5.075 2.707 8.333 0 3.172-.87 5.852-2.595 8.042l6.188-1.429a4.885 4.885 0 0 0 3.675-5.872h-.024zm-39.892 9.331l3.882-8.676c3.259 2.588 6.94 3.88 11.038 3.88 4.252 0 6.364-1.516 6.373-4.538 0-1.778-.644-3.233-1.918-4.365-1.281-1.14-3.768-2.475-7.469-4.02-2.2-.915-4.089-1.935-5.689-3.045-4.417 1.222-8.197 4.245-10.647 7.17l-4.149-17.955a4.891 4.891 0 0 1 3.675-5.867l7.121-1.645c.279-.349.585-.684.913-1.002l-9.067 2.091a4.898 4.898 0 0 0-3.675 5.873l7.508 32.456a4.902 4.902 0 0 0 5.872 3.671l3.72-.859c-.096-.024-.197-.045-.29-.07-1.86-.495-4.256-1.523-7.198-3.098z"
    />
    <path
      d="M357.199 14.385c0-2.902.795-5.337 2.383-7.31l-7.122 1.644c-3.33.76-4.312 3.075-3.673 5.869l4.15 17.966c2.449-2.925 6.228-5.944 10.646-7.17-4.246-2.959-6.383-6.619-6.383-10.999h-.001zm26.994-1.088c-2.38-2.036-5.702-3.056-9.947-3.056-3.807 0-5.715 1.514-5.715 4.538 0 1.192.634 2.265 1.88 3.228 1.25.952 3.92 2.25 8.017 3.877 2.8 1.095 5.05 2.348 6.78 3.765 3.392-2.31 5.648-6.135 6.762-8.407L389.203 5.25c-.573-2.47-2.549-4.433-5.868-3.667l-3.055.705a29.893 29.893 0 0 1 7.057 2.538l-3.144 8.471z"
    />
    <path
      d="M516.609 18.684c0-5.495 4.38-9.953 9.78-9.953 3.751 0 7.008 2.15 8.651 5.303l-3.595 1.188c-1.096-1.65-2.952-2.736-5.056-2.736-3.364 0-6.09 2.773-6.09 6.198 0 3.422 2.726 6.197 6.09 6.197 1.87 0 3.543-.855 4.659-2.205l-2.14.358-2.596-2.641 5.586-.93 5.594-.931-.917 5.687-.918 5.682-2.603-2.64.254-1.563c-1.775 1.805-4.23 2.928-6.937 2.928-5.4 0-9.785-4.46-9.785-9.953l.023.011zm-113.063 2.964c-.018 1.197.195 2.228.641 3.098a6.16 6.16 0 0 0 1.793 2.149 7.62 7.62 0 0 0 2.618 1.221c1 .273 2.023.41 3.075.41 1.3 0 2.44-.153 3.42-.46.999-.312 1.827-.736 2.486-1.281a5.408 5.408 0 0 0 1.522-1.984c.338-.76.507-1.588.51-2.473 0-1.09-.231-1.975-.694-2.668a5.436 5.436 0 0 0-1.603-1.683 6.6 6.6 0 0 0-1.895-.9 13.98 13.98 0 0 0-1.47-.407l-2.915-.761c-.731-.2-1.306-.4-1.738-.6-.41-.2-.686-.417-.828-.652-.142-.233-.209-.544-.209-.926 0-.415.09-.76.269-1.033.179-.27.402-.497.67-.68.292-.18.597-.31.94-.381.336-.072.68-.11 1.015-.11.522 0 .992.048 1.417.14a3.33 3.33 0 0 1 1.179.46c.343.22.611.517.805.903.216.38.343.865.38 1.442H419c0-1.123-.208-2.071-.641-2.853a5.376 5.376 0 0 0-1.686-1.957 6.765 6.765 0 0 0-2.454-1.085 11.302 11.302 0 0 0-2.856-.349c-.858 0-1.708.122-2.566.357-.858.235-1.618.6-2.297 1.092a5.843 5.843 0 0 0-1.656 1.851c-.41.729-.612 1.586-.612 2.587 0 .895.157 1.654.485 2.284a4.88 4.88 0 0 0 1.313 1.555 7.262 7.262 0 0 0 1.82 1.032c.677.258 1.372.47 2.08.652.694.205 1.387.387 2.06.546.678.167 1.282.357 1.82.577.536.22.961.493 1.282.82.34.325.507.758.507 1.281 0 .493-.122.903-.373 1.23-.248.31-.56.553-.933.735a4.303 4.303 0 0 1-1.205.38 9.833 9.833 0 0 1-1.2.083 6.98 6.98 0 0 1-1.604-.19 4.55 4.55 0 0 1-1.365-.63 3.164 3.164 0 0 1-.91-1.115c-.232-.455-.35-1.001-.35-1.654h-4.066l-.046-.053zm46.605-8.189l2.404 7.127h-4.945l2.542-7.127h-.001zm-9.269 14.394V8.673h-5.907l-4.278 13.355-4.464-13.352h-5.907v19.413h3.93l.053-13.617 4.678 13.625h3.236l4.73-13.754v13.754h8.065l1.497-4.317h7.138l1.443 4.324h4.358l-7.138-19.413h-4.304l-7.13 19.186v-.024zm17.254-6.205c-.017 1.197.197 2.228.641 3.098a6.186 6.186 0 0 0 1.79 2.149c.769.561 1.641.967 2.622 1.221.998.273 2.023.41 3.073.41 1.302 0 2.443-.153 3.424-.46.997-.312 1.825-.736 2.485-1.281a5.393 5.393 0 0 0 1.524-1.984 6.03 6.03 0 0 0 .507-2.473c0-1.09-.23-1.975-.693-2.668-.446-.706-.981-1.267-1.605-1.683a6.675 6.675 0 0 0-1.899-.9 14.39 14.39 0 0 0-1.469-.407l-2.914-.761c-.73-.2-1.31-.4-1.738-.6-.41-.2-.686-.417-.828-.652-.143-.233-.214-.544-.214-.926 0-.415.09-.76.269-1.033.177-.27.4-.497.667-.68.286-.18.597-.31.936-.381.338-.072.677-.11 1.016-.11.517 0 .99.048 1.417.14.445.088.837.242 1.177.46.337.22.605.517.8.903.215.38.34.865.377 1.442h4.063c0-1.123-.216-2.071-.641-2.853a5.4 5.4 0 0 0-1.685-1.957 6.812 6.812 0 0 0-2.46-1.085 11.363 11.363 0 0 0-2.86-.349 9.65 9.65 0 0 0-2.566.357c-.857.235-1.623.6-2.3 1.092a5.884 5.884 0 0 0-1.657 1.851c-.41.729-.612 1.586-.612 2.587 0 .895.164 1.654.485 2.284a4.977 4.977 0 0 0 1.313 1.555 7.262 7.262 0 0 0 1.82 1.032c.678.258 1.372.47 2.088.652.694.205 1.38.387 2.059.546.678.167 1.283.357 1.82.577.537.22.962.493 1.282.82.336.325.508.758.508 1.281 0 .493-.127.903-.373 1.23-.246.31-.56.553-.933.735a4.278 4.278 0 0 1-1.2.38 9.783 9.783 0 0 1-1.201.083 6.98 6.98 0 0 1-1.604-.19 4.727 4.727 0 0 1-1.365-.63 3.246 3.246 0 0 1-.91-1.115c-.23-.455-.343-1.001-.343-1.654h-4.065l-.028-.053zm16.78 6.44h4.195v-8.375h7.727v8.375h4.195V8.674h-4.196v7.452h-7.727v-7.45h-4.195v19.413zm18.034 0h4.197V8.674h-4.197v19.414zm6.114 0h3.93l.051-12.996 7.942 12.997h4.197V8.675h-3.939l-.052 13.029-7.958-13.029h-4.177v19.413h.006z"
    />
    <path
      fill="#999"
      d="M408.521 33.223l3.757 9.267 3.742-9.267h1.52v10.57h-1.033v-9.134h-.03l-3.712 9.134h-.973l-3.728-9.134h-.03v9.134H407v-10.57h1.521zm18.724 0l4.259 10.57h-1.111l-1.323-3.287h-4.942l-1.308 3.29h-1.096l4.366-10.567h1.155v-.006zm1.476 6.425l-2.1-5.419-2.174 5.419h4.28-.006zm15.515 4.145l-.137-1.925h-.03a3.67 3.67 0 0 1-.677.97c-.27.271-.566.493-.89.666a3.992 3.992 0 0 1-1.043.378c-.37.079-.753.118-1.147.118-.852 0-1.6-.15-2.244-.451a4.641 4.641 0 0 1-1.605-1.207 5.084 5.084 0 0 1-.958-1.747 6.758 6.758 0 0 1-.32-2.088c0-.73.111-1.426.326-2.087a5.15 5.15 0 0 1 .963-1.754 4.63 4.63 0 0 1 1.607-1.215c.644-.3 1.392-.451 2.244-.451.57 0 1.103.074 1.614.222.511.148.963.37 1.356.666.392.295.733.661 1.007 1.09.274.436.466.942.563 1.526h-1.037a2.298 2.298 0 0 0-.311-.928 3.14 3.14 0 0 0-.711-.851 3.691 3.691 0 0 0-1.074-.633 3.826 3.826 0 0 0-1.4-.246c-.718 0-1.34.133-1.851.4-.519.268-.94.62-1.267 1.055-.325.436-.57.936-.733 1.484a6.222 6.222 0 0 0-.237 1.702c0 .57.082 1.132.237 1.694.156.556.4 1.055.733 1.49a3.72 3.72 0 0 0 1.274 1.056c.519.267 1.133.393 1.86.393.599 0 1.132-.098 1.606-.288a3.406 3.406 0 0 0 1.193-.809c.325-.344.57-.759.733-1.23.163-.478.237-.991.23-1.554h-3.696v-.844h4.606v5.372h-.748l-.036.026zm10.282-10.57l4.259 10.57h-1.111l-1.323-3.288H451.4l-1.308 3.288h-1.096l4.362-10.57h1.16zm1.475 6.425l-2.098-5.419-2.175 5.419h4.273zm14.268-6.425v.887l-7.149 8.825h7.302v.858h-8.457v-.888l7.149-8.824h-6.663v-.857h7.818v-.001zm5.765 0v10.57h-1.033v-10.57h1.033zm6.615 0l6.329 8.941h.03v-8.943h1.035v10.57h-1.156l-6.328-8.942h-.03v8.941h-1.034V33.222h1.155zm20.278 0v.858h-6.466v3.82h6.055v.858h-6.054v4.176H503v.858h-7.576v-10.57h7.497-.002z"
    />
    <g fill="#FFF">
      <path
        d="M359.582 7.075l20.698-4.78a26.008 26.008 0 0 0-1.868-.353l-17.917 4.125a10.85 10.85 0 0 0-.913.997v.01zm27.708 20.657c-.574-.729-1.275-1.42-2.081-2.078-2.91 1.98-6.657 2.843-11.243.638-3.624-1.737-7.172-1.795-10.384-.908 1.6 1.114 3.488 2.133 5.69 3.046 3.7 1.54 6.187 2.878 7.468 4.014 1.275 1.133 1.917 2.58 1.917 4.358-.01 3.022-2.12 4.53-6.372 4.53-4.098 0-7.78-1.298-11.038-3.885l-3.882 8.685c2.941 1.576 5.338 2.603 7.198 3.101.093.025.193.047.29.07l22.541-5.2c1.725-2.19 2.595-4.87 2.595-8.043-.007-3.257-.907-6.035-2.707-8.331l.008.003z"
      />
      <path
        d="M357.199 14.385c0 4.379 2.136 8.04 6.384 11 3.211-.888 6.76-.83 10.383.907 4.587 2.205 8.332 1.342 11.242-.638-1.73-1.417-3.98-2.674-6.78-3.769-4.095-1.624-6.766-2.919-8.017-3.878-1.245-.963-1.88-2.035-1.88-3.228 0-3.023 1.908-4.538 5.714-4.538 4.245 0 7.568 1.02 9.947 3.058l3.142-8.466a29.881 29.881 0 0 0-7.057-2.537l-20.7 4.785c-1.59 1.972-2.385 4.41-2.385 7.312l.007-.008z"
      />
    </g>
  </g>

  <g id="marvel" fill="currentColor">
    <path
      d="M59.44 87.41c-25.463-1.95-46.515 4.12-51.223 6.37-2.625 1.2-2.81 2.7-2.432 3.53.34.634 1.592 1.005 2.966.334 10.107-5.4 30.555-9.705 50.698-8.47a.88.88 0 0 0 .87-.887.88.88 0 0 0-.878-.878l-.001.001zm6.308-7.57c-1.067 1.2-2.625 2.1-3.115 1.65-.49-.45 0-1.87 0-1.87C65.135 78.005 70 73.885 70 70.736c0-2.92-2.625-3.82-5.4-1.12a20.186 20.186 0 0 0-4.715 8.54c-1.444 1.42-3.727 3.22-5.775 3.22-1.067 0-1.365-.75-1.216-1.765 1.75-.025 6.606-1.375 6.606-5.434a2.442 2.442 0 0 0-.793-1.778 2.404 2.404 0 0 0-1.832-.622c-2.205 0-5.014 2.25-6.387 5.4-.375-.07-.74-.19-1.085-.354.36-.773.652-1.576.875-2.4.306-1.65-.376-2.7-1.75-2.55-.875.07-1.9.82-2.126 2.55-.092.876.066 1.76.455 2.55-.604 1.87-3.036 4.2-3.876 4.12-.84-.08.115-3.388.955-5.858a5.038 5.038 0 0 0 1.067-1.65c.235-.48.073-1.06-.376-1.35a2.548 2.548 0 0 0-3.194 1.35 14.932 14.932 0 0 0-.875 1.87c-.682.82-1.75 1.87-2.056 1.765-.454-.3 1.068-2.32.876-3.45a1.754 1.754 0 0 0-1.9-1.5c-1.373.193-3.193 2.787-3.193 2.787.214-.473.34-.98.376-1.5-.08-.97-1.9-1.42-2.81.37a28.493 28.493 0 0 0-1.365 5.295c-.376.82-1.9 3.22-3.115 3.3-.99.07.227-4.27.376-4.5.534-.82 1.216-2.55 1.067-3.3a1.135 1.135 0 0 0-.436-.935 1.113 1.113 0 0 0-1.008-.187 2.338 2.338 0 0 0-1.445 1.12 1.874 1.874 0 0 0-1.82-.67c-4.042.432-6.606 7.402-6.317 10.71.227 1.766 1.067 2.85 2.625 2.648 1.75-.22 3.194-2.77 3.194-2.77s.376 2.1 2.284 1.87a7.218 7.218 0 0 0 3.57-2.47 1.35 1.35 0 0 0-.078.37c-.306 1.766 2.625 1.57 2.887.222.874-6.67 3.114-9.44 3.796-9.44.534 0-1.444 3.15-.306 4.35.875 1.05 2.432.22 3.727-.882a10.883 10.883 0 0 0-.376 2.55c-.078 1.87.605 3.37 2.433 3.3 2.432-.07 5.014-3.07 6.685-5.92.44.29.93.493 1.444.6a6.39 6.39 0 0 0-.192 2.047c.15 2.17 1.67 3 3.42 2.92 2.057-.07 4.48-1.65 6.126-3.07a.275.275 0 0 1-.08.22c-.148 1.05.08 3 1.593 3.07 1.75.15 4.785-1.65 6.308-3.528 1.094-.812-.192-2.012-1.102-1.04v.034l.002-.001zm1.627-9.026c.185.02.32.183.306.37 0 1.87-4.715 5.85-4.715 5.85s3.08-6.22 4.41-6.22h-.001zM56 74.704a.504.504 0 0 1 .534.601c0 1.05-1.444 1.87-3.036 1.87.85-1.235 1.837-2.47 2.502-2.47v-.001zm-31.5 2.93c-.148 1.12-2.125 6.176-3.193 6.176-1.365.07.682-7.12 2.887-7.058.43-.018.43.282.306.882zm-17.12 1.35c1.295 0-1.067 6.67-.76 9.59.305 2.92 3.57 2.1 3.34.37-.375-2.85 1.593-11.918 3.57-11.918 1.445 0-1.59 6.22-.988 10.12.376 2.55 3.876 1.765 3.5.15-1.067-5.09 2.51-10.04 2.047-13.63-.227-1.5-1.067-2.32-2.056-2.32-3.27 0-5.93 6.59-5.93 6.59s.314-3.758-2.346-3.9c-3.876-.23-7.83 9.37-7.752 18.06.08 2.77 3.57 2.32 3.342.07-.227-3.872 2.056-13.18 4.034-13.18l-.001-.002z"
    />
  </g>

  <g id="codementor" fill="currentColor">
    <path
      d="M104 86.007c-.006-1.3.225-2.588.681-3.801a9.251 9.251 0 0 1 5.142-5.387 10.855 10.855 0 0 1 4.307-.813 10.129 10.129 0 0 1 5.515 1.415A9.018 9.018 0 0 1 123 81.118l-5.63 1.73a3.61 3.61 0 0 0-3.279-1.835 3.822 3.822 0 0 0-3.008 1.31 5.309 5.309 0 0 0-1.208 3.645c-.009.703.1 1.404.321 2.07.195.588.5 1.131.9 1.6.375.437.834.79 1.35 1.035.515.245 1.077.37 1.645.367a3.8 3.8 0 0 0 1.98-.537 3.38 3.38 0 0 0 1.286-1.377l5.63 1.77a8.588 8.588 0 0 1-3.33 3.67 10.293 10.293 0 0 1-5.566 1.429 10.566 10.566 0 0 1-4.268-.826 9.788 9.788 0 0 1-3.2-2.202 9.377 9.377 0 0 1-1.942-3.198 10.668 10.668 0 0 1-.68-3.762zM135.499 95.999a11.66 11.66 0 0 1-4.464-.812 9.74 9.74 0 0 1-3.305-2.185 9.139 9.139 0 0 1-2.04-3.194 10.77 10.77 0 0 1 0-7.59 9.139 9.139 0 0 1 2.04-3.193 9.979 9.979 0 0 1 3.305-2.199 11.415 11.415 0 0 1 4.464-.824c1.525-.028 3.04.252 4.45.824a10.005 10.005 0 0 1 3.292 2.199 9.414 9.414 0 0 1 2.053 3.193c.472 1.211.712 2.498.706 3.795a10.611 10.611 0 0 1-.693 3.795 9.139 9.139 0 0 1-2.039 3.194 9.713 9.713 0 0 1-3.305 2.185c-1.418.56-2.936.835-4.464.812zm-4.371-9.986a5.264 5.264 0 0 0 1.24 3.717 4.033 4.033 0 0 0 3.13 1.309 4.06 4.06 0 0 0 1.72-.367 4.12 4.12 0 0 0 1.333-1.034c.405-.47.717-1.012.92-1.596.228-.657.34-1.348.332-2.042a5.265 5.265 0 0 0-1.24-3.651 4.03 4.03 0 0 0-3.104-1.374 4.029 4.029 0 0 0-3.118 1.4 4.911 4.911 0 0 0-.92 1.597 5.997 5.997 0 0 0-.293 2.041zM156.2 96a8.764 8.764 0 0 1-3.693-.768 8.587 8.587 0 0 1-2.912-2.169c-.83-.96-1.477-2.07-1.906-3.272a11.805 11.805 0 0 1-.689-4.04 12.642 12.642 0 0 1 .636-4.04 9.944 9.944 0 0 1 1.734-3.327 8.494 8.494 0 0 1 2.726-2.169 7.62 7.62 0 0 1 3.469-.794 7.092 7.092 0 0 1 3.693.983 6.684 6.684 0 0 1 2.541 2.693V68h5.943v20.821c-.04.441.058.884.278 1.266.253.277.609.434.98.431v5.104c-.467.111-.94.192-1.416.243h-1.112a4.389 4.389 0 0 1-2.528-.66 2.553 2.553 0 0 1-1.112-1.913l-.106-1.023a6.668 6.668 0 0 1-2.807 2.693A8.125 8.125 0 0 1 156.2 96zm1.602-5.105a4.263 4.263 0 0 0 2.356-.74 4.718 4.718 0 0 0 1.72-2.02v-4.149a5.383 5.383 0 0 0-1.8-2.518 4.166 4.166 0 0 0-2.58-.957 3.655 3.655 0 0 0-1.761.431 4.73 4.73 0 0 0-1.39 1.159 5.089 5.089 0 0 0-.914 1.656 6.239 6.239 0 0 0-.317 2.007 5.744 5.744 0 0 0 .357 2.034c.216.601.544 1.154.966 1.63.413.459.919.822 1.483 1.063a4.644 4.644 0 0 0 1.88.404zM180.553 95.995a11.761 11.761 0 0 1-4.423-.785 9.85 9.85 0 0 1-3.318-2.148 9.15 9.15 0 0 1-2.079-3.142 9.967 9.967 0 0 1-.733-3.732 10.93 10.93 0 0 1 .706-3.928 9.573 9.573 0 0 1 2.052-3.247 9.604 9.604 0 0 1 3.305-2.2 11.625 11.625 0 0 1 4.464-.811 11.49 11.49 0 0 1 4.45.812A9.764 9.764 0 0 1 188.268 79a9.237 9.237 0 0 1 2.039 3.169 10.48 10.48 0 0 1 .693 3.784v1.008c-.018.29-.053.578-.107.864H176.37a3.902 3.902 0 0 0 1.44 2.959 4.635 4.635 0 0 0 2.93 1.008 5.405 5.405 0 0 0 2.586-.641 3.206 3.206 0 0 0 1.626-1.69l5.036 1.389a9.051 9.051 0 0 1-3.597 3.718 11.282 11.282 0 0 1-5.837 1.427zm4.144-11.784a4.378 4.378 0 0 0-1.332-2.906 4.038 4.038 0 0 0-2.878-1.061 4.037 4.037 0 0 0-2.892 1.087 4.457 4.457 0 0 0-1.332 2.88h8.434zM225 95h-5.982V84.493a4.129 4.129 0 0 0-.706-2.694 2.293 2.293 0 0 0-1.825-.838c-.418.006-.83.092-1.212.254a4.117 4.117 0 0 0-1.132.699 5.715 5.715 0 0 0-.96 1.054 5.628 5.628 0 0 0-.692 1.27v10.724h-5.982v-10.47a4.129 4.129 0 0 0-.706-2.693 2.293 2.293 0 0 0-1.825-.838 3.717 3.717 0 0 0-2.331.915 5.186 5.186 0 0 0-1.665 2.4V95H194V76.298h5.329v3.138a7.017 7.017 0 0 1 2.93-2.54 9.86 9.86 0 0 1 4.317-.89c.726-.015 1.45.08 2.145.28.572.173 1.108.44 1.585.787.432.318.798.71 1.079 1.156.273.439.475.914.6 1.41a7.567 7.567 0 0 1 2.944-2.693 9.003 9.003 0 0 1 4.183-.94 5.984 5.984 0 0 1 3.01.66 4.882 4.882 0 0 1 1.772 1.716c.428.71.712 1.49.84 2.3.137.802.208 1.613.213 2.426L225 95zM236.527 95.996a11.76 11.76 0 0 1-4.424-.785 9.85 9.85 0 0 1-3.318-2.148 9.152 9.152 0 0 1-2.079-3.142 9.967 9.967 0 0 1-.706-3.732c-.008-1.34.232-2.671.706-3.928a9.574 9.574 0 0 1 2.052-3.248 9.604 9.604 0 0 1 3.305-2.2 11.624 11.624 0 0 1 4.464-.811c1.524-.027 3.037.25 4.45.812A9.764 9.764 0 0 1 244.268 79a9.238 9.238 0 0 1 2.039 3.17c.463 1.209.698 2.491.693 3.783v1.009a6.98 6.98 0 0 1-.107.864h-14.55a3.902 3.902 0 0 0 1.425 2.933 4.635 4.635 0 0 0 2.932 1.008 5.404 5.404 0 0 0 2.518-.628 3.206 3.206 0 0 0 1.626-1.69l5.077 1.401a9.052 9.052 0 0 1-3.585 3.706 11.28 11.28 0 0 1-5.81 1.44zm4.144-11.784a4.379 4.379 0 0 0-1.333-2.907 4.038 4.038 0 0 0-2.878-1.06 4.037 4.037 0 0 0-2.891 1.086 4.457 4.457 0 0 0-1.333 2.88h8.435zM266.947 96h-5.995V84.963c.084-1-.175-1.997-.735-2.83a2.39 2.39 0 0 0-1.923-.88 3.34 3.34 0 0 0-1.335.267 5.221 5.221 0 0 0-1.228.734 5.646 5.646 0 0 0-1.068 1.107 5.258 5.258 0 0 0-.735 1.335V95.96H248V76.355h5.34v3.296a7.156 7.156 0 0 1 3.072-2.669c1.43-.661 2.991-.99 4.566-.96a5.957 5.957 0 0 1 3.178.613 4.98 4.98 0 0 1 1.803 1.802c.426.746.712 1.565.84 2.415.133.844.2 1.696.201 2.55L266.947 96zM285 94.586c-.988.38-2.002.703-3.034.965a13.515 13.515 0 0 1-3.435.449 8.922 8.922 0 0 1-2.262-.278 5.215 5.215 0 0 1-1.86-.885 4.165 4.165 0 0 1-1.26-1.612 5.687 5.687 0 0 1-.458-2.404v-10.16H270v-4.478h2.69V70h6.427v6.183h4.294v4.479h-4.294v8.111c-.076.48.09.965.45 1.317.359.353.874.535 1.397.493a5.266 5.266 0 0 0 1.431-.224 9.712 9.712 0 0 0 1.331-.476L285 94.586z"
    />
    <path
      d="M293.499 95.999a11.66 11.66 0 0 1-4.464-.812 9.74 9.74 0 0 1-3.305-2.185 9.139 9.139 0 0 1-2.04-3.194 10.77 10.77 0 0 1 0-7.59 9.139 9.139 0 0 1 2.04-3.193 9.979 9.979 0 0 1 3.305-2.199 11.415 11.415 0 0 1 4.464-.824c1.525-.028 3.04.252 4.45.824a10.005 10.005 0 0 1 3.292 2.199 9.414 9.414 0 0 1 2.053 3.193c.471 1.212.71 2.498.706 3.795a10.611 10.611 0 0 1-.693 3.795 9.139 9.139 0 0 1-2.039 3.194 9.727 9.727 0 0 1-3.305 2.185c-1.418.56-2.936.835-4.464.812zm-4.371-9.986a5.265 5.265 0 0 0 1.24 3.652 4.03 4.03 0 0 0 3.13 1.374 4.06 4.06 0 0 0 1.72-.367 4.12 4.12 0 0 0 1.333-1.034c.405-.47.717-1.012.92-1.596a5.96 5.96 0 0 0 .332-2.042 5.265 5.265 0 0 0-1.24-3.651 4.03 4.03 0 0 0-3.104-1.374 4.029 4.029 0 0 0-3.118 1.4 4.911 4.911 0 0 0-.92 1.597 5.997 5.997 0 0 0-.293 2.041zM319 81.148c-1.29.005-2.568.233-3.777.676a4.606 4.606 0 0 0-2.454 1.924V95H307V76.255h5.293v3.823a7.968 7.968 0 0 1 2.506-2.97A5.8 5.8 0 0 1 318.062 76H319v5.148z"
    />
  </g>
  <g id="sitepoint" fill="currentColor">
    <path
      d="M398.203 89.49c.296.49.68.858 1.154 1.149.473.276 1.006.49 1.613.598a9.13 9.13 0 0 0 1.849.183c.488 0 1.006-.03 1.539-.107a5.663 5.663 0 0 0 1.494-.398c.444-.2.814-.49 1.11-.874.295-.368.443-.858.443-1.44 0-.813-.31-1.426-.917-1.84-.607-.43-1.376-.766-2.293-1.012-.917-.26-1.909-.49-2.989-.705a15.608 15.608 0 0 1-2.988-.889 5.968 5.968 0 0 1-2.294-1.594c-.606-.69-.917-1.64-.917-2.866 0-.966.207-1.778.636-2.468.43-.69.992-1.241 1.657-1.67a7.695 7.695 0 0 1 2.279-.966c.843-.2 1.672-.306 2.515-.306 1.065 0 2.056.092 2.959.275a6.97 6.97 0 0 1 2.412.95c.695.46 1.242 1.074 1.671 1.84.415.782.651 1.732.725 2.897h-3.121c-.045-.613-.208-1.134-.474-1.533a3.346 3.346 0 0 0-1.02-.98 4.526 4.526 0 0 0-1.377-.522 6.368 6.368 0 0 0-1.524-.169c-.473 0-.932.031-1.42.108a4.98 4.98 0 0 0-1.302.383c-.384.184-.71.43-.947.736-.251.306-.37.705-.37 1.195 0 .537.193.996.577 1.349.37.353.859.644 1.45.874.577.245 1.243.444 1.968.597.74.154 1.48.322 2.205.49.784.185 1.553.384 2.293.63.74.245 1.405.566 1.982.98a4.634 4.634 0 0 1 1.391 1.518c.355.613.533 1.38.533 2.283 0 1.165-.237 2.116-.71 2.867a5.675 5.675 0 0 1-1.88 1.854 7.83 7.83 0 0 1-2.603.966c-.962.184-1.924.276-2.87.276-1.051 0-2.057-.108-3.019-.322-.947-.23-1.79-.583-2.53-1.088a5.64 5.64 0 0 1-1.76-1.993c-.43-.828-.68-1.824-.725-3.004h3.107c.03.69.192 1.272.488 1.747zm16.141-14.76h3.107v19.02h-3.107V74.73zm16.068 0v2.758h-3.788V89.29c0 .368.03.659.089.889.059.215.177.398.355.521.177.123.414.2.71.23.31.03.71.061 1.198.061h1.436v2.76h-2.397c-.8 0-1.495-.062-2.072-.17-.577-.107-1.035-.306-1.39-.612-.355-.292-.622-.706-.784-1.242-.178-.536-.267-1.257-.267-2.146V77.488h-3.225v-2.759h3.225v-5.717h3.122v5.717h3.788zm16.866 17.794c-1.42 1.088-3.21 1.625-5.356 1.625-1.509 0-2.826-.246-3.935-.736a7.755 7.755 0 0 1-2.811-2.054 8.758 8.758 0 0 1-1.702-3.173c-.385-1.226-.592-2.56-.65-4 0-1.456.221-2.774.665-3.985.444-1.196 1.05-2.238 1.85-3.127a8.498 8.498 0 0 1 2.825-2.054c1.132-.499 2.35-.75 3.58-.735 1.687 0 3.078.337 4.202 1.042a8.556 8.556 0 0 1 2.678 2.667 11.068 11.068 0 0 1 1.39 3.54c.252 1.273.356 2.483.312 3.633h-14.204c-.014.843.074 1.625.296 2.376.222.75.577 1.41 1.066 1.992.488.583 1.11 1.042 1.879 1.38.754.337 1.642.505 2.663.505 1.331 0 2.411-.29 3.255-.92.843-.597 1.405-1.532 1.671-2.789h3.078c-.415 2.13-1.332 3.74-2.752 4.813zm-.755-12.216a5.142 5.142 0 0 0-1.139-1.701 5.557 5.557 0 0 0-1.687-1.15c-.636-.276-1.36-.414-2.145-.414-.799 0-1.538.138-2.175.414a5.111 5.111 0 0 0-1.671 1.165 5.512 5.512 0 0 0-1.095 1.717c-.281.644-.43 1.333-.489 2.069h10.904a6.797 6.797 0 0 0-.503-2.1zm10.253-5.579v2.575h.074c.518-1.058 1.317-1.824 2.427-2.299 1.094-.49 2.308-.72 3.624-.72 1.48 0 2.752.26 3.832.812a7.734 7.734 0 0 1 2.723 2.176c.724.92 1.257 1.993 1.627 3.188.37 1.211.547 2.483.547 3.832a13.34 13.34 0 0 1-.532 3.817c-.355 1.21-.888 2.253-1.613 3.157-.71.89-1.627 1.594-2.707 2.115-1.095.506-2.353.767-3.803.767-.458 0-.976-.046-1.553-.138a8.595 8.595 0 0 1-1.702-.49 6.42 6.42 0 0 1-1.597-.905 4.775 4.775 0 0 1-1.273-1.41h-.074V101h-3.122V74.73h3.122zm11.215 6.744a7.373 7.373 0 0 0-1.065-2.268 5.33 5.33 0 0 0-1.835-1.58c-.755-.382-1.627-.582-2.633-.582-1.05 0-1.939.2-2.678.629a5.47 5.47 0 0 0-1.79 1.625 7.247 7.247 0 0 0-1.007 2.299 11.23 11.23 0 0 0-.31 2.62c0 .936.103 1.84.325 2.698.222.874.562 1.64 1.05 2.3.474.674 1.095 1.195 1.85 1.609.755.398 1.672.597 2.752.597 1.08 0 1.968-.199 2.693-.613a4.975 4.975 0 0 0 1.745-1.655c.444-.69.755-1.471.947-2.36.207-.89.296-1.794.296-2.729 0-.873-.118-1.747-.34-2.59zm6.865-1.134a9.237 9.237 0 0 1 1.76-3.173c.784-.889 1.76-1.594 2.915-2.115 1.14-.506 2.456-.766 3.95-.766 1.524 0 2.84.26 3.98.766a8.513 8.513 0 0 1 2.885 2.115c.784.904 1.361 1.947 1.76 3.173a12.84 12.84 0 0 1 .592 3.908c0 1.41-.207 2.698-.591 3.909-.4 1.195-.977 2.253-1.76 3.142-.785.904-1.747 1.594-2.886 2.1-1.14.505-2.456.75-3.98.75-1.494 0-2.81-.245-3.95-.75-1.154-.506-2.13-1.196-2.915-2.1-.769-.89-1.36-1.947-1.76-3.142-.385-1.211-.577-2.499-.577-3.909 0-1.394.192-2.697.577-3.908zm3.18 6.99c.311.888.726 1.64 1.273 2.237a5.45 5.45 0 0 0 1.879 1.38c.725.318 1.505.48 2.293.474a5.551 5.551 0 0 0 4.187-1.854c.533-.598.962-1.349 1.258-2.238.31-.904.458-1.916.458-3.08 0-1.15-.148-2.177-.458-3.066a6.637 6.637 0 0 0-1.258-2.269 5.49 5.49 0 0 0-4.187-1.87c-.799 0-1.568.154-2.293.476a5.303 5.303 0 0 0-1.879 1.394c-.547.614-.962 1.38-1.272 2.269-.311.889-.459 1.916-.459 3.065 0 1.165.148 2.177.459 3.081zm18.51-12.6h3.12V93.75h-3.12V74.73zm10.888 0v3.004h.074c1.302-2.299 3.359-3.448 6.17-3.448 1.243 0 2.278.168 3.107.505.843.353 1.509.828 2.027 1.441.517.613.873 1.349 1.08 2.192.207.843.31 1.778.31 2.805V93.75h-3.121V80.86c0-1.165-.34-2.1-1.021-2.79-.68-.69-1.628-1.027-2.826-1.027-.962 0-1.775.138-2.486.445a4.547 4.547 0 0 0-1.73 1.241c-.474.537-.814 1.18-1.051 1.901-.237.72-.34 1.517-.34 2.376V93.75h-3.122V74.73h2.93zm25.566 0v2.759h-3.773V89.29c0 .368.03.659.089.889.06.215.178.398.355.521.163.123.4.2.71.23.311.03.71.061 1.184.061H533v2.76h-2.382c-.799 0-1.494-.062-2.071-.17-.577-.107-1.036-.306-1.391-.612-.355-.292-.621-.706-.784-1.242-.178-.536-.266-1.257-.266-2.146V77.488h-3.226v-2.759h3.226v-5.717h3.121v5.717H533zm-180.203 7.28l2.885 2.897 9.084 8.798 3.92-3.924a1.378 1.378 0 0 0-.073-1.686l-3.58-3.249h.014l-3.861-3.878a1.384 1.384 0 0 1 .044-1.839l10.372-10.392L366.897 64l-14.085 14.086c-1.08 1.088-1.08 2.85-.015 3.924z"
    />
    <path
      d="M383.81 86l-2.871-2.878-9.102-8.785-3.922 3.903c-.355.52-.325 1.209.074 1.699l3.582 3.245 3.848 3.872a1.381 1.381 0 0 1-.03 1.837L365 99.27l4.721 4.73 11.203-11.189 2.886-2.893c1.08-1.071 1.08-2.831 0-3.918m33.965-16.179c0 1.01-.814 1.822-1.82 1.822a1.818 1.818 0 0 1-1.821-1.822c0-.994.814-1.821 1.82-1.821 1.007 0 1.82.827 1.82 1.821m82.226 0c0 1.01-.814 1.822-1.82 1.822a1.818 1.818 0 0 1-1.82-1.822c0-.994.813-1.821 1.82-1.821 1.006 0 1.82.827 1.82 1.821"
    />
  </g>
</svg>
