<svg class="is-invisible" aria-hidden="true">
  <symbol id="a-list-apart" viewBox="0 0 80 80">
    <title>A List Apart</title>
    <path d="M66.8 37.673c.54-.423 3.56.044 5.853-1.39 2.287-1.436 5.09-4.82 5.84-6.226.757-1.407.764-2.31.97-4l.46-3.48s-2.496.39-4.236.826c-1.737.437-2.97 1.22-3.994 2.077-1.026.853-.786.12-2.05 1.337-1.27 1.216-2.513 3.32-3.13 5.343-.626 2.027-.256 4.68-.383 5.147-.083.313-.533.786-.827 1.073l.3-4.003c.127-1.897.077-3.957.007-5.174l-.157-1.313c.404-.4 1.694-1.667 2.347-2.193.79-.63 3.107-.514 4.92-1.874 1.733-1.296 4.487-4.986 3.99-8.303-.493-3.317-2.097-5.59-2.097-5.59s-3.36.8-5.363 2.437c-1.997 1.636-4.25 5.28-3.9 7.956.357 2.674 2.003 3.757 1.96 4.63-.04.75-1.543 1.8-1.987 2.09-.066-.48-.116-.903-.083-1.206.11-1.07-.567-2.934-.567-2.934s-.71-1.59-.816-2.09c-.107-.496.253-1.623.61-2.71.356-1.093-.17-3.27-.064-4.533.107-1.26-.353-3.597-.426-4.177-.064-.573-.887-2.556-1.19-3.026l-.82-1.507c-.397-.62-1.03-.943-1.53-1.397a13.779 13.779 0 0 1-1.42-1.473c-.35-.437-1.224-.697-1.634-.853C56.963.973 56.27 0 56.27 0s-.037 1.117-.187 1.647c-.156.53-.593.843-.826 2.09-.227 1.25-.45 2.3-.477 3.393-.033 1.09.273 3.393.787 4.53.52 1.137 1.25 2.533 2.546 4.327 1.29 1.793 4.774 4.386 5.147 4.903l.903 2.65s.387 1.743.447 3.847l-.167.046c-.32.064-1.126-.536-1.543-.966-.417-.434-.3-.997-.713-2.124-.414-1.133-1.72-3.87-3.324-5.646-1.606-1.78-3.683-2.384-5.6-2.624-1.916-.24-5.456 1.177-5.456 1.177s.35 2.407 1.116 4.46c.77 2.05 4.627 4.4 6.534 5.117 1.903.713 6.523.126 6.953.196l1.687.967.513-.077c-.003 1.764.43 2.327.287 3.71-.144 1.384.096 2.807-.194 3.82l-.59 1.647-.526-.317c-.227-.266-.594-1.163-1.034-2.663-.446-1.503-2.656-3.967-4.06-5.25-1.393-1.283-5.533-2.233-6.576-1.89l-3.437.06s.637 2.673 1.087 3.823c.443 1.15.176 1.694.68 2.694.496.993.78 1.403 2.32 2.723 1.543 1.327 3.743 1.82 5.51 1.693 1.773-.13 4.73-.643 5.296-.56.574.08.74.344.74.344.214.433.29 1.31.234 2.2-.067.946-.214 3.353-.644 5.223-.436 1.867-.97 4.677-1.353 5.043l-.757.64-.446-.48c-.35-.596-.07-1.903-.607-4.596-.537-2.69-3.74-5.807-6.027-6.954-2.286-1.14-6.83-1.203-6.83-1.203s.39 2.57.677 3.267c.293.703.047 1.213.697 3.156.66 1.947 2.76 3.797 5.123 5.254 2.363 1.46 6.217 1.103 6.553 1.456l.714.784c-.107.59-.26 1.396-.527 1.83-.41.67-1.327 3.56-2.86 5.55a51.958 51.958 0 0 0-1.637 2.226c-.18-.173-1.086-1.03-1.393-1.496-.347-.52.773-2.644.567-5.287-.21-2.65-1.62-3.937-3.47-5.537l-5.97-1.446s-.377 1.636-.484 3.666c-.103 2.024 1.23 4.387 2.99 6.01 1.767 1.62 4.794 1.584 5.74 2.73.47.567 1.704 1.794 1.72 1.81l-.246.384s-.61 1.166-1.43 2.02c-.597.623-2.784 2.583-4.71 4-.197-.327-.477-.834-.587-1.194-.183-.573.803-1.236.607-5.096-.177-3.407-4.1-5.554-5.17-6.277-1.06-.723-2.554-1.87-2.554-1.87s-2.626 4.64.144 9.357c1.53 2.62 6.23 3.666 6.466 4.093l.59 1.347c-.533.373-1.04.693-1.463.906L43.9 71.39c-1.597.743-1.963.387-4.533 1.993-2.577 1.6-6.114 4.38-6.464 4.834 0 0 .45 1.376.664 1.64.216.266.43.126.593-.01.17-.14-.067-.72.357-1.077.43-.357 3.593-3.153 4.62-3.853 1.033-.707 2.64-1.617 3.866-2.077.79-.3 2.424-1.04 3.69-1.677l.387.204c.257.026 1.643-.05 2.063.41.417.46 1.967 3.423 2.987 4.026 1.023.607 2.95 2.067 5.067 1.464 2.11-.607 3.46-.52 4.446-1.234.984-.706 1.49-1.993 1.49-1.993s-.493-.553-.786-1.2c-.294-.647-1.947-2.707-3.1-3.283-1.16-.577-4.08-1.484-5.757-.844-1.68.65-3.28 2.12-3.87 2.377-.597.253-2.01-.093-2.237-.227l.884-.553c.766-.527 4.77-3.62 5.773-4.55.553-.507 1.303-1.337 2.037-2.227.436.06 1.256.177 1.463.294.277.166 2.43 2.296 3.763 2.823 1.334.52 4.504 1.91 6.634.733 2.136-1.18 3.613-3.343 3.613-3.343s-.587-1.363-1.51-2.05c-.923-.687-3.723-1.8-4.903-1.79-1.187.01-2.567.003-3.79.487-1.227.486-3.3 2.276-3.57 2.43-.214.12-.857-.19-1.11-.327l1.03-1.413c.963-1.464 2.226-3.304 2.58-3.604l.263-.533 1.797-.31 3.04 1.26c1.203.25 2.18-.017 3.34.017 1.16.023 2.633.873 5.306.25 2.664-.627 5.297-3.374 5.297-3.374s-.447-.116-.763-.476c-.327-.36-.58-.72-1.127-1.524-.547-.806-1.38-1.35-3.127-2.38-1.733-1.026-4.413-.15-5.116.11-.697.26-1.86.307-3.21 1.257-1.354.953-2.964 3.797-3.59 4.2-.57.36-1.48.18-1.637.14.103-.427.22-.88.397-1.243.396-.82 1.953-4.54 2.453-5.824.553-.316 1.733-1.006 2.03-1.226.403-.294.867-.327 2.16.07 1.293.393 4.28.63 6.19-.344 1.9-.973 4.473-4.213 5.06-5.743.607-1.543.96-4.1.96-4.1s-1.3.04-1.917.007c-.626-.034-2.186-.457-4.22-.204-2.026.25-4.55 1.08-6.146 3.094-1.597 2.016-1.727 6.036-2.26 6.616-.38.417-1.147.764-1.557.934.373-1.507.997-4.897 1.107-6.34l.226-2.927c.407-.413 1.18-1.197 1.567-1.507zm-53.6 0c-.54-.423-3.56.044-5.853-1.39-2.287-1.436-5.09-4.82-5.84-6.226-.757-1.407-.764-2.31-.97-4l-.46-3.484s2.496.39 4.24.827c1.736.437 2.97 1.22 3.993 2.077 1.027.853.787.12 2.057 1.336 1.263 1.217 2.506 3.32 3.126 5.34.627 2.027.257 4.68.384 5.147.083.313.533.787.826 1.073l-.3-4.003c-.126-1.897-.076-3.953-.006-5.17l.156-1.313c-.403-.4-1.693-1.667-2.346-2.194-.79-.626-3.107-.51-4.917-1.87-1.733-1.296-4.487-4.986-3.99-8.303.493-3.317 2.097-5.59 2.097-5.59s3.366.8 5.363 2.437c1.997 1.636 4.25 5.28 3.9 7.956-.36 2.674-2.003 3.757-1.96 4.63.04.75 1.543 1.8 1.987 2.09.063-.476.113-.903.083-1.206-.11-1.07.567-2.934.567-2.934s.71-1.59.816-2.09c.107-.5-.253-1.623-.61-2.713-.356-1.093.17-3.27.064-4.533-.11-1.264.353-3.597.426-4.18.06-.574.884-2.554 1.19-3.024l.82-1.506c.397-.62 1.03-.944 1.53-1.397a13.779 13.779 0 0 0 1.42-1.473c.35-.437 1.224-.697 1.634-.854C23.037.973 23.73 0 23.73 0s.037 1.117.187 1.647c.156.53.593.843.826 2.09.227 1.25.45 2.3.477 3.393.033 1.09-.273 3.393-.787 4.53-.52 1.137-1.25 2.533-2.546 4.327-1.29 1.793-4.774 4.39-5.15 4.903l-.9 2.65s-.387 1.743-.447 3.847l.167.046c.32.064 1.126-.536 1.543-.966.417-.434.3-.997.713-2.124.414-1.133 1.72-3.87 3.324-5.646 1.606-1.78 3.683-2.384 5.6-2.624 1.916-.24 5.453 1.174 5.453 1.174s-.343 2.406-1.117 4.463c-.77 2.05-4.626 4.4-6.533 5.117-1.903.71-6.523.123-6.953.193l-1.687.967-.513-.077c.003 1.763-.43 2.327-.287 3.71.143 1.383-.097 2.807.193 3.82l.59 1.647.527-.317c.227-.267.593-1.163 1.033-2.663.447-1.504 2.657-3.967 4.06-5.25 1.394-1.284 5.534-2.234 6.577-1.89l3.437.06s-.64 2.67-1.09 3.82c-.444 1.153-.177 1.696-.68 2.693-.497.993-.78 1.403-2.32 2.723-1.544 1.327-3.744 1.82-5.51 1.694-1.774-.13-4.73-.644-5.297-.56-.573.08-.74.343-.74.343-.213.433-.29 1.31-.233 2.2.066.947.213 3.353.643 5.223.437 1.867.97 4.677 1.353 5.044l.757.64.447-.48c.35-.597.07-1.904.606-4.597.537-2.69 3.74-5.807 6.027-6.953 2.287-1.14 6.83-1.204 6.83-1.204s-.39 2.57-.677 3.267c-.293.703-.046 1.213-.696 3.157-.66 1.946-2.76 3.796-5.124 5.253-2.363 1.46-6.21 1.103-6.553 1.457l-.713.783c.106.59.26 1.397.526 1.83.41.67 1.327 3.56 2.86 5.55.747.963 1.28 1.713 1.637 2.227.18-.174 1.087-1.03 1.393-1.497.347-.52-.773-2.643-.566-5.287.21-2.65 1.62-3.936 3.47-5.536l5.97-1.447s.376 1.637.483 3.667c.103 2.023-1.23 4.386-2.99 6.01-1.767 1.62-4.793 1.583-5.74 2.73-.47.566-1.703 1.793-1.72 1.81l.247.383s.61 1.167 1.43 2.02c.596.623 2.79 2.583 4.71 4 .196-.327.476-.833.586-1.193.184-.574-.803-1.237-.606-5.097.176-3.407 4.1-5.553 5.17-6.277a70.9 70.9 0 0 0 2.553-1.87s2.627 4.64-.143 9.357c-1.53 2.62-6.23 3.667-6.467 4.093l-.59 1.347c.533.373 1.04.693 1.463.907l3.87 2.126c1.597.744 1.964.387 4.534 1.994 2.576 1.6 6.113 4.38 6.463 4.833 0 0-.45 1.377-.663 1.64-.217.267-.43.127-.594-.01-.17-.14.067-.72-.356-1.077-.43-.356-3.594-3.153-4.62-3.853-1.034-.707-2.64-1.617-3.867-2.077-.79-.3-2.423-1.04-3.69-1.676l-.387.203c-.256.027-1.643-.05-2.063.41-.417.46-1.967 3.423-2.987 4.027-1.023.606-2.95 2.066-5.066 1.463-2.11-.607-3.46-.52-4.447-1.233-.983-.707-1.49-1.994-1.49-1.994s.493-.553.787-1.2c.293-.646 1.946-2.706 3.1-3.283 1.16-.577 4.08-1.483 5.756-.843 1.68.65 3.28 2.12 3.87 2.376.597.254 2.01-.093 2.237-.226l-.883-.554c-.767-.526-4.77-3.62-5.774-4.55-.553-.506-1.303-1.336-2.036-2.226-.437.06-1.257.176-1.464.293-.276.167-2.43 2.297-3.763 2.823-1.333.52-4.503 1.91-6.633.734-2.137-1.18-3.614-3.344-3.614-3.344s.587-1.363 1.51-2.05c.924-.686 3.724-1.8 4.904-1.79 1.186.01 2.566.004 3.79.487 1.226.487 3.3 2.277 3.57 2.43.213.12.856-.19 1.11-.327l-1.03-1.413c-.964-1.463-2.227-3.303-2.58-3.603l-.264-.534-1.796-.31-3.04 1.26c-1.204.25-2.18-.016-3.34.017-1.16.023-2.634.873-5.307.25-2.663-.627-5.297-3.373-5.297-3.373s.447-.117.764-.477c.326-.36.58-.72 1.126-1.523.547-.807 1.38-1.35 3.127-2.38 1.733-1.027 4.413-.15 5.117.11.696.26 1.86.306 3.21 1.256 1.353.954 2.963 3.797 3.59 4.2.57.36 1.48.18 1.636.14-.103-.426-.22-.88-.396-1.243-.397-.82-1.954-4.54-2.454-5.823-.553-.317-1.733-1.007-2.03-1.227-.403-.293-.866-.327-2.16.07-1.303.39-4.293.627-6.203-.347C4.1 46.86 1.533 43.62.94 42.09.353 40.557 0 38 0 38s1.3.04 1.917.007c.626-.034 2.186-.457 4.22-.204 2.026.25 4.55 1.08 6.146 3.094 1.597 2.016 1.727 6.036 2.26 6.616.38.417 1.147.764 1.557.934-.373-1.507-.997-4.897-1.107-6.34l-.226-2.927c-.407-.413-1.18-1.197-1.567-1.507z" fill-rule="nonzero" fill="#222" />
  </symbol>

  <symbol id="creative-bloq" viewBox="0 0 80 80">
    <title>creative-blog</title>
    <g fill="none" fill-rule="evenodd">
      <g fill-rule="nonzero">
        <path d="M68.116 74.563H9.38C.6 74.6.4 66 .4 65.684V9.38C.5.6 9 .6 9.4.5h56.008c8.78 0 8.8 8.6 8.8 8.88v59.03l4.73 4.732-6.154 6.151-4.668-4.73z" fill="#E94E1B" />
        <path d="M65.389 1c8.247 0 8.4 8 8.4 8.38v59.237l.293.293 4.23 4.232-5.447 5.444-4.23-4.23-.312-.293H9.38c-8.245 0-8.377-8.039-8.379-8.378V9.38C1 1.2 9 1 9.4 1h55.989zm0-1H9.379S0 0 0 9.38v56.305s0 9.4 9.4 9.377h58.53L72.845 80l6.86-6.858-4.936-4.939V9.38c0 .02.03-9.38-9.37-9.38h-.011z" fill="#E3441B" />
      </g>
      <path d="M36.71 51.729V40.106h-8.669v10.68c0 1.068-.501 1.572-1.57 1.572h-1.13c-1.068 0-1.57-.504-1.57-1.572v-26.51c0-1.066.502-1.569 1.57-1.569h1.006c1.067 0 1.6.6 1.6 1.57v9.36h8.67V23.337c0-5.466-2.7-8.167-8.165-8.167h-5.278c-5.465 0-8.167 2.701-8.167 8.167v28.393c0 5.4 2.8 8.2 8.2 8.166h5.403C34.009 59.8 36.8 57.2 36.8 51.8" fill="#FFF" fill-rule="nonzero" />
      <path d="M36.71 51.729V40.106h-8.669v10.68c0 1.068-.501 1.572-1.57 1.572h-1.13c-1.068 0-1.57-.504-1.57-1.572v-26.51c0-1.066.502-1.569 1.57-1.569h1.006c1.067 0 1.6.6 1.6 1.6v9.361h8.67V23.367c0-5.466-2.7-8.167-8.165-8.167h-5.278c-5.465 0-8.167 2.7-8.167 8.167v28.392c0 5.4 2.8 8.2 8.2 8.166h5.403C34.009 59.8 36.8 57.2 36.8 51.8" stroke="#DD4531" stroke-width=".5" />
      <g>
        <path d="M52.567 50.526c0 1.086-.51 1.597-1.597 1.597h-2.236v-11.31h2.236c1.088 0 1.6.6 1.6 1.598v8.115h-.003zM52.44 31.8c0 1.086-.51 1.598-1.597 1.598h-2.109V22.792h2.109c1.087 0 1.6.6 1.6 1.598v7.351l-.003.059zm9.01 19.685v-9.074c0-3.259-1.15-4.982-3.834-5.75 2.363-.893 3.705-2.811 3.705-6.644V23.37c0-5.558-2.748-8.306-8.305-8.306H39.853v44.726h13.29C58.7 59.8 61.4 57 61.4 51.4l.05.085z" fill="#FFF" fill-rule="nonzero" />
        <path d="M52.567 50.6c0 1.086-.51 1.597-1.597 1.597h-2.236v-11.31h2.236c1.088 0 1.6.6 1.6 1.598v8.041l-.003.074zm-.127-18.8c0 1.086-.51 1.598-1.597 1.598h-2.109V22.792h2.109c1.087 0 1.6.6 1.6 1.598v7.351l-.003.059zm9.01 19.685v-9.074c0-3.259-1.15-4.982-3.834-5.75 2.363-.893 3.705-2.811 3.705-6.644V23.37c0-5.558-2.748-8.306-8.305-8.306H39.853v44.726h13.29C58.7 59.8 61.4 57 61.4 51.4l.05.085z" stroke="#DD4531" stroke-width=".5" />
      </g>
    </g>
  </symbol>

  <symbol id="css-tricks" viewBox="0 0 80 86">
    <title> CSS Tricks logo </title>
    <path d="M34.508 52.734l-19.46 14.27c-2.334 1.556-4.152 2.594-6.486 2.594-4.67 0-8.562-4.152-8.562-8.816 0-3.898 3.114-6.752 5.968-8.048l22.832-9.86-22.832-10.12C2.865 31.458 0 28.604 0 24.712c0-4.67 4.152-8.562 8.815-8.562 2.337 0 3.892.778 6.226 2.594l19.46 14.27-2.587-23.092c-.778-5.453 2.854-9.86 8.044-9.86s8.816 4.152 8.044 9.6L45.4 33.014l19.46-14.27c2.343-1.816 4.16-2.594 6.495-2.594a8.64 8.64 0 0 1 8.562 8.562c0 4.152-2.854 6.746-5.968 8.044L51.114 42.874l22.834 9.86c3.114 1.296 5.968 4.15 5.968 8.302 0 4.67-4.152 8.562-8.815 8.562-2.076 0-3.892-1.038-6.228-2.594l-19.474-14.27 2.594 23.092c.778 5.448-2.854 9.86-8.044 9.86s-8.815-4.152-8.044-9.6l2.603-23.352z" fill-rule="nonzero" fill="#E87A29" />
  </symbol>

  <symbol id="heart-internet" viewBox="0 0 80 80">
    <title>heart-internet</title>
    <defs>
      <linearGradient x1="2.655%" y1="97.349%" x2="97.669%" y2="2.315%" id="heart-gradient">
        <stop stop-color="#153B60" offset="0%" />
        <stop stop-color="#157580" offset="50.07%" />
        <stop stop-color="#5BB470" offset="100%" />
      </linearGradient>
    </defs>
    <path d="M73.929 79.866H5.954C2.667 79.866 0 77.199 0 73.929V5.954A5.955 5.955 0 0 1 5.954 0h67.975a5.955 5.955 0 0 1 5.954 5.954v67.975c-.017 3.27-2.684 5.937-5.954 5.937z" transform="translate(0 .123)" fill="url(#heart-gradient)" />
    <path d="M57.727 65.314c-.47 0-.905-.017-1.375-.05-.436-.017-.855-.05-1.24-.101l-1.728-.235V15.167l1.727-.218a21.165 21.165 0 0 1 3.958-.117c.503.033.94.067 1.292.117l1.727.218v49.71l-1.677.27c-.336.05-.772.083-1.308.1-.386.05-.872.067-1.376.067m-35.605 0c-.47 0-.906-.017-1.376-.05-.436-.017-.855-.05-1.24-.101l-1.728-.235V15.167l1.727-.218a21.165 21.165 0 0 1 3.958-.117c.503.033.94.067 1.292.117l1.727.218v49.71l-1.677.27c-.335.05-.771.083-1.308.1-.386.05-.872.067-1.375.067m6.708-28.847c0-.302.017-.587.05-.889.017-.268.05-.553.101-.788l.235-1.107h21.551l.218 1.107a8.79 8.79 0 0 1 .117 2.55 7.398 7.398 0 0 1-.117.82l-.218 1.108H29.25l-.268-1.074a7.2 7.2 0 0 1-.117-.838c-.017-.252-.034-.57-.034-.89m0 8c0-.301.017-.586.05-.871.017-.269.05-.554.101-.788l.235-1.107h21.551l.218 1.107a8.79 8.79 0 0 1 .117 2.55 8.426 8.426 0 0 1-.117.837l-.218 1.107H29.25l-.268-1.073a7.2 7.2 0 0 1-.117-.839 15.788 15.788 0 0 1-.034-.922" fill="#fff" />
</symbol>

  <symbol id="sitepoint" viewBox="0 0 80 99" xmlns="http://www.w3.org/2000/svg">
    <title>sitepoint</title>
    <g fill-rule="nonzero" fill="none">
      <path d="M2.014 44.007l7.273 7.05 22.9 21.407 9.883-9.547a3.263 3.263 0 0 0-.187-4.103l-9.025-7.907h.037l-9.734-9.436c-1.119-1.305-1.119-3.244.112-4.475l26.144-25.287L37.52.185 2.014 34.46c-2.685 2.648-2.685 6.937 0 9.547" fill="#F4B249" />
      <path d="M77.24 54.711L69.967 47.7l-22.9-21.408-9.883 9.51c-.895 1.268-.858 2.947.187 4.103l9.025 7.944h-.037l9.734 9.436a3.323 3.323 0 0 1-.112 4.475L29.837 87.047l11.86 11.525L69.93 71.27l7.273-7.012a6.601 6.601 0 0 0 .037-9.548" fill="#3D5DFB" />
    </g>
  </symbol>

  <symbol id="scotch" viewBox="0 0 79 129">
    <title>scotch</title>
    <g fill-rule="nonzero" fill="none">
      <path d="M56.012.225h11.959l.776 15.013c1.346 12.942 3.676 20.655 5.746 27.488 1.916 6.316 3.676 12.27 4.349 20.656 1.397 17.911-12.114 29.041-16.514 32.665l-.052.052c-.259.207-.518.414-.725.569l-.258.259c0 .052.051.259.051.259.31.828 1.916 4.141 2.796 5.953.621 1.294 1.242 2.536 1.656 3.468.156.31.31.622.466.984.829 1.656 2.123 4.193 2.382 7.04.414 4.297-1.398 7.92-5.177 10.198-3.054 1.864-9.008 3.003-17.705 3.469v.155H33.338v-.207c-8.748-.466-14.65-1.605-17.704-3.468-3.78-2.278-5.643-5.902-5.177-10.199.31-2.847 1.553-5.383 2.381-7.04.156-.362.31-.673.466-.983.466-.932 1.036-2.175 1.657-3.469v-.052c.88-1.811 2.433-5.073 2.743-5.901 0 0 .052-.155.052-.259l-.259-.259c-.207-.155-.414-.362-.724-.57l-.052-.051C12.32 92.32-1.191 81.241.207 63.33.88 54.943 2.64 48.99 4.556 42.675c2.07-6.834 4.4-14.547 5.746-27.489L11.078.174h11.958" fill="#333" />
      <path d="M58.238 92.734c.207-.207.518-.414.829-.673 4.348-3.572 15.84-13.046 14.65-28.265-.621-7.869-2.226-13.253-4.142-19.568-2.122-7.04-4.555-15.065-5.953-28.576l-.518-9.991-1.604.103.517 9.992v.051c1.45 13.667 3.883 21.743 6.005 28.887 1.864 6.212 3.469 11.544 4.09 19.205 1.035 13.046-7.972 21.743-12.735 25.832-20.344 14.702-39.498 0-39.498 0-4.763-4.09-13.77-12.786-12.735-25.832.57-7.661 2.226-13.045 4.09-19.205 2.174-7.144 4.607-15.22 6.005-28.887l.517-10.043-1.605-.103-.517 9.991c-1.398 13.46-3.831 21.484-5.954 28.576-1.915 6.263-3.52 11.7-4.14 19.568-1.192 15.22 10.3 24.693 14.65 28.265.31.259.569.466.828.673 2.847 2.433 2.122 4.866 1.811 5.953l-.051.155c-.207.621-1.76 3.935-3.003 6.575-.621 1.294-1.19 2.536-1.656 3.468-.156.362-.363.725-.518 1.087-1.45 2.847-3.83 7.662.828 10.509 3.831 2.33 15.479 2.795 20.19 2.899h2.07c4.763-.104 16.359-.57 20.19-2.899 4.71-2.847 2.277-7.662.828-10.509-.207-.362-.363-.776-.518-1.087-.414-.932-1.035-2.174-1.657-3.468-1.242-2.64-2.847-5.902-3.002-6.575l-.052-.155c-.362-1.035-1.139-3.52 1.76-5.953z" fill="#FFF" />
      <g opacity=".98">
        <path d="M44.623 71.975c16.514 20.552 23.296-4.09 23.4-4.452.155-1.915.103-3.883 0-5.953 0 0-2.382-24.28-24.642-1.45a114.979 114.979 0 0 1-5.28 5.073c2.174 1.864 4.348 4.09 6.522 6.782z" fill="#CBA543" />
        <path d="M38.153 65.245c-14.081-11.958-26.66-6.057-26.35 3.417 0 .414.052.88.103 1.294 1.554 2.744 7.507 12.062 26.247-4.71z" fill="#ECD27C" />
        <path d="M68.022 67.678v-.155c-.103.362-6.885 25.004-23.399 4.452-2.174-2.692-4.348-4.918-6.47-6.73-18.74 16.773-24.642 7.455-26.247 4.711.622 6.316 3.935 10.871 6.627 13.563a49.24 49.24 0 0 0 3.882 3.21c3.106 2.174 6.368 3.727 9.733 4.607.103.052.207.052.31.103.104.052.207.052.363.104.31.052.672.155.983.207.052 0 .104 0 .155.052 1.346.259 2.744.414 4.245.466h1.916c3.727-.156 7.04-1.036 9.784-2.07a41.473 41.473 0 0 0 6.988-3.676c.88-.777 1.657-1.502 2.433-2.226l.26-.26c.206-.206.362-.362.517-.569 5.694-5.798 7.558-10.56 8.024-15.633-.104-.104-.104-.104-.104-.156z" fill="#A27B2E" />
      </g>
    </g>
  </symbol>

  <symbol id="smashing-magazine" viewBox="0 0 80 81">
    <title>Smashing</title>
    <g fill="none" fill-rule="evenodd">
      <path fill="#D13C33" d="M.2.6h79.6v79.5H.2z" />
      <g fill-rule="nonzero" fill="#FFF">
        <path d="M46.826 51.643a46.894 46.894 0 0 0-11.915-6.434 48.204 48.204 0 0 1-9.124-4.886c-6.808-4.743-10.213-10.627-10.213-17.65a18.094 18.094 0 0 1 3.83-11.728c.454-.564.943-1.098 1.464-1.6L6.315 12.749a7.864 7.864 0 0 0-6.009 9.379l12.051 52.068A7.864 7.864 0 0 0 21.77 80l5.975-1.379-.511-.05a57.464 57.464 0 0 1-11.54-4.971l6.23-13.923a27.745 27.745 0 0 0 17.702 6.23c6.808 0 10.212-2.435 10.212-7.269a8.953 8.953 0 0 0-3.012-6.995zM79.745 58.638L67.694 6.57a7.864 7.864 0 0 0-9.43-5.89l-8.766 2.026c1.01.16 2.008.346 2.996.562A47.88 47.88 0 0 1 63.83 7.336l-5.107 13.617c-3.812-3.268-9.14-4.902-15.949-4.902-6.104 0-9.163 2.428-9.174 7.285a6.57 6.57 0 0 0 3.013 5.107 62.672 62.672 0 0 0 12.868 6.23 40.238 40.238 0 0 1 10.876 6.042 21.583 21.583 0 0 1 3.405 3.404 21.021 21.021 0 0 1 4.323 13.328 20.17 20.17 0 0 1-4.17 12.902l9.923-2.264a7.847 7.847 0 0 0 5.907-9.447z" />
      </g>
    </g>
  </symbol>
</svg>
