<svg width="27" height="27" viewBox="0 0 27 27">
  <title>radio </title>
  <g transform="translate(1 1)" fill="none" fill-rule="evenodd">
    <circle stroke="currentColor" cx="12.5" cy="12.5" r="12.5"/>
    <path stroke="currentColor" d="M13.497 13.614c-1.566-1.623-2.768-3.703-4.698-4.87-.574-.346-2.022.344-1.766.964l-.64 3.371c2.018 4.894 11.428 1.825 7.864-5.297-2.529-5.054-9.282.503-8.185 4.334 1.33 4.646 11.866 4.32 13.162-.32 2.23-7.983-12.68-6.59-12.04 2.085.575 7.791 10.546 2.663 13.004-.32.51-.62.458-1.751-.002-2.408C16.772 6.268 4.08 9.656 6.714 16.29c2.302 5.798 15.589 3.311 11.876-2.73-3.847-6.26-9.275-6.838-9.629.001" stroke-width="2" stroke-dasharray="148" stroke-dashoffset="-148"/>
  </g>
</svg>